<?xml version="1.0" encoding="UTF-8" standalone="no"?>
<svg
   xmlns:dc="http://purl.org/dc/elements/1.1/"
   xmlns:cc="http://creativecommons.org/ns#"
   xmlns:rdf="http://www.w3.org/1999/02/22-rdf-syntax-ns#"
   xmlns:svg="http://www.w3.org/2000/svg"
   xmlns="http://www.w3.org/2000/svg"
   xmlns:sodipodi="http://sodipodi.sourceforge.net/DTD/sodipodi-0.dtd"
   xmlns:inkscape="http://www.inkscape.org/namespaces/inkscape"
   version="1.1"
   width="24"
   height="24"
   viewBox="0 0 24 24"
   id="svg5759"
   sodipodi:docname="history.svg"
   inkscape:version="0.92.4 (5da689c313, 2019-01-14)">
  <metadata
     id="metadata5765">
    <rdf:RDF>
      <cc:Work
         rdf:about="">
        <dc:format>image/svg+xml</dc:format>
        <dc:type
           rdf:resource="http://purl.org/dc/dcmitype/StillImage" />
        <dc:title></dc:title>
      </cc:Work>
    </rdf:RDF>
  </metadata>
  <defs
     id="defs5763" />
  <sodipodi:namedview
     pagecolor="#ffffff"
     bordercolor="#666666"
     borderopacity="1"
     objecttolerance="10"
     gridtolerance="10"
     guidetolerance="10"
     inkscape:pageopacity="0"
     inkscape:pageshadow="2"
     inkscape:window-width="1680"
     inkscape:window-height="1027"
     id="namedview5761"
     showgrid="false"
     inkscape:zoom="9.8333333"
     inkscape:cx="12"
     inkscape:cy="12"
     inkscape:window-x="1272"
     inkscape:window-y="-8"
     inkscape:window-maximized="1"
     inkscape:current-layer="svg5759" />
  <path
     d="M13.5,8H12V13L16.28,15.54L17,14.33L13.5,12.25V8M13,3A9,9 0 0,0 4,12H1L4.96,16.03L9,12H6A7,7 0 0,1 13,5A7,7 0 0,1 20,12A7,7 0 0,1 13,19C11.07,19 9.32,18.21 8.06,16.94L6.64,18.36C8.27,20 10.5,21 13,21A9,9 0 0,0 22,12A9,9 0 0,0 13,3"
     id="path5757" />
  <path
     style="fill:#81b6f4;fill-opacity:1;stroke-width:0.10169491"
     d="m 12.838983,4.9739669 c 0.09788,-0.025579 0.258051,-0.025579 0.355932,0 0.09788,0.025579 0.0178,0.046507 -0.177966,0.046507 -0.195763,0 -0.275847,-0.020928 -0.177966,-0.046507 z"
     id="path5767"
     inkscape:connector-curvature="0" />
  <path
     style="fill:#81b6f4;fill-opacity:1;stroke-width:0.10169491"
     d="M 14.059322,14.174467 12,12.946992 V 10.520953 8.0949153 h 0.711864 0.711865 v 2.0786497 2.078649 l 1.652542,0.986979 c 0.908898,0.542839 1.691848,1.021922 1.739888,1.064629 0.103634,0.09213 -0.448319,1.116254 -0.59582,1.10552 -0.05593,-0.0041 -1.02839,-0.559764 -2.161017,-1.234875 z"
     id="path5771"
     inkscape:connector-curvature="0" />
</svg>
