<?xml version="1.0" encoding="UTF-8" standalone="no"?>
<svg
   xmlns:dc="http://purl.org/dc/elements/1.1/"
   xmlns:cc="http://creativecommons.org/ns#"
   xmlns:rdf="http://www.w3.org/1999/02/22-rdf-syntax-ns#"
   xmlns:svg="http://www.w3.org/2000/svg"
   xmlns="http://www.w3.org/2000/svg"
   xmlns:sodipodi="http://sodipodi.sourceforge.net/DTD/sodipodi-0.dtd"
   xmlns:inkscape="http://www.inkscape.org/namespaces/inkscape"
   version="1.1"
   width="24"
   height="24"
   viewBox="0 0 24 24"
   id="svg3725"
   sodipodi:docname="pencil-outline.svg"
   inkscape:version="0.92.4 (5da689c313, 2019-01-14)">
  <metadata
     id="metadata3731">
    <rdf:RDF>
      <cc:Work
         rdf:about="">
        <dc:format>image/svg+xml</dc:format>
        <dc:type
           rdf:resource="http://purl.org/dc/dcmitype/StillImage" />
        <dc:title></dc:title>
      </cc:Work>
    </rdf:RDF>
  </metadata>
  <defs
     id="defs3729" />
  <sodipodi:namedview
     pagecolor="#ffffff"
     bordercolor="#666666"
     borderopacity="1"
     objecttolerance="10"
     gridtolerance="10"
     guidetolerance="10"
     inkscape:pageopacity="0"
     inkscape:pageshadow="2"
     inkscape:window-width="1680"
     inkscape:window-height="1027"
     id="namedview3727"
     showgrid="false"
     inkscape:zoom="2"
     inkscape:cx="7.4545455"
     inkscape:cy="10.881119"
     inkscape:window-x="1272"
     inkscape:window-y="-8"
     inkscape:window-maximized="1"
     inkscape:current-layer="svg3725" />
  <path
     d="M14.06,9L15,9.94L5.92,19H5V18.08L14.06,9M17.66,3C17.41,3 17.15,3.1 16.96,3.29L15.13,5.12L18.88,8.87L20.71,7.04C21.1,6.65 21.1,6 20.71,5.63L18.37,3.29C18.17,3.09 17.92,3 17.66,3M14.06,6.19L3,17.25V21H6.75L17.81,9.94L14.06,6.19Z"
     id="path3723" />
  <path
     style="stroke-width:0.02797203;fill:#1a1a1a"
     d="m 17.013682,6.9745214 -1.853294,-1.8534507 0.98624,-0.9813206 c 0.852974,-0.8487201 1.006829,-0.9898992 1.138615,-1.0448075 0.228979,-0.095404 0.430863,-0.1044977 0.67685,-0.03049 l 0.205739,0.061899 1.323827,1.3193414 c 0.954713,0.9514783 1.344561,1.3583378 1.398187,1.4592016 0.06534,0.1228904 0.07441,0.1721029 0.07478,0.4055944 7.07e-4,0.4536848 0.03645,0.4033043 -1.086381,1.5314685 -0.539742,0.5423077 -0.98808,0.986014 -0.996307,0.986014 -0.0082,0 -0.84894,-0.8340528 -1.868251,-1.8534506 z"
     id="path3733"
     inkscape:connector-curvature="0" />
  <path
     style="fill:#81b6f4;stroke-width:0.02797203;fill-opacity:1"
     d="m 18.811034,8.7438845 c -0.02793,-0.030864 -0.05766,-0.049239 -0.06607,-0.040833 -0.01923,0.019228 -3.584129,-3.5430431 -3.584129,-3.5814852 0,-0.015536 0.33986,-0.3679336 0.755245,-0.7831045 0.415385,-0.4151709 0.755245,-0.7432703 0.755245,-0.7291097 0,0.014161 0.103846,-0.074753 0.230769,-0.1975859 0.227193,-0.2198711 0.412587,-0.3683915 0.412587,-0.3305253 0,0.010624 0.01888,0.00365 0.04196,-0.015506 0.02308,-0.019152 0.04196,-0.028325 0.04196,-0.020384 0,0.00794 0.05308,0.00251 0.117955,-0.012065 0.142591,-0.032038 0.464461,0.015175 0.609318,0.089376 0.08903,0.045607 1.975715,1.9192382 2.505859,2.4885278 0.121778,0.1307692 0.230632,0.2418839 0.241898,0.2469214 0.04342,0.019414 0.08274,0.2508604 0.08227,0.4842912 -6.24e-4,0.311675 -0.04978,0.4259287 -0.300382,0.6982271 C 20.304246,7.4223099 18.923805,8.8 18.892634,8.8 c -0.01695,0 -0.05367,-0.025252 -0.0816,-0.056116 z"
     id="path3735"
     inkscape:connector-curvature="0" />
</svg>
