<svg xmlns="http://www.w3.org/2000/svg" viewBox="0 0 3520 64" width="3520" height="64"><path d="M34.04 19.105h.093V32.11h-.093z" fill="none" stroke="#81b6f4" stroke-opacity=".941176" stroke-width="3.995482"/><path d="M34.04 32.203v-.093l13.007-.069.001.093z" fill="none" stroke="#81b6f4" stroke-opacity=".941176" stroke-width="3.992416" stroke-linejoin="round"/><path d="M34.205 3.366c-13.965 0-25.286 12.816-25.286 28.625H3.866l7.751 12.818 7.475-12.818h-4.554c0-12.296 8.806-22.264 19.667-22.264 10.862 0 19.667 9.968 19.667 22.264s-8.805 22.264-19.667 22.264c-5.422 0-10.339-2.513-13.879-6.552l-3.989 4.516c4.579 5.217 10.844 8.397 17.868 8.397 13.965 0 25.286-12.816 25.286-28.625S48.17 3.366 34.205 3.366" fill="#000000"/><path d="M98.04 19.105h.093V32.11h-.093z" fill="none" stroke="#81b6f4" stroke-opacity=".941176" stroke-width="3.995482"/><path d="M97.945499 32.199596l.04138-.083287 11.679229 5.725593-.040484.083732z" fill="none" stroke="#81b6f4" stroke-opacity=".941176" stroke-width="3.992416" stroke-linejoin="round"/><path d="M98.071633 3.356042c-13.964849.065033-25.226044 12.933614-25.152425 28.742442l-5.052945.023531 7.810607 12.781766 7.415228-12.85267-4.55395.021206c-.05726-12.295866 8.702225-22.304766 19.563107-22.355344 10.861882-.050582 19.713206 9.876306 19.770466 22.172173.05726 12.295867-8.701225 22.304762-19.563107 22.355344-5.421942.02525-10.35059-2.464825-13.909361-6.487297l-3.967927 4.534528c4.603245 5.19562 10.882986 8.34641 17.90691 8.3137 13.964848-.065032 25.226044-12.933613 25.152424-28.742442-.07362-15.808828-11.454179-28.57197-25.419027-28.506937" fill="#000000"/><path d="M162.04 19.105h.093V32.11h-.093z" fill="none" stroke="#81b6f4" stroke-opacity=".941176" stroke-width="3.995482"/><path d="M161.863719 32.15568l.073629-.056813 8.000553 10.25563-.073019.057606z" fill="none" stroke="#81b6f4" stroke-opacity=".941176" stroke-width="3.992416" stroke-linejoin="round"/><path d="M161.650508 3.328694c-13.962386.270228-25.033271 13.302894-24.72736 29.108934l-5.052054.097778 7.997582 12.665615 7.225567-12.960244-4.553148.088121c-.237932-12.293697 8.373534-22.43023 19.2325-22.640395 10.859967-.210184 19.856203 9.585569 20.094136 21.879267.237932 12.293697-8.372534 22.430211-19.2325 22.640395-5.420985.104918-10.385692-2.312465-14.003186-6.282209L144.73118 52.5183c4.679093 5.127417 11.004455 8.185592 18.02714 8.049674 13.962385-.270228 25.03327-13.302894 24.72736-29.108934-.305911-15.80604-11.872786-28.400575-25.835171-28.130346" fill="#000000"/><path d="M226.04 19.105h.093V32.11h-.093z" fill="none" stroke="#81b6f4" stroke-opacity=".941176" stroke-width="3.995482"/><path d="M225.81007 32.08207l.090891-.01969 2.821069 12.697575-.09068.020666z" fill="none" stroke="#81b6f4" stroke-opacity=".941176" stroke-width="3.992416" stroke-linejoin="round"/><path d="M224.90598 3.29552c-13.950672.632438-24.679654 13.947986-23.963707 29.740766l-5.047815.228837 8.32354 12.453827 6.886838-13.143372-4.549328.206239c-.556853-12.283384 7.788688-22.639958 18.638545-23.131824 10.850855-.49191 20.098246 9.067107 20.655099 21.350491.556853 12.283385-7.787689 22.639913-18.638544 23.131824-5.416437.245548-10.4422-2.042196-14.161483-5.916735l-3.78039 4.692018c4.810566 5.004277 11.213152 7.897289 18.229945 7.57919 13.950672-.632437 24.679654-13.947986 23.963707-29.740766-.715948-15.79278-12.605735-28.082933-26.556407-27.450495" fill="#000000"/><path d="M290.04 19.105h.093V32.11h-.093z" fill="none" stroke="#81b6f4" stroke-opacity=".941176" stroke-width="3.995482"/><path d="M289.793174 31.994335l.09072.02047-2.795787 12.703165-.090939-.019495z" fill="none" stroke="#81b6f4" stroke-opacity=".941176" stroke-width="3.992416" stroke-linejoin="round"/><path d="M287.796807 3.281945c-13.915842 1.170707-24.122607 14.89065-22.797315 30.644002l-5.035213.4236 8.798268 12.123102 6.374135-13.39952-4.53797.381768c-1.030791-12.252717 6.908579-22.92385 17.731347-23.834343 10.823765-.910578 20.433404 8.284198 21.464196 20.536915 1.030792 12.252717-6.907582 22.923766-17.731347 23.834344-5.402914.454534-10.513274-1.63742-14.379409-5.36544l-3.596375 4.834508c5.00023 4.814771 11.509761 7.458373 18.509037 6.86954 13.915842-1.170706 24.122607-14.89065 22.797315-30.644001-1.325293-15.753352-13.680826-27.575182-27.596669-26.404475" fill="#000000"/><path d="M354.04 19.105h.093V32.11h-.093z" fill="none" stroke="#81b6f4" stroke-opacity=".941176" stroke-width="3.995482"/><path d="M353.814058 31.909256l.074116.056176-7.801886 10.407564-.07472-.05538z" fill="none" stroke="#81b6f4" stroke-opacity=".941176" stroke-width="3.992416" stroke-linejoin="round"/><path d="M350.27699 3.33296c-13.834366 1.905657-23.3006 16.14663-21.14331 31.807748l-5.005733.68953 9.427634 11.640398 5.655937-13.718132-4.5114.621437c-1.677907-12.180978 5.68549-23.257397 16.444891-24.739485 10.760393-1.482224 20.843257 7.191005 22.521164 19.371984 1.677907 12.180979-5.684498 23.257261-16.444891 24.739485-5.371281.739884-10.585209-1.078637-14.643254-4.596787l-3.335434 5.018093c5.248076 4.54335 11.888412 6.838683 18.846707 5.880191 13.834366-1.905658 23.3006-16.146631 21.14331-31.807748-2.15729-15.661117-15.121255-26.812373-28.955621-24.906715" fill="#000000"/><path d="M418.04 19.105h.093V32.11h-.093z" fill="none" stroke="#81b6f4" stroke-opacity=".941176" stroke-width="3.995482"/><path d="M417.866906 31.841586l.04493.081427-11.355052 6.34426-.045805-.080945z" fill="none" stroke="#81b6f4" stroke-opacity=".941176" stroke-width="3.992416" stroke-linejoin="round"/><path d="M412.298757 3.52073C398.629285 6.37849 390.170492 21.239974 393.4056 36.714422l-4.946068 1.034032 10.210012 10.960601 4.693774-14.076407-4.457628.931918c-2.516219-12.03579 4.063604-23.594882 14.694763-25.817446 10.632137-2.22277 21.290628 5.732456 23.806847 17.768247 2.516218 12.03579-4.062626 23.594677-14.694763 25.817446-5.30726 1.109543-10.634458-.344075-14.926074-3.573186l-2.980443 5.23673c5.549691 4.169563 12.332857 6.000216 19.208214 4.562844 13.669471-2.857758 22.128265-17.719242 18.893156-33.19369-3.23511-15.474448-16.939163-25.702537-30.608634-22.84478" fill="#000000"/><path d="M482.04 19.105h.093V32.11h-.093z" fill="none" stroke="#81b6f4" stroke-opacity=".941176" stroke-width="3.995482"/><path d="M481.940962 31.801698l.008804.092583-12.942054 1.300011-.0098-.092488z" fill="none" stroke="#81b6f4" stroke-opacity=".941176" stroke-width="3.992416" stroke-linejoin="round"/><path d="M473.819468 3.954162c-13.366765 4.043614-20.491877 19.588635-15.914327 34.720407l-4.836538 1.463113 11.130457 10.024572 3.443289-14.433312-4.358915 1.318626c-3.56035-11.769262 1.982149-23.860059 12.377884-27.0049 10.396692-3.145129 21.71077 3.846342 25.27112 15.615604 3.56035 11.769262-1.981192 23.85977-12.377884 27.0049-5.189731 1.569958-10.623744.588345-15.181603-2.252613l-2.510496 5.477572c5.893445 3.667648 12.810844 4.89737 19.533949 2.863547 13.366765-4.043614 20.491877-19.588635 15.914326-34.720407C501.73318 8.8995 487.186233-.089452 473.819468 3.954162" fill="#000000"/><path d="M546.04 19.105h.093V32.11h-.093z" fill="none" stroke="#81b6f4" stroke-opacity=".941176" stroke-width="3.995482"/><path d="M546.023005 31.79438l-.028013.08868-12.423672-3.852167.02706-.088981z" fill="none" stroke="#81b6f4" stroke-opacity=".941176" stroke-width="3.992416" stroke-linejoin="round"/><path d="M534.815222 4.789564c-12.849572 5.468979-18.247322 21.694859-12.056195 36.241145l-4.649401 1.978858 12.151693 8.758736 1.858159-14.721548-4.190258 1.783439c-4.815364-11.31388-.616399-23.934314 9.3771-28.187703 9.994417-4.25378 21.999806 1.469827 26.81517 12.783707 4.815365 11.31388.61732 23.933922-9.377099 28.187703-4.988928 2.123366-10.497334 1.736684-15.336337-.593372l-1.901829 5.717466c6.256345 3.007073 13.266292 3.479574 19.729264.728833 12.849571-5.468979 18.247321-21.69486 12.056195-36.241145-6.191127-14.546286-21.62689-21.905098-34.476462-16.43612" fill="#000000"/><path d="M610.04 19.105h.093V32.11h-.093z" fill="none" stroke="#81b6f4" stroke-opacity=".941176" stroke-width="3.995482"/><path d="M610.099844 31.818781l-.05978.071243-10.008292-8.307882.059014-.071885z" fill="none" stroke="#81b6f4" stroke-opacity=".941176" stroke-width="3.992416" stroke-linejoin="round"/><path d="M595.304968 6.239485c-12.015548 7.116728-15.225002 23.912986-7.16855 37.51512l-4.347624 2.575069 13.201199 7.078663-.10068-14.838012-3.918282 2.320772c-6.266187-10.579533-3.769275-23.643686 5.575578-29.17858 9.345713-5.535403 22.001385-1.446023 28.267571 9.13351 6.266186 10.579534 3.770135 23.643177-5.575578 29.17858-4.665113 2.763115-10.176376 3.10668-15.28053 1.435532l-1.130747 5.918428c6.598437 2.155218 13.609436 1.698586 19.652917-1.880927 12.015549-7.116728 15.225003-23.912987 7.16855-37.51512C623.59234 4.380384 607.320518-.877245 595.304969 6.239484" fill="#000000"/><path d="M674.04 19.105h.093V32.11h-.093z" fill="none" stroke="#81b6f4" stroke-opacity=".941176" stroke-width="3.995482"/><path d="M674.160403 31.86931l-.082095.043696-6.172275-11.449446.081626-.04458z" fill="none" stroke="#81b6f4" stroke-opacity=".941176" stroke-width="3.992416" stroke-linejoin="round"/><path d="M655.389057 8.572568c-10.738194 8.928181-11.249724 26.020672-1.142627 38.176784l-3.885435 3.230512 14.1549 4.900812-2.447077-14.635182-3.501736 2.911488c-7.861146-9.45484-7.462691-22.749496.888725-29.69321 8.352185-6.944354 21.495465-4.90886 29.356611 4.54598 7.861147 9.454839 7.46346 22.748856-.888724 29.69321-4.169172 3.466423-9.556656 4.67765-14.860926 3.83513l-.180093 6.022785c6.85632 1.084068 13.706761-.47609 19.107769-4.966712 10.738194-8.92818 11.249724-26.020671 1.142627-38.176784C683.025973 2.26127 666.12725-.355613 655.389057 8.572568" fill="#000000"/><path d="M738.04 19.105h.093V32.11h-.093z" fill="none" stroke="#81b6f4" stroke-opacity=".941176" stroke-width="3.995482"/><path d="M738.19712 31.937128l-.092395.010598-1.55073-12.914413.09228-.01159z" fill="none" stroke="#81b6f4" stroke-opacity=".941176" stroke-width="3.992416" stroke-linejoin="round"/><path d="M715.302615 12.090549c-8.879997 10.778074-6.187455 27.664906 6.013804 37.717457l-3.213078 3.899865 14.821497 2.168489-5.139661-13.919793-2.895776 3.51474c-9.489953-7.818721-11.583658-20.953524-4.677417-29.335956 6.906876-8.383204 20.198979-8.840428 29.688932-1.021706 9.489953 7.818721 11.584294 20.952753 4.677418 29.335956-3.447716 4.184656-8.513827 6.381602-13.882093 6.545446l.948906 5.95029c6.938111-.216674 13.376168-3.029867 17.842555-8.450934 8.879997-10.778074 6.187455-27.664906-6.013803-37.717457-12.201258-10.052551-29.291287-9.464471-38.171284 1.313603" fill="#000000"/><path d="M802.04 19.105h.093V32.11h-.093z" fill="none" stroke="#81b6f4" stroke-opacity=".941176" stroke-width="3.995482"/><path d="M802.20656 32.011901l-.09006-.023198 3.177663-12.61306.09031.02223z" fill="none" stroke="#81b6f4" stroke-opacity=".941176" stroke-width="3.992416" stroke-linejoin="round"/><path d="M775.472158 17.061695c-6.326816 12.449603-.030487 28.348381 14.063016 35.510618l-2.289251 4.50468 14.938644-1.10274-8.040535-12.471028-2.06318 4.059828c-10.961714-5.57068-15.858506-17.937089-10.93795-27.61952 4.921007-9.683321 17.796429-13.016873 28.758142-7.446194s15.858958 17.936197 10.93795 27.619519c-2.456427 4.833637-6.924368 8.078565-12.12887 9.404564l2.218742 5.602103c6.72539-1.718563 12.398662-5.86303 15.580871-12.124829 6.326816-12.449603.030487-28.348381-14.063016-35.510618-14.093504-7.162236-30.647747-2.875986-36.974563 9.573617" fill="#000000"/><path d="M866.04 19.105h.093V32.11h-.093z" fill="none" stroke="#81b6f4" stroke-opacity=".941176" stroke-width="3.995482"/><path d="M866.189321 32.083466l-.076239-.05326 7.392462-10.702258.07681.05244z" fill="none" stroke="#81b6f4" stroke-opacity=".941176" stroke-width="3.992416" stroke-linejoin="round"/><path d="M836.539082 23.593696c-3.050387 13.62778 6.983282 27.474814 22.410533 30.927988l-1.103732 4.930982 14.201534-4.763985-10.875705-10.094344-.994734 4.444032c-11.999082-2.685826-19.802877-13.456501-17.430499-24.055234 2.372596-10.59971 14.023177-17.014771 26.022258-14.328945 11.999082 2.685826 19.803095 13.455525 17.430499 24.055234-1.184332 5.291072-4.710674 9.540422-9.425387 12.112697l3.535629 4.87911c6.091217-3.328875 10.562897-8.74798 12.097155-15.602368 3.050387-13.62778-6.983282-27.474814-22.410533-30.927988-15.42725-3.453173-30.406631 4.795042-33.457018 18.422821" fill="#000000"/><path d="M930.04 19.105h.093V32.11h-.093z" fill="none" stroke="#81b6f4" stroke-opacity=".941176" stroke-width="3.995482"/><path d="M930.149356 32.143184l-.053424-.076124 10.607029-7.528462.054243.07555z" fill="none" stroke="#81b6f4" stroke-opacity=".941176" stroke-width="3.992416" stroke-linejoin="round"/><path d="M899.286235 31.46365c.811992 13.941373 14.264567 24.498036 30.046821 23.578824l.293806 5.044451 12.345633-8.483187-13.230946-6.717053.264791 4.546295c-12.275197.71495-22.738356-7.496565-23.369867-18.33919-.63157-10.843623 8.807601-20.213314 21.082799-20.928263 12.275197-.714949 22.738298 7.495567 23.369867 18.33919.315261 5.412827-1.90759 10.467626-5.733923 14.236484l4.7403 3.71967c4.941928-4.874595 7.75227-11.313896 7.34386-18.326013-.811992-13.941373-14.264567-24.498036-30.04682-23.578824-15.782254.919211-27.918314 12.966242-27.106321 26.907616" fill="#000000"/><path d="M994.04 19.105h.093V32.11h-.093z" fill="none" stroke="#81b6f4" stroke-opacity=".941176" stroke-width="3.995482"/><path d="M994.092974 32.184837l-.02494-.089593 12.51206-3.554594.025904.089325z" fill="none" stroke="#81b6f4" stroke-opacity=".941176" stroke-width="3.992416" stroke-linejoin="round"/><path d="M964.41694 39.99642c4.906736 13.0746 20.883338 19.170755 35.684365 13.616111l1.77542 4.730824 9.277343-11.760528-14.627144-2.494671 1.600091 4.26364c-11.512014 4.320317-23.938533-.421865-27.75465-10.590374-3.816467-10.169445 2.422257-21.915396 13.934272-26.235714 11.512014-4.320317 23.938181.420928 27.75465 10.590373 1.905071 5.076297 1.279934 10.562759-1.25773 15.296192l5.629637 2.147923c3.275491-6.120088 4.051468-13.10296 1.583519-19.679113-4.906737-13.0746-20.883339-19.170755-35.684366-13.61611-14.801027 5.554643-22.822145 20.656848-17.915408 33.731447" fill="#000000"/><path d="M1058.04 19.105h.093V32.11h-.093z" fill="none" stroke="#81b6f4" stroke-opacity=".941176" stroke-width="3.995482"/><path d="M1058.027687 32.205042l.005608-.09283 12.987495.715392-.00461.092891z" fill="none" stroke="#81b6f4" stroke-opacity=".941176" stroke-width="3.992416" stroke-linejoin="round"/><path d="M1032.241494 48.133857c8.709235 10.916522 25.787889 11.773549 38.145876 1.914307l3.15129 3.94996 5.186014-14.052914-14.68167 2.150661 2.840091 3.559889c-9.611855 7.668368-22.895737 7.001183-29.66917-1.488923-6.774058-8.490889-4.47323-21.590325 5.138624-29.258693 9.611855-7.668369 22.895113-7.001966 29.669171 1.488923 3.381416 4.238408 4.483464 9.649282 3.533866 14.935432l6.017912.301833c1.222478-6.833-.198848-13.713585-4.579347-19.204286-8.709236-10.916522-25.78789-11.773549-38.145876-1.914307-12.357987 9.85924-15.316017 26.701597-6.606781 37.618118" fill="#000000"/><path d="M1122.04 19.105h.093V32.11h-.093z" fill="none" stroke="#81b6f4" stroke-opacity=".941176" stroke-width="3.995482"/><path d="M1121.96113 32.20322l.034801-.086244 12.0878 4.803324-.033875.086617z" fill="none" stroke="#81b6f4" stroke-opacity=".941176" stroke-width="3.992416" stroke-linejoin="round"/><path d="M1102.467788 54.746198c11.68265 7.650943 28.174863 3.131895 36.83607-10.093383l4.22717 2.768365.538315-14.969614-13.275875 6.627812 3.809723 2.49498c-6.736555 10.28642-19.564483 13.80081-28.65043 7.850441-9.086784-5.950916-10.991627-19.113766-4.255071-29.400186 6.736555-10.28642 19.563646-13.801357 28.65043-7.850441 4.535863 2.970527 7.272473 7.766673 8.02109 13.08501l5.811223-1.592499c-.972422-6.873043-4.471298-12.965702-10.34734-16.81391-11.68265-7.650943-28.174863-3.131895-36.83607 10.093383-8.661207 13.225278-6.211885 30.149099 5.470765 37.800042" fill="#000000"/><path d="M1186.04 19.105h.093V32.11h-.093z" fill="none" stroke="#81b6f4" stroke-opacity=".941176" stroke-width="3.995482"/><path d="M1185.900156 32.181219l.05978-.071243 10.008292 8.307882-.059014.071885z" fill="none" stroke="#81b6f4" stroke-opacity=".941176" stroke-width="3.992416" stroke-linejoin="round"/><path d="M1174.275247 59.02216c13.46428 3.705995 27.780437-5.646146 31.975787-20.88831l4.871823 1.340952-4.071479-14.415345-10.608587 10.37471 4.390714 1.208529c-3.26308 11.855122-14.398618 19.128804-24.870193 16.24654-10.472539-2.882528-16.316551-14.829769-13.053472-26.684891 3.26308-11.855123 14.397654-19.12907 24.870193-16.24654 5.227592 1.438875 9.301398 5.16663 11.642611 10.000246l5.044417-3.295487c-3.030345-6.245105-8.226811-10.973674-14.998963-12.837684-13.46428-3.705994-27.780437 5.646147-31.975787 20.88831-4.19535 15.242162 3.318656 30.602977 16.782936 34.30897" fill="#000000"/><g><path d="M1250.04 19.105h.093V32.11h-.093z" fill="none" stroke="#81b6f4" stroke-opacity=".941176" stroke-width="3.995482"/><path d="M1249.850207 32.142727l.078462-.049927 7.04096 10.936713-.077926.05077z" fill="none" stroke="#81b6f4" stroke-opacity=".941176" stroke-width="3.992416" stroke-linejoin="round"/><path d="M1246.626154 60.685894c13.959128-.404907 24.903776-13.543765 24.445403-29.346118l5.050876-.14651-8.119392-12.587874-7.100207 13.029344 4.552085-.13204c.356516 12.29083-8.156765 22.509964-19.013199 22.824873-10.857433.314937-19.947748-9.393576-20.304263-21.684407-.356516-12.29083 8.155766-22.509935 19.013199-22.824873 5.41972-.157207 10.407516 2.21217 14.063136 6.146832l3.856384-4.62976c-4.728338-5.082041-11.082907-8.079054-18.103954-7.875397-13.959128.404907-24.903776 13.543765-24.445403 29.346118.458373 15.802354 12.146206 28.28472 26.105335 27.879812" fill="#000000"/></g><g><path d="M1314.04 19.105h.093V32.11h-.093z" fill="none" stroke="#81b6f4" stroke-opacity=".941176" stroke-width="3.995482"/><path d="M1313.814963 32.092575l.089647-.024747 3.527625 12.519692-.08938.02571z" fill="none" stroke="#81b6f4" stroke-opacity=".941176" stroke-width="3.992416" stroke-linejoin="round"/><path d="M1318.593806 59.95156c13.305626-4.240462 20.200523-19.888954 15.400131-34.951514l4.814417-1.53434-11.277204-9.859198-3.229883 14.482562 4.338978-1.382819c3.733672 11.71543-1.629767 23.886716-11.977953 27.18465-10.349138 3.29824-21.765176-3.525478-25.498848-15.240908-3.733672-11.71543 1.628814-23.886413 11.977952-27.184651 5.165995-1.646387 10.613904-.745085 15.213198 2.028291l2.429375-5.514029c-5.946936-3.580263-12.881732-4.707753-19.574086-2.57492-13.305627 4.240462-20.200523 19.888954-15.400132 34.951514 4.800392 15.06256 19.478428 23.835825 32.784055 19.595362" fill="#000000"/></g><g><path d="M1378.04 19.105h.093V32.11h-.093z" fill="none" stroke="#81b6f4" stroke-opacity=".941176" stroke-width="3.995482"/><path d="M1377.796263 32.036056l.092982.001803-.183236 13.005893-.093002-.000804z" fill="none" stroke="#81b6f4" stroke-opacity=".941176" stroke-width="3.992416" stroke-linejoin="round"/><path d="M1389.543123 57.324925c11.772696-7.511648 14.422852-24.405184 5.919334-37.7324l4.259752-2.717962-13.428891-6.636566.593153 14.826494 3.839088-2.449556c6.613907 10.365706 4.55202 23.505541-4.60396 29.347575-9.156823 5.842571-21.941262 2.175534-28.55517-8.190172-6.613907-10.365705-4.552862-23.505003 4.60396-29.347574 4.570825-2.916445 10.067647-3.44276 15.22446-1.941959l.933669-5.9527c-6.66634-1.935003-13.65832-1.245902-19.579653 2.532244-11.772696 7.511647-14.422852 24.405184-5.919333 37.732399 8.503518 13.327215 24.940895 18.041824 36.713591 10.530177" fill="#000000"/></g><g><path d="M1442.04 19.105h.093V32.11h-.093z" fill="none" stroke="#81b6f4" stroke-opacity=".941176" stroke-width="3.995482"/><path d="M1441.794235 31.978324l.08886.02744-3.771778 12.448313-.089155-.026484z" fill="none" stroke="#81b6f4" stroke-opacity=".941176" stroke-width="3.992416" stroke-linejoin="round"/><path d="M1459.15252 53.399742c9.660215-10.084715 8.236484-27.125486-3.17986-38.061279l3.495385-3.648984-14.61813-3.26946 4.085625 14.264796 3.150206-3.288635c8.87946 8.505693 9.986268 21.760188 2.473228 29.603374-7.51373 7.843907-20.802856 7.307057-29.682315-1.198636-8.87946-8.505693-9.98696-21.759466-2.473229-29.603373 3.75064-3.915455 8.966692-5.727873 14.3322-5.4903l-.501824-6.004544c-6.934914-.302143-13.565107 2.02233-18.423922 7.094655-9.660215 10.084715-8.236484 27.125486 3.179861 38.061279 11.416345 10.935792 28.50256 11.625821 38.162775 1.541107" fill="#000000"/></g><g><path d="M1506.04 19.105h.093V32.11h-.093z" fill="none" stroke="#81b6f4" stroke-opacity=".941176" stroke-width="3.995482"/><path d="M1505.807585 31.923938l.078246.050264-6.971917 10.980855-.078787-.049423z" fill="none" stroke="#81b6f4" stroke-opacity=".941176" stroke-width="3.992416" stroke-linejoin="round"/><path d="M1527.347349 48.723316c7.23632-11.943906 2.141388-28.267404-11.379644-36.45924l2.61834-4.3217-14.979284-.012742 7.089545 13.035148 2.359771-3.894919c10.516453 6.371485 14.478775 19.068204 8.850872 28.357339-5.628422 9.28999-18.716332 11.655507-29.232785 5.284022-10.516453-6.371485-14.479293-19.067349-8.850871-28.357339 2.809547-4.637297 7.50672-7.540506 12.795514-8.475267l-1.795417-5.75177c-6.834692 1.21298-12.800833 4.923476-16.440498 10.930923-7.23632 11.943907-2.141388 28.267404 11.379644 36.45924 13.521032 8.191835 30.348493 5.15021 37.584813-6.793695" fill="#000000"/></g><g><path d="M1570.04 19.105h.093V32.11h-.093z" fill="none" stroke="#81b6f4" stroke-opacity=".941176" stroke-width="3.995482"/><path d="M1569.83396 31.87655l.062497.06887-9.585887 8.791904-.063237-.068198z" fill="none" stroke="#81b6f4" stroke-opacity=".941176" stroke-width="3.992416" stroke-linejoin="round"/><path d="M1594.211607 43.7354c4.711083-13.146365-3.534507-28.127191-18.416777-33.460346l1.704626-4.75679-14.681397 2.97249 9.544917 11.360955 1.536289-4.287043c11.575203 4.148046 17.988177 15.800532 14.324227 26.024856-3.664287 10.225264-16.01832 15.151414-27.593522 11.003368-11.575203-4.148046-17.988515-15.79959-14.324227-26.024855 1.829107-5.10416 5.85354-8.885165 10.849989-10.855095l-2.905584-5.278633c-6.4559 2.550627-11.56298 7.375599-13.93252 13.987849-4.711083 13.146366 3.534507 28.127192 18.416776 33.460346 14.88227 5.333154 30.766121-1.000736 35.477203-14.147102" fill="#000000"/></g><g><path d="M1634.04 19.105h.093V32.11h-.093z" fill="none" stroke="#81b6f4" stroke-opacity=".941176" stroke-width="3.995482"/><path d="M1633.87035 31.838755l.043164.082376-11.489106 6.098135-.04405-.081912z" fill="none" stroke="#81b6f4" stroke-opacity=".941176" stroke-width="3.992416" stroke-linejoin="round"/><path d="M1659.9127 38.756414c2.2336-13.785219-8.606698-27.010302-24.212178-29.538837l.808191-4.987949-13.8927 5.60107 11.457412 9.428915.72838-4.495373c12.137704 1.966656 20.568923 12.2536 18.831785 22.974778-1.737298 10.722166-12.985268 17.819504-25.122973 15.852848-12.137705-1.966656-20.569084-12.252612-18.831786-22.974778.86721-5.352199 4.134296-9.803963 8.687496-12.652381l-3.81985-4.659948c-5.882216 3.68563-10.023319 9.361358-11.146757 16.294933-2.2336 13.785219 8.606699 27.010302 24.212178 29.538836 15.60548 2.528535 30.067202-6.596896 32.300803-20.382114" fill="#000000"/></g><g><path d="M1698.04 19.105h.093V32.11h-.093z" fill="none" stroke="#81b6f4" stroke-opacity=".941176" stroke-width="3.995482"/><path d="M1697.913452 31.812068l.021838.0904-12.62715 3.121205-.022808-.090165z" fill="none" stroke="#81b6f4" stroke-opacity=".941176" stroke-width="3.992416" stroke-linejoin="round"/><path d="M1724.64901 34.000542c-.099688-13.964644-12.996175-25.19387-28.804772-25.081018l-.03607-5.052871-12.762344 7.842303 12.871033 7.383309-.032509-4.553884c12.295687-.087775 22.326294 8.646845 22.403825 19.507569.077537 10.861723-9.827355 19.737654-22.123041 19.825428-12.295687.087775-22.326287-8.645845-22.403825-19.507568-.038704-5.421862 2.439132-10.356676 6.452759-13.925418l-4.54436-3.956661c-5.18418 4.616125-8.319377 10.903665-8.269237 17.927486.099689 13.964644 12.996176 25.19387 28.804773 25.081018 15.808598-.112851 28.543457-11.525049 28.443769-25.489693" fill="#000000"/></g><g><path d="M1762.04 19.105h.093V32.11h-.093z" fill="none" stroke="#81b6f4" stroke-opacity=".941176" stroke-width="3.995482"/><path d="M1761.96 31.797v.093l-13.007.069-.001-.093z" fill="none" stroke="#81b6f4" stroke-opacity=".941176" stroke-width="3.992416" stroke-linejoin="round"/><path d="M1788.618111 29.597563c-2.23324-13.785278-16.694723-22.911087-32.300268-20.38296l-.80806-4.987971-11.413523 9.701063 13.848417 5.328985-.728261-4.495392c12.137756-1.966338 23.3857 5.132282 25.122558 15.853506 1.737017 10.722211-6.694631 21.007947-18.832388 22.974285-12.137756 1.966338-23.38554-5.131295-25.122558-15.853506-.86707-5.352221.827278-10.607813 4.248192-14.74816l-5.09579-3.215478c-4.4176 5.354357-6.554795 12.047265-5.43154 18.98087 2.23324 13.785277 16.694723 22.911086 32.30027 20.38296 15.605545-2.528126 26.44619-15.752925 24.212951-29.538202" fill="#000000"/></g><g><path d="M1826.04 19.105h.093V32.11h-.093z" fill="none" stroke="#81b6f4" stroke-opacity=".941176" stroke-width="3.995482"/><path d="M1826.007002 31.793215l-.021057.090585-12.684827-2.877843.020083-.090811z" fill="none" stroke="#81b6f4" stroke-opacity=".941176" stroke-width="3.992416" stroke-linejoin="round"/><path d="M1851.999982 25.61494c-4.141064-13.336897-19.737673-20.348364-34.835633-15.660496l-1.498374-4.825731-9.943069 11.203326 14.45806 3.337855-1.350406-4.349175c11.742964-3.646153 23.87389 1.807953 27.09452 12.180459 3.220927 10.37346-3.687782 21.738265-15.430746 25.384417-11.742963 3.646153-23.873593-1.806998-27.09452-12.180458-1.607794-5.178135-.665867-10.619168 2.14175-15.19764l-5.49575-2.47045c-3.624536 5.920055-4.80374 12.846245-2.720901 19.554327 4.141064 13.336897 19.737673 20.348364 34.835632 15.660496 15.09796-4.687868 23.9805-19.300033 19.839437-32.63693" fill="#000000"/></g><g><path d="M1890.04 19.105h.093V32.11h-.093z" fill="none" stroke="#81b6f4" stroke-opacity=".941176" stroke-width="3.995482"/><path d="M1890.051916 31.799716l-.0403.083815-11.752273-5.574125.039398-.084248z" fill="none" stroke="#81b6f4" stroke-opacity=".941176" stroke-width="3.992416" stroke-linejoin="round"/><path d="M1914.949874 22.07668c-5.81732-12.69567-22.18435-17.648975-36.55641-11.063512l-2.1049-4.593714-8.424135 12.386003 14.766742 1.45605-1.897033-4.14007c11.17837-5.122074 23.908607-1.268796 28.43291 8.605008 4.524721 9.874712-.869403 22.031705-12.047774 27.153779-11.17837 5.122073-23.90819 1.269704-28.43291-8.605008-2.258612-4.929174-2.022274-10.446076.17497-15.346815l-5.7672-1.745221c-2.83536 6.336013-3.116543 13.356238-.190596 19.7418 5.81732 12.69567 22.18435 17.648976 36.55641 11.063512 14.372062-6.585463 21.307245-22.216143 15.489926-34.911812" fill="#000000"/></g><g><path d="M1954.04 19.105h.093V32.11h-.093z" fill="none" stroke="#81b6f4" stroke-opacity=".941176" stroke-width="3.995482"/><path d="M1954.092742 31.815046l-.056972.073507-10.322907-7.913558.056182-.07412z" fill="none" stroke="#81b6f4" stroke-opacity=".941176" stroke-width="3.992416" stroke-linejoin="round"/><path d="M1977.596815 18.978055c-7.269115-11.923976-24.10487-14.919347-37.60334-6.690386l-2.630207-4.31449-6.910033 13.290243 14.835529-.289566-2.370466-3.88842c10.498905-6.40036 23.593786-4.069963 29.247195 5.20367 5.65393 9.274489 1.725993 21.981194-8.772912 28.381555-10.498905 6.40036-23.593265 4.070817-29.247195-5.203671-2.82228-4.62956-3.235977-10.136002-1.629943-15.261017l-5.932343-1.05531c-2.071042 6.625338-1.525195 13.629956 2.130964 19.627379 7.269115 11.923975 24.10487 14.919346 37.60334 6.690386 13.49847-8.22896 18.548525-24.566397 11.27941-36.490373" fill="#000000"/></g><g><path d="M2018.04 19.105h.093V32.11h-.093z" fill="none" stroke="#81b6f4" stroke-opacity=".941176" stroke-width="3.995482"/><path d="M2018.128052 31.837483l-.070594.060544-8.519975-9.82837.069943-.061301z" fill="none" stroke="#81b6f4" stroke-opacity=".941176" stroke-width="3.992416" stroke-linejoin="round"/><path d="M2040.045114 16.296482c-8.511294-11.071545-25.57175-12.2359-38.10523-2.600737l-3.079669-4.006052-5.438168 13.957272 14.718008-1.885998-2.775541-3.610442c9.74835-7.494083 23.018068-6.587857 29.637557 2.022816 6.620098 8.611466 4.083813 21.667358-5.664537 29.16144-9.74835 7.494084-23.01746 6.58865-29.637557-2.022816-3.304564-4.298597-4.309021-9.728434-3.26441-14.996632l-6.011504-.410124c-1.345294 6.809883-.04807 13.714942 4.23287 19.283616 8.511294 11.071544 25.57175 12.2359 38.10523 2.600737 12.533481-9.635162 15.794245-26.421535 7.282951-37.49308" fill="#000000"/></g><g><path d="M2082.04 19.105h.093V32.11h-.093z" fill="none" stroke="#81b6f4" stroke-opacity=".941176" stroke-width="3.995482"/><path d="M2082.15697 31.865207l-.080937.045804-6.466224-11.286043.080445-.046674z" fill="none" stroke="#81b6f4" stroke-opacity=".941176" stroke-width="3.992416" stroke-linejoin="round"/><path d="M2102.377231 13.999236c-9.562801-10.177134-26.654862-9.651425-38.17583 1.17409l-3.460138-3.682424-4.0336 14.42599 14.459896-3.32989-3.11844-3.318773c8.960834-8.419921 22.255192-8.82824 29.69247-.913177 7.437962 7.915792 6.203074 21.158303-2.75776 29.578225-8.960833 8.419921-22.254505 8.828968-29.692468.913177-3.712818-3.951337-5.248454-9.255475-4.729075-14.601069l-6.022625.185394c-.666383 6.909433 1.306239 13.65268 6.116058 18.771491 9.5628 10.177134 26.654861 9.651425 38.175829-1.17409 11.520967-10.825516 13.108484-27.85181 3.545683-38.028944" fill="#000000"/></g><g><path d="M2146.04 19.105h.093V32.11h-.093z" fill="none" stroke="#81b6f4" stroke-opacity=".941176" stroke-width="3.995482"/><path d="M2146.179119 31.896436l-.087992.030107-4.276092-12.284211.087668-.031053z" fill="none" stroke="#81b6f4" stroke-opacity=".941176" stroke-width="3.992416" stroke-linejoin="round"/><path d="M2164.657076 12.04873c-10.444246-9.270326-27.418669-7.200572-37.91309 4.622778l-3.779074-3.35431-2.712043 14.731732 14.099376-4.624323-3.40588-3.023062c8.162401-9.196023 21.365312-10.805315 29.488116-3.595504 8.123552 7.210475 8.091686 20.5104-.070715 29.706423-8.1624 9.196023-21.364563 10.805979-29.488115 3.595504-4.055045-3.599263-6.064213-8.742734-6.030542-14.113394l-5.98116.729458c-.038602 6.941386 2.535946 13.478536 7.789107 18.141248 10.444246 9.270325 27.418669 7.200572 37.91309-4.62278 10.49442-11.82335 10.535177-28.923445.09093-38.19377" fill="#000000"/></g><g><path d="M2210.04 19.105h.093V32.11h-.093z" fill="none" stroke="#81b6f4" stroke-opacity=".941176" stroke-width="3.995482"/><path d="M2210.194533 31.929532l-.091913.014172-2.050326-12.84457.091762-.01516z" fill="none" stroke="#81b6f4" stroke-opacity=".941176" stroke-width="3.992416" stroke-linejoin="round"/><path d="M2226.933243 10.406012c-11.17633-8.373225-27.920939-4.90437-37.399801 7.74773l-4.043967-3.02971-1.482296 14.905767 13.667816-5.776464-3.644612-2.730517c7.372516-9.840611 20.396723-12.538143 29.08889-6.026034 8.692967 6.512708 9.763018 19.769557 2.390503 29.610169-7.372515 9.840611-20.395922 12.538742-29.08889 6.026034-4.33928-3.250958-6.767644-8.210304-7.179011-13.565292l-5.90017 1.22245c.536578 6.920723 3.643835 13.222118 9.265212 17.433614 11.176329 8.373225 27.920938 4.90437 37.3998-7.74773 9.478863-12.6521 8.102854-29.696792-3.073474-38.070017" fill="#000000"/></g><g><path d="M2274.04 19.105h.093V32.11h-.093z" fill="none" stroke="#81b6f4" stroke-opacity=".941176" stroke-width="3.995482"/><path d="M2274.20358 31.963066l-.09299-.001402.127187-13.006562.093004.000403z" fill="none" stroke="#81b6f4" stroke-opacity=".941176" stroke-width="3.992416" stroke-linejoin="round"/><path d="M2289.24193 9.032984c-11.77887-7.50196-28.212364-2.773832-36.704917 10.560373l-4.261986-2.714458-.348163 14.975243 13.190633-6.795876-3.841101-2.446397c6.605378-10.371142 19.38764-14.048158 28.548422-8.213657 9.161626 5.835037 11.233478 18.972635 4.6281 29.343777-6.60538 10.371142-19.386798 14.048695-28.548423 8.213657-4.573222-2.912684-7.37052-7.67369-8.186617-12.982089l-5.790532 1.66617c1.05963 6.86014 4.635597 12.907873 10.560037 16.681147 11.77887 7.50196 28.212364 2.773832 36.704917-10.560373 8.492553-13.334205 5.828502-30.225556-5.95037-37.727517" fill="#000000"/></g><g><path d="M2338.04 19.105h.093V32.11h-.093z" fill="none" stroke="#81b6f4" stroke-opacity=".941176" stroke-width="3.995482"/><path d="M2338.206862 31.995858l-.091587-.016149 2.19069-12.821376.09176.015164z" fill="none" stroke="#81b6f4" stroke-opacity=".941176" stroke-width="3.992416" stroke-linejoin="round"/><path d="M2351.609473 7.893729c-12.27027-6.66796-28.336744-.812763-35.88517 13.077728l-4.43979-2.412689.69008 14.963386 12.68816-7.693329-4.001346-2.174428c5.87105-10.803813 18.36788-15.357483 27.910838-10.17161 9.543837 5.18635 12.520816 18.148858 6.649765 28.952671-5.871051 10.803813-18.367002 15.357961-27.910838 10.171611-4.764011-2.588877-7.884408-7.144663-9.066282-12.383775l-5.661197 2.063305c1.532319 6.770253 5.518651 12.555733 11.69025 15.909528 12.270271 6.66796 28.336745.812763 35.88517-13.077728 7.548427-13.890491 3.720631-30.556711-8.54964-37.22467" fill="#000000"/></g><g><path d="M2402.04 19.105h.093V32.11h-.093z" fill="none" stroke="#81b6f4" stroke-opacity=".941176" stroke-width="3.995482"/><path d="M2402.205136 32.026988l-.088121-.029727 4.092354-12.346638.08844.02878z" fill="none" stroke="#81b6f4" stroke-opacity=".941176" stroke-width="3.992416" stroke-linejoin="round"/><path d="M2414.054455 6.955235c-12.667226-5.878999-28.33145.98008-34.986737 15.319942l-4.583423-2.127217 1.634563 14.88984 12.176478-8.479985-4.130795-1.917147c5.176381-11.153327 17.360373-16.487838 27.212055-11.915564 9.852589 4.572694 13.642998 17.3211 8.466617 28.474426-5.17638 11.153327-17.359465 16.48826-27.212054 11.915565-4.918131-2.282559-8.320267-6.631987-9.830951-11.785913l-5.51945 2.417033c1.957214 6.659853 6.301285 12.18178 12.672541 15.138749 12.667226 5.878998 28.33145-.98008 34.986738-15.319942 6.655287-14.339862 1.781644-30.73079-10.885582-36.609787" fill="#000000"/></g><g><path d="M2466.04 19.105h.093V32.11h-.093z" fill="none" stroke="#81b6f4" stroke-opacity=".941176" stroke-width="3.995482"/><path d="M2466.19924 32.05579l-.083018-.041917 5.800969-11.641974.083468.041024z" fill="none" stroke="#81b6f4" stroke-opacity=".941176" stroke-width="3.992416" stroke-linejoin="round"/><path d="M2476.589447 6.18772c-12.984645-5.14006-28.228052 2.609355-34.046828 17.30855l-4.698275-1.859845 2.488986 14.771056 11.668135-9.166862-4.234305-1.676179c4.525756-11.43281 16.382462-17.459847 26.48101-13.462268 10.099479 3.997948 14.617465 16.507018 10.09171 27.939829-4.525757 11.43281-16.381533 17.460215-26.481011 13.462267-5.041371-1.99566-8.68824-6.142033-10.493105-11.20045l-5.371161 2.730752c2.337343 6.536143 6.99208 11.798846 13.52299 14.38415 12.984644 5.14006 28.228051-2.609355 34.046828-17.30855 5.818776-14.699194.009671-30.78239-12.974974-35.92245" fill="#000000"/></g><g><path d="M2530.04 19.105h.093V32.11h-.093z" fill="none" stroke="#81b6f4" stroke-opacity=".941176" stroke-width="3.995482"/><path d="M2530.190033 32.081831l-.076694-.052601 7.299946-10.765575.07726.051777z" fill="none" stroke="#81b6f4" stroke-opacity=".941176" stroke-width="3.992416" stroke-linejoin="round"/><path d="M2539.222415 5.564694c-13.23567-4.454018-28.052978 4.08192-33.095125 19.065286l-4.789104-1.611611 3.258006 14.620688 11.172807-9.764484-4.316165-1.45246c3.921705-11.653834 15.447016-18.29265 25.740794-14.828626 10.294725 3.464343 15.46067 15.720039 11.538964 27.373873-3.921705 11.653833-15.446068 18.292968-25.740794 14.828625-5.138832-1.729301-8.997539-5.679294-11.064455-10.636407l-5.221012 3.00789c2.67594 6.404973 7.599513 11.417065 14.25668 13.65731 13.23567 4.454019 28.052978-4.08192 33.095125-19.065286 5.042147-14.983365-1.600052-30.740779-14.835721-35.194798" fill="#000000"/></g><g><path d="M2594.04 19.105h.093V32.11h-.093z" fill="none" stroke="#81b6f4" stroke-opacity=".941176" stroke-width="3.995482"/><path d="M2594.178351 32.10488l-.06954-.06175 8.584933-9.771681.070203.061003z" fill="none" stroke="#81b6f4" stroke-opacity=".941176" stroke-width="3.992416" stroke-linejoin="round"/><path d="M2601.957838 5.062861c-13.431761-3.822175-27.828178 5.405938-32.15505 20.611288l-4.860057-1.38299 3.94679 14.449981 10.69782-10.282674-4.38011-1.246415c3.365376-11.82649 14.563337-19.003699 25.009621-16.031078 10.447246 2.972894 16.187827 14.970176 12.822452 26.796666-3.365376 11.82649-14.562375 19.003972-25.009621 16.031078-5.214967-1.483984-9.256416-5.246794-11.555784-10.100456l-5.072698 3.251785c2.97628 6.271052 8.1317 11.044337 14.887497 12.966783 13.43176 3.822175 27.828178-5.405938 32.15505-20.611288 4.326872-15.20535-3.05415-30.630505-16.48591-34.45268" fill="#000000"/></g><g><path d="M2658.04 19.105h.093V32.11h-.093z" fill="none" stroke="#81b6f4" stroke-opacity=".941176" stroke-width="3.995482"/><path d="M2658.16497 32.124877l-.061902-.069407 9.661307-8.708958.062648.06874z" fill="none" stroke="#81b6f4" stroke-opacity=".941176" stroke-width="3.992416" stroke-linejoin="round"/><path d="M2664.797597 4.661926c-13.58283-3.244684-27.571737 6.590222-31.244864 21.966587l-4.914717-1.174034 4.560697 14.268117 10.248623-10.730447-4.429374-1.058094c2.856902-11.959504 13.73792-19.608695 24.301694-17.085206 10.564747 2.523721 16.812781 14.264723 13.955879 26.224226-2.856903 11.959504-13.736948 19.608927-24.301694 17.085206-5.27362-1.25977-9.47218-4.846434-11.976865-9.597399l-4.929101 3.465593c3.24155 6.138133 8.596246 10.686744 15.428025 12.318729 13.58283 3.244684 27.571736-6.590222 31.244863-21.966588 3.673127-15.376365-4.360337-30.472005-17.943166-33.71669" fill="#000000"/></g><g><path d="M2722.04 19.105h.093V32.11h-.093z" fill="none" stroke="#81b6f4" stroke-opacity=".941176" stroke-width="3.995482"/><path d="M2722.150585 32.141891l-.054079-.07566 10.541749-7.619602.054892.075078z" fill="none" stroke="#81b6f4" stroke-opacity=".941176" stroke-width="3.992416" stroke-linejoin="round"/><path d="M2727.74167 4.344358c-13.697373-2.720881-27.298431 7.643776-30.37859 23.14981l-4.956163-.984504 5.105054 14.082526 9.829153-11.115957-4.466727-.887282c2.3957-12.060358 12.975064-20.121607 23.627923-18.005496 10.653839 2.116306 17.347976 13.608807 14.952276 25.669165-2.3957 12.060358-12.974083 20.121801-23.627922 18.005495-5.318092-1.056399-9.65124-4.479247-12.336458-9.130562l-4.792432 3.652256c3.47479 6.009173 9.000148 10.348877 15.88954 11.717404 13.697373 2.72088 27.29843-7.643777 30.378589-23.149811 3.080158-15.506035-5.52687-30.282163-19.224243-33.003044" fill="#000000"/></g><g><path d="M2786.04 19.105h.093V32.11h-.093z" fill="none" stroke="#81b6f4" stroke-opacity=".941176" stroke-width="3.995482"/><path d="M2786.135805 32.156096l-.046326-.08064 11.244008-6.539043.047193.080142z" fill="none" stroke="#81b6f4" stroke-opacity=".941176" stroke-width="3.992416" stroke-linejoin="round"/><path d="M2790.788671 4.095127c-13.782628-2.249532-27.020231 8.575474-29.566801 24.17802l-4.987012-.813954 5.585009 13.899165 9.442151-11.446507-4.494528-.733575c1.980684-12.135423 12.277365-20.554747 22.996529-18.805219 10.72015 1.74969 17.804483 13.005857 15.8238 25.14128-1.980684 12.135424-12.276379 20.554909-22.99653 18.80522-5.351192-.873396-9.799177-4.145626-12.64233-8.702116l-4.66436 3.814463c3.678828 5.886471 9.349766 10.034131 16.282038 11.165582 13.782628 2.249532 27.020231-8.575474 29.566801-24.17802 2.54657-15.602547-6.562139-30.074807-20.344767-32.324339" fill="#000000"/></g><g><path d="M2850.04 19.105h.093V32.11h-.093z" fill="none" stroke="#81b6f4" stroke-opacity=".941176" stroke-width="3.995482"/><path d="M2850.121142 32.16773l-.038849-.084496 11.788962-5.496106.039758.084079z" fill="none" stroke="#81b6f4" stroke-opacity=".941176" stroke-width="3.992416" stroke-linejoin="round"/><path d="M2853.936268 3.901447c-13.844706-1.82903-26.746728 9.393836-28.81727 25.066658l-5.009474-.661803 6.00543 13.722752 9.089414-11.728567-4.514772-.596448c1.610436-12.190083 11.646114-20.918876 22.413557-19.496386 10.768435 1.422622 18.192057 12.457969 16.58162 24.648052-1.610435 12.190082-11.645121 20.919007-22.413556 19.496385-5.375295-.710132-9.920807-3.845476-12.901316-8.313326l-4.54611 3.95465c3.856274 5.771783 9.650815 9.744933 16.61431 10.664882 13.844706 1.82903 26.74673-9.393836 28.81727-25.066658 2.070543-15.672821-7.474397-29.861163-21.319103-31.690191" fill="#000000"/></g><g><path d="M2914.04 19.105h.093V32.11h-.093z" fill="none" stroke="#81b6f4" stroke-opacity=".941176" stroke-width="3.995482"/><path d="M2914.107018 32.177077l-.031808-.087392 12.198982-4.513494.032748.087049z" fill="none" stroke="#81b6f4" stroke-opacity=".941176" stroke-width="3.992416" stroke-linejoin="round"/><path d="M2917.181498 3.752521c-13.88873-1.457532-26.48551 10.106897-28.135502 25.829556l-5.025403-.527383 6.370849 13.556969 8.771994-11.967826-4.529128-.475303c1.283338-12.228845 11.081608-21.22332 21.88329-20.089753 10.802677 1.13367 18.519225 11.966211 17.235887 24.195057-1.283337 12.228845-11.080613 21.223424-21.88329 20.089753-5.392388-.565896-10.02025-3.57836-13.119365-7.964772l-4.43855 4.075002c4.00949 5.66642 9.908377 9.482932 16.894015 10.21603 13.88873 1.457531 26.485511-10.106897 28.135502-25.829556 1.649991-15.72266-8.271569-29.650242-22.160299-31.107774" fill="#000000"/></g><g><path d="M2978.04 19.105h.093V32.11h-.093z" fill="none" stroke="#81b6f4" stroke-opacity=".941176" stroke-width="3.995482"/><path d="M2978.09377 32.184435l-.025326-.089485 12.496626-3.60848.026288.089212z" fill="none" stroke="#81b6f4" stroke-opacity=".941176" stroke-width="3.992416" stroke-linejoin="round"/><path d="M2980.521009 3.639315c-13.918957-1.13308-26.242484 10.722113-27.52518 26.47899l-5.03634-.409985 6.68543 13.404631 8.49037-12.169238-4.538986-.369499c.997662-12.25546 10.583402-21.476101 21.408593-20.594872 10.826187.881311 18.793383 11.530858 17.795721 23.786317-.997661 12.25546-10.582405 21.476183-21.408592 20.594872-5.404124-.439925-10.101015-3.34359-13.30163-7.656499l-4.342264 4.177455c4.140611 5.571326 10.12694 9.249165 17.12778 9.819072 13.918958 1.133079 26.242484-10.722113 27.52518-26.47899 1.282696-15.756877-8.961126-29.449175-22.880082-30.582254" fill="#000000"/></g><g><path d="M3042.04 19.105h.093V32.11h-.093z" fill="none" stroke="#81b6f4" stroke-opacity=".941176" stroke-width="3.995482"/><path d="M3042.08166 32.190107l-.019493-.090934 12.703623-2.793702.02047.090724z" fill="none" stroke="#81b6f4" stroke-opacity=".941176" stroke-width="3.992416" stroke-linejoin="round"/><path d="M3043.951236 3.554338c-13.938884-.853663-26.022138 11.246331-26.988522 27.025767l-5.04355-.308884 6.952957 13.267838 8.244569-12.337092-4.545484-.27838c.751639-12.273005 10.150502-21.684064 20.99119-21.020145 10.841687.66398 19.02089 11.151577 18.269251 23.424582-.751639 12.273005-10.149503 21.684126-20.99119 21.020146-5.41186-.33144-10.166049-3.14031-13.45253-7.388153l-4.257597 4.263712c4.251528 5.487152 10.310423 9.044177 17.321287 9.473545 13.938884.853662 26.022138-11.246332 26.988522-27.025768.966384-15.779435-9.550019-29.263506-23.488903-30.117168" fill="#000000"/></g><g><path d="M3106.04 19.105h.093V32.11h-.093z" fill="none" stroke="#81b6f4" stroke-opacity=".941176" stroke-width="3.995482"/><path d="M3106.070887 32.194381l-.01437-.091883 12.840122-2.077997.015358.091728z" fill="none" stroke="#81b6f4" stroke-opacity=".941176" stroke-width="3.992416" stroke-linejoin="round"/><path d="M3107.468537 3.491453c-13.95135-.617286-25.827784 11.685772-26.52658 27.47932l-5.04806-.223355 7.176837 13.148084 8.03428-12.475058-4.549549-.201298c.543513-12.283982 9.781516-21.852992 20.6319-21.37291 10.851384.480127 19.207168 10.827586 18.663655 23.111568-.543513 12.283982-9.780517 21.853037-20.6319 21.37291-5.4167-.239665-10.217814-2.967552-13.57582-7.159081l-4.18472 4.335262c4.34392 5.414304 10.462234 8.868124 17.479368 9.178602 13.95135.617287 25.827784-11.685771 26.52658-27.47932.698796-15.793548-10.04464-29.097437-23.995991-29.714724" fill="#000000"/></g><g><path d="M3170.04 19.105h.093V32.11h-.093z" fill="none" stroke="#81b6f4" stroke-opacity=".941176" stroke-width="3.995482"/><path d="M3170.061596 32.197522l-.01-.09246 12.924167-1.467219.010994.092354z" fill="none" stroke="#81b6f4" stroke-opacity=".941176" stroke-width="3.992416" stroke-linejoin="round"/><path d="M3171.06928 3.44571c-13.958622-.422007-25.661737 12.046032-26.139467 27.847812l-5.050692-.152696 7.360114 13.046373 7.858932-12.58626-4.55192-.137617c.371571-12.290385 9.474771-21.987725 20.330811-21.659517 10.85704.328237 19.356797 10.557762 18.985225 22.848147-.371571 12.290384-9.473772 21.987754-20.330811 21.659517-5.419524-.163847-10.258339-2.824286-13.674668-6.968416l-4.123646 4.393395c4.419256 5.35299 10.5853 8.720858 17.606091 8.933116 13.958623.422007 25.661738-12.046032 26.139468-27.847812.47773-15.80178-10.450814-28.954036-24.409436-29.376042" fill="#000000"/></g><g><path d="M3234.04 19.105h.093V32.11h-.093z" fill="none" stroke="#81b6f4" stroke-opacity=".941176" stroke-width="3.995482"/><path d="M3234.053891 32.199762l-.006407-.09278 12.971339-.964974.007405.09271z" fill="none" stroke="#81b6f4" stroke-opacity=".941176" stroke-width="3.992416" stroke-linejoin="round"/><path d="M3234.749915 3.413186c-13.962467-.265954-25.525486 12.33212-25.826558 28.138254l-5.052083-.096231 7.505484 12.963288 7.717754-12.67332-4.553174-.086727c.23417-12.29377 9.228406-22.092258 20.087436-21.885418 10.86003.20686 19.4736 10.340737 19.23943 22.634507-.234168 12.29377-9.227405 22.092277-20.087435 21.885418-5.421017-.103259-10.289267-2.709444-13.751705-6.815128l-4.07428 4.439213c4.478815 5.303258 10.682118 8.601994 17.704844 8.73576 13.962467.265955 25.525486-12.33212 25.826558-28.138253.301071-15.806133-10.773804-28.83541-24.736271-29.101363" fill="#000000"/></g><g><path d="M3298.04 19.105h.093V32.11h-.093z" fill="none" stroke="#81b6f4" stroke-opacity=".941176" stroke-width="3.995482"/><path d="M3298.047841 32.201296l-.003606-.09293 12.994543-.5733.004605.092892z" fill="none" stroke="#81b6f4" stroke-opacity=".941176" stroke-width="3.992416" stroke-linejoin="round"/><path d="M3298.507009 3.39086c-13.964223-.147352-25.41982 12.548481-25.58663 28.356601l-5.052718-.053316 7.61532 12.89907 7.609833-12.738413-4.553747-.048052c.129741-12.295315 9.040428-22.169844 19.900824-22.055244 10.861395.11461 19.560728 10.174961 19.430986 22.470277-.12974 12.295315-9.039428 22.169855-19.900823 22.055244-5.421699-.05721-10.311909-2.621952-13.809094-6.69808l-4.036429 4.47366c4.523698 5.265024 10.754796 8.510952 17.778405 8.585066 13.964222.147352 25.41982-12.548481 25.586629-28.356601.166808-15.80812-11.018334-28.74286-24.982556-28.890212" fill="#000000"/></g><g><path d="M3362.04 19.105h.093V32.11h-.093z" fill="none" stroke="#81b6f4" stroke-opacity=".941176" stroke-width="3.995482"/><path d="M3362.043493 32.20228l-.001603-.092986 13.003878-.29319.002603.092968z" fill="none" stroke="#81b6f4" stroke-opacity=".941176" stroke-width="3.992416" stroke-linejoin="round"/><path d="M3362.337277 3.376494c-13.96485-.064524-25.344945 12.699031-25.417989 28.507862l-5.052946-.023347 7.691693 12.853676 7.534144-12.783325-4.553951-.021042c.056813-12.295868 8.908775-22.223075 19.769659-22.172892 10.861884.050187 19.620734 10.058763 19.563921 22.354632-.056813 12.295869-8.907775 22.22308-19.769659 22.172892-5.421942-.025051-10.327278-2.560743-13.848579-6.616056l-4.009823 4.49752c4.554846 5.238102 10.805087 8.447015 17.829012 8.479469 13.96485.064524 25.344945-12.699032 25.41799-28.507863.073043-15.808831-11.18862-28.677002-25.153472-28.741526" fill="#000000"/></g><g><path d="M3426.04 19.105h.093V32.11h-.093z" fill="none" stroke="#81b6f4" stroke-opacity=".941176" stroke-width="3.995482"/><path d="M3426.040874 32.202826l-.0004-.093 13.006582-.125052.0014.092995z" fill="none" stroke="#81b6f4" stroke-opacity=".941176" stroke-width="3.992416" stroke-linejoin="round"/><path d="M3426.237596 3.368529c-13.964991-.015898-25.300574 12.787206-25.31857 28.596196l-5.052998-.005753 7.736403 12.826816 7.489588-12.809482-4.553997-.005185c.013997-12.295992 8.83134-22.25396 19.692332-22.241596 10.861993.012365 19.65564 9.990382 19.641642 22.286374-.013998 12.295992-8.83034 22.253962-19.692333 22.241597-5.421996-.006173-10.336132-2.524769-13.871532-6.567796l-3.994138 4.511456c4.573058 5.22221 10.834434 8.40934 17.85843 8.417336 13.96499.015897 25.300572-12.787206 25.31857-28.596196.017996-15.80899-11.288407-28.63787-25.253397-28.653767" fill="#000000"/></g><g><path d="M3490.04 19.105h.093V32.11h-.093z" fill="none" stroke="#81b6f4" stroke-opacity=".941176" stroke-width="3.995482"/><path d="M3490.04 32.203v-.093l13.007-.069.001.093z" fill="none" stroke="#81b6f4" stroke-opacity=".941176" stroke-width="3.992416" stroke-linejoin="round"/><path d="M3490.205 3.366c-13.965 0-25.286 12.816-25.286 28.625h-5.053l7.751 12.818 7.475-12.818h-4.554c0-12.296 8.806-22.264 19.667-22.264 10.862 0 19.667 9.968 19.667 22.264s-8.805 22.264-19.667 22.264c-5.422 0-10.339-2.513-13.879-6.552l-3.989 4.516c4.579 5.217 10.844 8.397 17.868 8.397 13.965 0 25.286-12.816 25.286-28.625s-11.321-28.625-25.286-28.625" fill="#000000"/></g></svg>