<svg xmlns="http://www.w3.org/2000/svg" viewBox="0 0 3520 64" width="3520" height="64"><path d="M41.277 16.368L22.502 10.57v32.669l3.129.961v.715c0 1.758.281 3.461.813 5.055l-3.942-1.209-16.71 5.688-.501.082c-.864 0-1.564-.615-1.564-1.374V11.614c0-.632.469-1.126 1.126-1.318l17.649-5.221 18.775 5.77 16.71-5.77h.5c.864 0 1.565.615 1.565 1.374v25.58c-3.661-3.078-8.605-4.973-14.082-4.973-1.564 0-3.129.164-4.693.467z" fill="#000000"/><path d="M40.5 29.75c-2.486-.008-4.912.741-6.926 2.136-2.014 1.395-3.514 3.367-4.284 5.631-.77 2.263-.77 4.703 0 6.966.77 2.264 2.27 4.236 4.284 5.631 2.014 1.395 4.44 2.144 6.926 2.136 2.486.008 4.912-.741 6.926-2.136 2.014-1.395 3.514-3.367 4.284-5.631.77-2.263.77-4.703 0-6.966-.77-2.264-2.27-4.236-4.284-5.631-2.014-1.395-4.44-2.144-6.926-2.136zm16.5 29L47.75 49" fill="none" stroke="#81b6f4" stroke-width="4"/><path d="M105.277 16.368L86.502 10.57v32.669l3.129.961v.715c0 1.758.281 3.461.813 5.055l-3.942-1.209-16.71 5.688-.501.082c-.864 0-1.564-.615-1.564-1.374V11.614c0-.632.469-1.126 1.126-1.318l17.649-5.221 18.775 5.77 16.71-5.77h.5c.864 0 1.565.615 1.565 1.374v25.58c-3.661-3.078-8.605-4.973-14.082-4.973-1.564 0-3.129.164-4.693.467z" fill="#000000"/><path d="M104.5 25.578643c-2.486-.008-4.912.741-6.926 2.136-2.014 1.395-3.514 3.367-4.284 5.631-.77 2.263-.77 4.703 0 6.966.77 2.264 2.27 4.236 4.284 5.631 2.014 1.395 4.44 2.144 6.926 2.136 2.486.008 4.912-.741 6.926-2.136 2.014-1.395 3.514-3.367 4.284-5.631.77-2.263.77-4.703 0-6.966-.77-2.264-2.27-4.236-4.284-5.631-2.014-1.395-4.44-2.144-6.926-2.136zm16.5 29l-9.25-9.75" fill="none" stroke="#81b6f4" stroke-width="4"/><path d="M169.277 16.368l-18.775-5.798v32.669l3.129.961v.715c0 1.758.281 3.461.813 5.055l-3.942-1.209-16.71 5.688-.501.082c-.864 0-1.564-.615-1.564-1.374V11.614c0-.632.469-1.126 1.126-1.318l17.649-5.221 18.775 5.77 16.71-5.77h.5c.864 0 1.565.615 1.565 1.374v25.58c-3.661-3.078-8.605-4.973-14.082-4.973-1.564 0-3.129.164-4.693.467z" fill="#000000"/><path d="M168.5 21.894594c-2.486-.008-4.912.741-6.926 2.136-2.014 1.395-3.514 3.367-4.284 5.631-.77 2.263-.77 4.703 0 6.966.77 2.264 2.27 4.236 4.284 5.631 2.014 1.395 4.44 2.144 6.926 2.136 2.486.008 4.912-.741 6.926-2.136 2.014-1.395 3.514-3.367 4.284-5.631.77-2.263.77-4.703 0-6.966-.77-2.264-2.27-4.236-4.284-5.631-2.014-1.395-4.44-2.144-6.926-2.136zm16.5 29l-9.25-9.75" fill="none" stroke="#81b6f4" stroke-width="4"/><path d="M233.277 16.368l-18.775-5.798v32.669l3.129.961v.715c0 1.758.281 3.461.813 5.055l-3.942-1.209-16.71 5.688-.501.082c-.864 0-1.564-.615-1.564-1.374V11.614c0-.632.469-1.126 1.126-1.318l17.649-5.221 18.775 5.77 16.71-5.77h.5c.864 0 1.565.615 1.565 1.374v25.58c-3.661-3.078-8.605-4.973-14.082-4.973-1.564 0-3.129.164-4.693.467z" fill="#000000"/><path d="M232.5 18.697853c-2.486-.008-4.912.741-6.926 2.136-2.014 1.395-3.514 3.367-4.284 5.631-.77 2.263-.77 4.703 0 6.966.77 2.264 2.27 4.236 4.284 5.631 2.014 1.395 4.44 2.144 6.926 2.136 2.486.008 4.912-.741 6.926-2.136 2.014-1.395 3.514-3.367 4.284-5.631.77-2.263.77-4.703 0-6.966-.77-2.264-2.27-4.236-4.284-5.631-2.014-1.395-4.44-2.144-6.926-2.136zm16.5 29l-9.25-9.75" fill="none" stroke="#81b6f4" stroke-width="4"/><path d="M297.277 16.368l-18.775-5.798v32.669l3.129.961v.715c0 1.758.281 3.461.813 5.055l-3.942-1.209-16.71 5.688-.501.082c-.864 0-1.564-.615-1.564-1.374V11.614c0-.632.469-1.126 1.126-1.318l17.649-5.221 18.775 5.77 16.71-5.77h.5c.864 0 1.565.615 1.565 1.374v25.58c-3.661-3.078-8.605-4.973-14.082-4.973-1.564 0-3.129.164-4.693.467z" fill="#000000"/><path d="M296.5 15.98842c-2.486-.008-4.912.741-6.926 2.136-2.014 1.395-3.514 3.367-4.284 5.631-.77 2.263-.77 4.703 0 6.966.77 2.264 2.27 4.236 4.284 5.631 2.014 1.395 4.44 2.144 6.926 2.136 2.486.008 4.912-.741 6.926-2.136 2.014-1.395 3.514-3.367 4.284-5.631.77-2.263.77-4.703 0-6.966-.77-2.264-2.27-4.236-4.284-5.631-2.014-1.395-4.44-2.144-6.926-2.136zm16.5 29l-9.25-9.75" fill="none" stroke="#81b6f4" stroke-width="4"/><path d="M361.277 16.368l-18.775-5.798v32.669l3.129.961v.715c0 1.758.281 3.461.813 5.055l-3.942-1.209-16.71 5.688-.501.082c-.864 0-1.564-.615-1.564-1.374V11.614c0-.632.469-1.126 1.126-1.318l17.649-5.221 18.775 5.77 16.71-5.77h.5c.864 0 1.565.615 1.565 1.374v25.58c-3.661-3.078-8.605-4.973-14.082-4.973-1.564 0-3.129.164-4.693.467z" fill="#000000"/><path d="M360.5 13.766296c-2.486-.008-4.912.741-6.926 2.136-2.014 1.395-3.514 3.367-4.284 5.631-.77 2.263-.77 4.703 0 6.966.77 2.264 2.27 4.236 4.284 5.631 2.014 1.395 4.44 2.144 6.926 2.136 2.486.008 4.912-.741 6.926-2.136 2.014-1.395 3.514-3.367 4.284-5.631.77-2.263.77-4.703 0-6.966-.77-2.264-2.27-4.236-4.284-5.631-2.014-1.395-4.44-2.144-6.926-2.136zm16.5 29l-9.25-9.75" fill="none" stroke="#81b6f4" stroke-width="4"/><path d="M425.277 16.368l-18.775-5.798v32.669l3.129.961v.715c0 1.758.281 3.461.813 5.055l-3.942-1.209-16.71 5.688-.501.082c-.864 0-1.564-.615-1.564-1.374V11.614c0-.632.469-1.126 1.126-1.318l17.649-5.221 18.775 5.77 16.71-5.77h.5c.864 0 1.565.615 1.565 1.374v25.58c-3.661-3.078-8.605-4.973-14.082-4.973-1.564 0-3.129.164-4.693.467z" fill="#000000"/><path d="M424.5 12.031479c-2.486-.008-4.912.741-6.926 2.136-2.014 1.395-3.514 3.367-4.284 5.631-.77 2.263-.77 4.703 0 6.966.77 2.264 2.27 4.236 4.284 5.631 2.014 1.395 4.44 2.144 6.926 2.136 2.486.008 4.912-.741 6.926-2.136 2.014-1.395 3.514-3.367 4.284-5.631.77-2.263.77-4.703 0-6.966-.77-2.264-2.27-4.236-4.284-5.631-2.014-1.395-4.44-2.144-6.926-2.136zm16.5 29l-9.25-9.75" fill="none" stroke="#81b6f4" stroke-width="4"/><path d="M489.277 16.368l-18.775-5.798v32.669l3.129.961v.715c0 1.758.281 3.461.813 5.055l-3.942-1.209-16.71 5.688-.501.082c-.864 0-1.564-.615-1.564-1.374V11.614c0-.632.469-1.126 1.126-1.318l17.649-5.221 18.775 5.77 16.71-5.77h.5c.864 0 1.565.615 1.565 1.374v25.58c-3.661-3.078-8.605-4.973-14.082-4.973-1.564 0-3.129.164-4.693.467z" fill="#000000"/><path d="M488.5 10.78397c-2.486-.008-4.912.741-6.926 2.136-2.014 1.395-3.514 3.367-4.284 5.631-.77 2.263-.77 4.703 0 6.966.77 2.264 2.27 4.236 4.284 5.631 2.014 1.395 4.44 2.144 6.926 2.136 2.486.008 4.912-.741 6.926-2.136 2.014-1.395 3.514-3.367 4.284-5.631.77-2.263.77-4.703 0-6.966-.77-2.264-2.27-4.236-4.284-5.631-2.014-1.395-4.44-2.144-6.926-2.136zm16.5 29l-9.25-9.75" fill="none" stroke="#81b6f4" stroke-width="4"/><path d="M553.277 16.368l-18.775-5.798v32.669l3.129.961v.715c0 1.758.281 3.461.813 5.055l-3.942-1.209-16.71 5.688-.501.082c-.864 0-1.564-.615-1.564-1.374V11.614c0-.632.469-1.126 1.126-1.318l17.649-5.221 18.775 5.77 16.71-5.77h.5c.864 0 1.565.615 1.565 1.374v25.58c-3.661-3.078-8.605-4.973-14.082-4.973-1.564 0-3.129.164-4.693.467z" fill="#000000"/><path d="M552.5 10.02377c-2.486-.008-4.912.741-6.926 2.136-2.014 1.395-3.514 3.367-4.284 5.631-.77 2.263-.77 4.703 0 6.966.77 2.264 2.27 4.236 4.284 5.631 2.014 1.395 4.44 2.144 6.926 2.136 2.486.008 4.912-.741 6.926-2.136 2.014-1.395 3.514-3.367 4.284-5.631.77-2.263.77-4.703 0-6.966-.77-2.264-2.27-4.236-4.284-5.631-2.014-1.395-4.44-2.144-6.926-2.136zm16.5 29l-9.25-9.75" fill="none" stroke="#81b6f4" stroke-width="4"/><path d="M617.277 16.368l-18.775-5.798v32.669l3.129.961v.715c0 1.758.281 3.461.813 5.055l-3.942-1.209-16.71 5.688-.501.082c-.864 0-1.564-.615-1.564-1.374V11.614c0-.632.469-1.126 1.126-1.318l17.649-5.221 18.775 5.77 16.71-5.77h.5c.864 0 1.565.615 1.565 1.374v25.58c-3.661-3.078-8.605-4.973-14.082-4.973-1.564 0-3.129.164-4.693.467z" fill="#000000"/><path d="M616.5 9.750877c-2.486-.008-4.912.741-6.926 2.136-2.014 1.395-3.514 3.367-4.284 5.631-.77 2.263-.77 4.703 0 6.966.77 2.264 2.27 4.236 4.284 5.631 2.014 1.395 4.44 2.144 6.926 2.136 2.486.008 4.912-.741 6.926-2.136 2.014-1.395 3.514-3.367 4.284-5.631.77-2.263.77-4.703 0-6.966-.77-2.264-2.27-4.236-4.284-5.631-2.014-1.395-4.44-2.144-6.926-2.136zm16.5 29l-9.25-9.75" fill="none" stroke="#81b6f4" stroke-width="4"/><path d="M681.277 16.368l-18.775-5.798v32.669l3.129.961v.715c0 1.758.281 3.461.813 5.055l-3.942-1.209-16.71 5.688-.501.082c-.864 0-1.564-.615-1.564-1.374V11.614c0-.632.469-1.126 1.126-1.318l17.649-5.221 18.775 5.77 16.71-5.77h.5c.864 0 1.565.615 1.565 1.374v25.58c-3.661-3.078-8.605-4.973-14.082-4.973-1.564 0-3.129.164-4.693.467z" fill="#000000"/><path d="M675.618673 9.75c-2.486-.008-4.912.741-6.926 2.136-2.014 1.395-3.514 3.367-4.284 5.631-.77 2.263-.77 4.703 0 6.966.77 2.264 2.27 4.236 4.284 5.631 2.014 1.395 4.44 2.144 6.926 2.136 2.486.008 4.912-.741 6.926-2.136 2.014-1.395 3.514-3.367 4.284-5.631.77-2.263.77-4.703 0-6.966-.77-2.264-2.27-4.236-4.284-5.631-2.014-1.395-4.44-2.144-6.926-2.136zm16.5 29l-9.25-9.75" fill="none" stroke="#81b6f4" stroke-width="4"/><path d="M745.277 16.368l-18.775-5.798v32.669l3.129.961v.715c0 1.758.281 3.461.813 5.055l-3.942-1.209-16.71 5.688-.501.082c-.864 0-1.564-.615-1.564-1.374V11.614c0-.632.469-1.126 1.126-1.318l17.649-5.221 18.775 5.77 16.71-5.77h.5c.864 0 1.565.615 1.565 1.374v25.58c-3.661-3.078-8.605-4.973-14.082-4.973-1.564 0-3.129.164-4.693.467z" fill="#000000"/><path d="M735.174228 9.75c-2.486-.008-4.912.741-6.926 2.136-2.014 1.395-3.514 3.367-4.284 5.631-.77 2.263-.77 4.703 0 6.966.77 2.264 2.27 4.236 4.284 5.631 2.014 1.395 4.44 2.144 6.926 2.136 2.486.008 4.912-.741 6.926-2.136 2.014-1.395 3.514-3.367 4.284-5.631.77-2.263.77-4.703 0-6.966-.77-2.264-2.27-4.236-4.284-5.631-2.014-1.395-4.44-2.144-6.926-2.136zm16.5 29l-9.25-9.75" fill="none" stroke="#81b6f4" stroke-width="4"/><path d="M809.277 16.368l-18.775-5.798v32.669l3.129.961v.715c0 1.758.281 3.461.813 5.055l-3.942-1.209-16.71 5.688-.501.082c-.864 0-1.564-.615-1.564-1.374V11.614c0-.632.469-1.126 1.126-1.318l17.649-5.221 18.775 5.77 16.71-5.77h.5c.864 0 1.565.615 1.565 1.374v25.58c-3.661-3.078-8.605-4.973-14.082-4.973-1.564 0-3.129.164-4.693.467z" fill="#000000"/><path d="M795.501389 9.75c-2.486-.008-4.912.741-6.926 2.136-2.014 1.395-3.514 3.367-4.284 5.631-.77 2.263-.77 4.703 0 6.966.77 2.264 2.27 4.236 4.284 5.631 2.014 1.395 4.44 2.144 6.926 2.136 2.486.008 4.912-.741 6.926-2.136 2.014-1.395 3.514-3.367 4.284-5.631.77-2.263.77-4.703 0-6.966-.77-2.264-2.27-4.236-4.284-5.631-2.014-1.395-4.44-2.144-6.926-2.136zm16.5 29l-9.25-9.75" fill="none" stroke="#81b6f4" stroke-width="4"/><path d="M873.277 16.368l-18.775-5.798v32.669l3.129.961v.715c0 1.758.281 3.461.813 5.055l-3.942-1.209-16.71 5.688-.501.082c-.864 0-1.564-.615-1.564-1.374V11.614c0-.632.469-1.126 1.126-1.318l17.649-5.221 18.775 5.77 16.71-5.77h.5c.864 0 1.565.615 1.565 1.374v25.58c-3.661-3.078-8.605-4.973-14.082-4.973-1.564 0-3.129.164-4.693.467z" fill="#000000"/><path d="M856.600154 9.75c-2.486-.008-4.912.741-6.926 2.136-2.014 1.395-3.514 3.367-4.284 5.631-.77 2.263-.77 4.703 0 6.966.77 2.264 2.27 4.236 4.284 5.631 2.014 1.395 4.44 2.144 6.926 2.136 2.486.008 4.912-.741 6.926-2.136 2.014-1.395 3.514-3.367 4.284-5.631.77-2.263.77-4.703 0-6.966-.77-2.264-2.27-4.236-4.284-5.631-2.014-1.395-4.44-2.144-6.926-2.136zm16.5 29l-9.25-9.75" fill="none" stroke="#81b6f4" stroke-width="4"/><path d="M937.277 16.368l-18.775-5.798v32.669l3.129.961v.715c0 1.758.281 3.461.813 5.055l-3.942-1.209-16.71 5.688-.501.082c-.864 0-1.564-.615-1.564-1.374V11.614c0-.632.469-1.126 1.126-1.318l17.649-5.221 18.775 5.77 16.71-5.77h.5c.864 0 1.565.615 1.565 1.374v25.58c-3.661-3.078-8.605-4.973-14.082-4.973-1.564 0-3.129.164-4.693.467z" fill="#000000"/><path d="M918.470525 9.75c-2.486-.008-4.912.741-6.926 2.136-2.014 1.395-3.514 3.367-4.284 5.631-.77 2.263-.77 4.703 0 6.966.77 2.264 2.27 4.236 4.284 5.631 2.014 1.395 4.44 2.144 6.926 2.136 2.486.008 4.912-.741 6.926-2.136 2.014-1.395 3.514-3.367 4.284-5.631.77-2.263.77-4.703 0-6.966-.77-2.264-2.27-4.236-4.284-5.631-2.014-1.395-4.44-2.144-6.926-2.136zm16.5 29l-9.25-9.75" fill="none" stroke="#81b6f4" stroke-width="4"/><path d="M1001.277 16.368l-18.775-5.798v32.669l3.129.961v.715c0 1.758.281 3.461.813 5.055l-3.942-1.209-16.71 5.688-.501.082c-.864 0-1.564-.615-1.564-1.374V11.614c0-.632.469-1.126 1.126-1.318l17.649-5.221 18.775 5.77 16.71-5.77h.5c.864 0 1.565.615 1.565 1.374v25.58c-3.661-3.078-8.605-4.973-14.082-4.973-1.564 0-3.129.164-4.693.467z" fill="#000000"/><path d="M981.1125 9.75c-2.486-.008-4.912.741-6.926 2.136-2.014 1.395-3.514 3.367-4.284 5.631-.77 2.263-.77 4.703 0 6.966.77 2.264 2.27 4.236 4.284 5.631 2.014 1.395 4.44 2.144 6.926 2.136 2.486.008 4.912-.741 6.926-2.136 2.014-1.395 3.514-3.367 4.284-5.631.77-2.263.77-4.703 0-6.966-.77-2.264-2.27-4.236-4.284-5.631-2.014-1.395-4.44-2.144-6.926-2.136zm16.5 29l-9.25-9.75" fill="none" stroke="#81b6f4" stroke-width="4"/><path d="M1065.277 16.368l-18.775-5.798v32.669l3.129.961v.715c0 1.758.281 3.461.813 5.055l-3.942-1.209-16.71 5.688-.501.082c-.864 0-1.564-.615-1.564-1.374V11.614c0-.632.469-1.126 1.126-1.318l17.649-5.221 18.775 5.77 16.71-5.77h.5c.864 0 1.565.615 1.565 1.374v25.58c-3.661-3.078-8.605-4.973-14.082-4.973-1.564 0-3.129.164-4.693.467z" fill="#000000"/><path d="M1044.52608 9.75c-2.486-.008-4.912.741-6.926 2.136-2.014 1.395-3.514 3.367-4.284 5.631-.77 2.263-.77 4.703 0 6.966.77 2.264 2.27 4.236 4.284 5.631 2.014 1.395 4.44 2.144 6.926 2.136 2.486.008 4.912-.741 6.926-2.136 2.014-1.395 3.514-3.367 4.284-5.631.77-2.263.77-4.703 0-6.966-.77-2.264-2.27-4.236-4.284-5.631-2.014-1.395-4.44-2.144-6.926-2.136zm16.5 29l-9.25-9.75" fill="none" stroke="#81b6f4" stroke-width="4"/><path d="M1129.277 16.368l-18.775-5.798v32.669l3.129.961v.715c0 1.758.281 3.461.813 5.055l-3.942-1.209-16.71 5.688-.501.082c-.864 0-1.564-.615-1.564-1.374V11.614c0-.632.469-1.126 1.126-1.318l17.649-5.221 18.775 5.77 16.71-5.77h.5c.864 0 1.565.615 1.565 1.374v25.58c-3.661-3.078-8.605-4.973-14.082-4.973-1.564 0-3.129.164-4.693.467z" fill="#000000"/><path d="M1108.5 13.619347c-2.486-.008-4.912.741-6.926 2.136-2.014 1.395-3.514 3.367-4.284 5.631-.77 2.263-.77 4.703 0 6.966.77 2.264 2.27 4.236 4.284 5.631 2.014 1.395 4.44 2.144 6.926 2.136 2.486.008 4.912-.741 6.926-2.136 2.014-1.395 3.514-3.367 4.284-5.631.77-2.263.77-4.703 0-6.966-.77-2.264-2.27-4.236-4.284-5.631-2.014-1.395-4.44-2.144-6.926-2.136zm16.5 29l-9.25-9.75" fill="none" stroke="#81b6f4" stroke-width="4"/><path d="M1193.277 16.368l-18.775-5.798v32.669l3.129.961v.715c0 1.758.281 3.461.813 5.055l-3.942-1.209-16.71 5.688-.501.082c-.864 0-1.564-.615-1.564-1.374V11.614c0-.632.469-1.126 1.126-1.318l17.649-5.221 18.775 5.77 16.71-5.77h.5c.864 0 1.565.615 1.565 1.374v25.58c-3.661-3.078-8.605-4.973-14.082-4.973-1.564 0-3.129.164-4.693.467z" fill="#000000"/><path d="M1172.5 18.187948c-2.486-.008-4.912.741-6.926 2.136-2.014 1.395-3.514 3.367-4.284 5.631-.77 2.263-.77 4.703 0 6.966.77 2.264 2.27 4.236 4.284 5.631 2.014 1.395 4.44 2.144 6.926 2.136 2.486.008 4.912-.741 6.926-2.136 2.014-1.395 3.514-3.367 4.284-5.631.77-2.263.77-4.703 0-6.966-.77-2.264-2.27-4.236-4.284-5.631-2.014-1.395-4.44-2.144-6.926-2.136zm16.5 29l-9.25-9.75" fill="none" stroke="#81b6f4" stroke-width="4"/><path d="M1257.277 16.368l-18.775-5.798v32.669l3.129.961v.715c0 1.758.281 3.461.813 5.055l-3.942-1.209-16.71 5.688-.501.082c-.864 0-1.564-.615-1.564-1.374V11.614c0-.632.469-1.126 1.126-1.318l17.649-5.221 18.775 5.77 16.71-5.77h.5c.864 0 1.565.615 1.565 1.374v25.58c-3.661-3.078-8.605-4.973-14.082-4.973-1.564 0-3.129.164-4.693.467z" fill="#000000"/><path d="M1236.5 21.997646c-2.486-.008-4.912.741-6.926 2.136-2.014 1.395-3.514 3.367-4.284 5.631-.77 2.263-.77 4.703 0 6.966.77 2.264 2.27 4.236 4.284 5.631 2.014 1.395 4.44 2.144 6.926 2.136 2.486.008 4.912-.741 6.926-2.136 2.014-1.395 3.514-3.367 4.284-5.631.77-2.263.77-4.703 0-6.966-.77-2.264-2.27-4.236-4.284-5.631-2.014-1.395-4.44-2.144-6.926-2.136zm16.5 29l-9.25-9.75" fill="none" stroke="#81b6f4" stroke-width="4"/><path d="M1321.277 16.368l-18.775-5.798v32.669l3.129.961v.715c0 1.758.281 3.461.813 5.055l-3.942-1.209-16.71 5.688-.501.082c-.864 0-1.564-.615-1.564-1.374V11.614c0-.632.469-1.126 1.126-1.318l17.649-5.221 18.775 5.77 16.71-5.77h.5c.864 0 1.565.615 1.565 1.374v25.58c-3.661-3.078-8.605-4.973-14.082-4.973-1.564 0-3.129.164-4.693.467z" fill="#000000"/><path d="M1300.5 25.048439c-2.486-.008-4.912.741-6.926 2.136-2.014 1.395-3.514 3.367-4.284 5.631-.77 2.263-.77 4.703 0 6.966.77 2.264 2.27 4.236 4.284 5.631 2.014 1.395 4.44 2.144 6.926 2.136 2.486.008 4.912-.741 6.926-2.136 2.014-1.395 3.514-3.367 4.284-5.631.77-2.263.77-4.703 0-6.966-.77-2.264-2.27-4.236-4.284-5.631-2.014-1.395-4.44-2.144-6.926-2.136zm16.5 29l-9.25-9.75" fill="none" stroke="#81b6f4" stroke-width="4"/><path d="M1385.277 16.368l-18.775-5.798v32.669l3.129.961v.715c0 1.758.281 3.461.813 5.055l-3.942-1.209-16.71 5.688-.501.082c-.864 0-1.564-.615-1.564-1.374V11.614c0-.632.469-1.126 1.126-1.318l17.649-5.221 18.775 5.77 16.71-5.77h.5c.864 0 1.565.615 1.565 1.374v25.58c-3.661-3.078-8.605-4.973-14.082-4.973-1.564 0-3.129.164-4.693.467z" fill="#000000"/><path d="M1364.5 27.340329c-2.486-.008-4.912.741-6.926 2.136-2.014 1.395-3.514 3.367-4.284 5.631-.77 2.263-.77 4.703 0 6.966.77 2.264 2.27 4.236 4.284 5.631 2.014 1.395 4.44 2.144 6.926 2.136 2.486.008 4.912-.741 6.926-2.136 2.014-1.395 3.514-3.367 4.284-5.631.77-2.263.77-4.703 0-6.966-.77-2.264-2.27-4.236-4.284-5.631-2.014-1.395-4.44-2.144-6.926-2.136zm16.5 29l-9.25-9.75" fill="none" stroke="#81b6f4" stroke-width="4"/><path d="M1449.277 16.368l-18.775-5.798v32.669l3.129.961v.715c0 1.758.281 3.461.813 5.055l-3.942-1.209-16.71 5.688-.501.082c-.864 0-1.564-.615-1.564-1.374V11.614c0-.632.469-1.126 1.126-1.318l17.649-5.221 18.775 5.77 16.71-5.77h.5c.864 0 1.565.615 1.565 1.374v25.58c-3.661-3.078-8.605-4.973-14.082-4.973-1.564 0-3.129.164-4.693.467z" fill="#000000"/><path d="M1428.5 28.873314c-2.486-.008-4.912.741-6.926 2.136-2.014 1.395-3.514 3.367-4.284 5.631-.77 2.263-.77 4.703 0 6.966.77 2.264 2.27 4.236 4.284 5.631 2.014 1.395 4.44 2.144 6.926 2.136 2.486.008 4.912-.741 6.926-2.136 2.014-1.395 3.514-3.367 4.284-5.631.77-2.263.77-4.703 0-6.966-.77-2.264-2.27-4.236-4.284-5.631-2.014-1.395-4.44-2.144-6.926-2.136zm16.5 29l-9.25-9.75" fill="none" stroke="#81b6f4" stroke-width="4"/><path d="M1513.277 16.368l-18.775-5.798v32.669l3.129.961v.715c0 1.758.281 3.461.813 5.055l-3.942-1.209-16.71 5.688-.501.082c-.864 0-1.564-.615-1.564-1.374V11.614c0-.632.469-1.126 1.126-1.318l17.649-5.221 18.775 5.77 16.71-5.77h.5c.864 0 1.565.615 1.565 1.374v25.58c-3.661-3.078-8.605-4.973-14.082-4.973-1.564 0-3.129.164-4.693.467z" fill="#000000"/><path d="M1492.5 29.647396c-2.486-.008-4.912.741-6.926 2.136-2.014 1.395-3.514 3.367-4.284 5.631-.77 2.263-.77 4.703 0 6.966.77 2.264 2.27 4.236 4.284 5.631 2.014 1.395 4.44 2.144 6.926 2.136 2.486.008 4.912-.741 6.926-2.136 2.014-1.395 3.514-3.367 4.284-5.631.77-2.263.77-4.703 0-6.966-.77-2.264-2.27-4.236-4.284-5.631-2.014-1.395-4.44-2.144-6.926-2.136zm16.5 29l-9.25-9.75" fill="none" stroke="#81b6f4" stroke-width="4"/><path d="M1577.277 16.368l-18.775-5.798v32.669l3.129.961v.715c0 1.758.281 3.461.813 5.055l-3.942-1.209-16.71 5.688-.501.082c-.864 0-1.564-.615-1.564-1.374V11.614c0-.632.469-1.126 1.126-1.318l17.649-5.221 18.775 5.77 16.71-5.77h.5c.864 0 1.565.615 1.565 1.374v25.58c-3.661-3.078-8.605-4.973-14.082-4.973-1.564 0-3.129.164-4.693.467z" fill="#000000"/><path d="M1558.997399 29.75c-2.486-.008-4.912.741-6.926 2.136-2.014 1.395-3.514 3.367-4.284 5.631-.77 2.263-.77 4.703 0 6.966.77 2.264 2.27 4.236 4.284 5.631 2.014 1.395 4.44 2.144 6.926 2.136 2.486.008 4.912-.741 6.926-2.136 2.014-1.395 3.514-3.367 4.284-5.631.77-2.263.77-4.703 0-6.966-.77-2.264-2.27-4.236-4.284-5.631-2.014-1.395-4.44-2.144-6.926-2.136zm16.5 29l-9.25-9.75" fill="none" stroke="#81b6f4" stroke-width="4"/><path d="M1641.277 16.368l-18.775-5.798v32.669l3.129.961v.715c0 1.758.281 3.461.813 5.055l-3.942-1.209-16.71 5.688-.501.082c-.864 0-1.564-.615-1.564-1.374V11.614c0-.632.469-1.126 1.126-1.318l17.649-5.221 18.775 5.77 16.71-5.77h.5c.864 0 1.565.615 1.565 1.374v25.58c-3.661-3.078-8.605-4.973-14.082-4.973-1.564 0-3.129.164-4.693.467z" fill="#000000"/><path d="M1627.665568 29.75c-2.486-.008-4.912.741-6.926 2.136-2.014 1.395-3.514 3.367-4.284 5.631-.77 2.263-.77 4.703 0 6.966.77 2.264 2.27 4.236 4.284 5.631 2.014 1.395 4.44 2.144 6.926 2.136 2.486.008 4.912-.741 6.926-2.136 2.014-1.395 3.514-3.367 4.284-5.631.77-2.263.77-4.703 0-6.966-.77-2.264-2.27-4.236-4.284-5.631-2.014-1.395-4.44-2.144-6.926-2.136zm16.5 29l-9.25-9.75" fill="none" stroke="#81b6f4" stroke-width="4"/><path d="M1705.277 16.368l-18.775-5.798v32.669l3.129.961v.715c0 1.758.281 3.461.813 5.055l-3.942-1.209-16.71 5.688-.501.082c-.864 0-1.564-.615-1.564-1.374V11.614c0-.632.469-1.126 1.126-1.318l17.649-5.221 18.775 5.77 16.71-5.77h.5c.864 0 1.565.615 1.565 1.374v25.58c-3.661-3.078-8.605-4.973-14.082-4.973-1.564 0-3.129.164-4.693.467z" fill="#000000"/><path d="M1695.611111 29.75c-2.486-.008-4.912.741-6.926 2.136-2.014 1.395-3.514 3.367-4.284 5.631-.77 2.263-.77 4.703 0 6.966.77 2.264 2.27 4.236 4.284 5.631 2.014 1.395 4.44 2.144 6.926 2.136 2.486.008 4.912-.741 6.926-2.136 2.014-1.395 3.514-3.367 4.284-5.631.77-2.263.77-4.703 0-6.966-.77-2.264-2.27-4.236-4.284-5.631-2.014-1.395-4.44-2.144-6.926-2.136zm16.5 29l-9.25-9.75" fill="none" stroke="#81b6f4" stroke-width="4"/><path d="M1769.277 16.368l-18.775-5.798v32.669l3.129.961v.715c0 1.758.281 3.461.813 5.055l-3.942-1.209-16.71 5.688-.501.082c-.864 0-1.564-.615-1.564-1.374V11.614c0-.632.469-1.126 1.126-1.318l17.649-5.221 18.775 5.77 16.71-5.77h.5c.864 0 1.565.615 1.565 1.374v25.58c-3.661-3.078-8.605-4.973-14.082-4.973-1.564 0-3.129.164-4.693.467z" fill="#000000"/><path d="M1762.834027 29.75c-2.486-.008-4.912.741-6.926 2.136-2.014 1.395-3.514 3.367-4.284 5.631-.77 2.263-.77 4.703 0 6.966.77 2.264 2.27 4.236 4.284 5.631 2.014 1.395 4.44 2.144 6.926 2.136 2.486.008 4.912-.741 6.926-2.136 2.014-1.395 3.514-3.367 4.284-5.631.77-2.263.77-4.703 0-6.966-.77-2.264-2.27-4.236-4.284-5.631-2.014-1.395-4.44-2.144-6.926-2.136zm16.5 29l-9.25-9.75" fill="none" stroke="#81b6f4" stroke-width="4"/><g><path d="M1833.277 16.368l-18.775-5.798v32.669l3.129.961v.715c0 1.758.281 3.461.813 5.055l-3.942-1.209-16.71 5.688-.501.082c-.864 0-1.564-.615-1.564-1.374V11.614c0-.632.469-1.126 1.126-1.318l17.649-5.221 18.775 5.77 16.71-5.77h.5c.864 0 1.565.615 1.565 1.374v25.58c-3.661-3.078-8.605-4.973-14.082-4.973-1.564 0-3.129.164-4.693.467z" fill="#000000"/><path d="M1829.334316 29.75c-2.486-.008-4.912.741-6.926 2.136-2.014 1.395-3.514 3.367-4.284 5.631-.77 2.263-.77 4.703 0 6.966.77 2.264 2.27 4.236 4.284 5.631 2.014 1.395 4.44 2.144 6.926 2.136 2.486.008 4.912-.741 6.926-2.136 2.014-1.395 3.514-3.367 4.284-5.631.77-2.263.77-4.703 0-6.966-.77-2.264-2.27-4.236-4.284-5.631-2.014-1.395-4.44-2.144-6.926-2.136zm16.5 29l-9.25-9.75" fill="none" stroke="#81b6f4" stroke-width="4"/></g><g><path d="M1897.277 16.368l-18.775-5.798v32.669l3.129.961v.715c0 1.758.281 3.461.813 5.055l-3.942-1.209-16.71 5.688-.501.082c-.864 0-1.564-.615-1.564-1.374V11.614c0-.632.469-1.126 1.126-1.318l17.649-5.221 18.775 5.77 16.71-5.77h.5c.864 0 1.565.615 1.565 1.374v25.58c-3.661-3.078-8.605-4.973-14.082-4.973-1.564 0-3.129.164-4.693.467z" fill="#000000"/><path d="M1895.111978 29.75c-2.486-.008-4.912.741-6.926 2.136-2.014 1.395-3.514 3.367-4.284 5.631-.77 2.263-.77 4.703 0 6.966.77 2.264 2.27 4.236 4.284 5.631 2.014 1.395 4.44 2.144 6.926 2.136 2.486.008 4.912-.741 6.926-2.136 2.014-1.395 3.514-3.367 4.284-5.631.77-2.263.77-4.703 0-6.966-.77-2.264-2.27-4.236-4.284-5.631-2.014-1.395-4.44-2.144-6.926-2.136zm16.5 29l-9.25-9.75" fill="none" stroke="#81b6f4" stroke-width="4"/></g><g><path d="M1961.277 16.368l-18.775-5.798v32.669l3.129.961v.715c0 1.758.281 3.461.813 5.055l-3.942-1.209-16.71 5.688-.501.082c-.864 0-1.564-.615-1.564-1.374V11.614c0-.632.469-1.126 1.126-1.318l17.649-5.221 18.775 5.77 16.71-5.77h.5c.864 0 1.565.615 1.565 1.374v25.58c-3.661-3.078-8.605-4.973-14.082-4.973-1.564 0-3.129.164-4.693.467z" fill="#000000"/><path d="M1960.167014 29.75c-2.486-.008-4.912.741-6.926 2.136-2.014 1.395-3.514 3.367-4.284 5.631-.77 2.263-.77 4.703 0 6.966.77 2.264 2.27 4.236 4.284 5.631 2.014 1.395 4.44 2.144 6.926 2.136 2.486.008 4.912-.741 6.926-2.136 2.014-1.395 3.514-3.367 4.284-5.631.77-2.263.77-4.703 0-6.966-.77-2.264-2.27-4.236-4.284-5.631-2.014-1.395-4.44-2.144-6.926-2.136zm16.5 29l-9.25-9.75" fill="none" stroke="#81b6f4" stroke-width="4" stroke-dasharray="7.2557452200602395,65.15936855408904" stroke-dashoffset="72.415114"/></g><g><path d="M2025.277 16.368l-18.775-5.798v32.669l3.129.961v.715c0 1.758.281 3.461.813 5.055l-3.942-1.209-16.71 5.688-.501.082c-.864 0-1.564-.615-1.564-1.374V11.614c0-.632.469-1.126 1.126-1.318l17.649-5.221 18.775 5.77 16.71-5.77h.5c.864 0 1.565.615 1.565 1.374v25.58c-3.661-3.078-8.605-4.973-14.082-4.973-1.564 0-3.129.164-4.693.467z" fill="#000000"/><path d="M2024.5 29.75c-2.486-.008-4.912.741-6.926 2.136-2.014 1.395-3.514 3.367-4.284 5.631-.77 2.263-.77 4.703 0 6.966.77 2.264 2.27 4.236 4.284 5.631 2.014 1.395 4.44 2.144 6.926 2.136 2.486.008 4.912-.741 6.926-2.136 2.014-1.395 3.514-3.367 4.284-5.631.77-2.263.77-4.703 0-6.966-.77-2.264-2.27-4.236-4.284-5.631-2.014-1.395-4.44-2.144-6.926-2.136zm16.5 29l-9.25-9.75" fill="none" stroke="#81b6f4" stroke-width="4" stroke-dasharray="7.444651156402324,64.97046261774696" stroke-dashoffset="72.415114"/></g><g><path d="M2089.277 16.368l-18.775-5.798v32.669l3.129.961v.715c0 1.758.281 3.461.813 5.055l-3.942-1.209-16.71 5.688-.501.082c-.864 0-1.564-.615-1.564-1.374V11.614c0-.632.469-1.126 1.126-1.318l17.649-5.221 18.775 5.77 16.71-5.77h.5c.864 0 1.565.615 1.565 1.374v25.58c-3.661-3.078-8.605-4.973-14.082-4.973-1.564 0-3.129.164-4.693.467z" fill="#000000"/><path d="M2088.5 29.75c-2.486-.008-4.912.741-6.926 2.136-2.014 1.395-3.514 3.367-4.284 5.631-.77 2.263-.77 4.703 0 6.966.77 2.264 2.27 4.236 4.284 5.631 2.014 1.395 4.44 2.144 6.926 2.136 2.486.008 4.912-.741 6.926-2.136 2.014-1.395 3.514-3.367 4.284-5.631.77-2.263.77-4.703 0-6.966-.77-2.264-2.27-4.236-4.284-5.631-2.014-1.395-4.44-2.144-6.926-2.136zm16.5 29l-9.25-9.75" fill="none" stroke="#81b6f4" stroke-width="4" stroke-dasharray="7.853215158258464,64.56189861589081" stroke-dashoffset="72.415114"/></g><g><path d="M2153.277 16.368l-18.775-5.798v32.669l3.129.961v.715c0 1.758.281 3.461.813 5.055l-3.942-1.209-16.71 5.688-.501.082c-.864 0-1.564-.615-1.564-1.374V11.614c0-.632.469-1.126 1.126-1.318l17.649-5.221 18.775 5.77 16.71-5.77h.5c.864 0 1.565.615 1.565 1.374v25.58c-3.661-3.078-8.605-4.973-14.082-4.973-1.564 0-3.129.164-4.693.467z" fill="#000000"/><path d="M2152.5 29.75c-2.486-.008-4.912.741-6.926 2.136-2.014 1.395-3.514 3.367-4.284 5.631-.77 2.263-.77 4.703 0 6.966.77 2.264 2.27 4.236 4.284 5.631 2.014 1.395 4.44 2.144 6.926 2.136 2.486.008 4.912-.741 6.926-2.136 2.014-1.395 3.514-3.367 4.284-5.631.77-2.263.77-4.703 0-6.966-.77-2.264-2.27-4.236-4.284-5.631-2.014-1.395-4.44-2.144-6.926-2.136zm16.5 29l-9.25-9.75" fill="none" stroke="#81b6f4" stroke-width="4" stroke-dasharray="8.481437225628662,63.933676548520616" stroke-dashoffset="72.415114"/></g><g><path d="M2217.277 16.368l-18.775-5.798v32.669l3.129.961v.715c0 1.758.281 3.461.813 5.055l-3.942-1.209-16.71 5.688-.501.082c-.864 0-1.564-.615-1.564-1.374V11.614c0-.632.469-1.126 1.126-1.318l17.649-5.221 18.775 5.77 16.71-5.77h.5c.864 0 1.565.615 1.565 1.374v25.58c-3.661-3.078-8.605-4.973-14.082-4.973-1.564 0-3.129.164-4.693.467z" fill="#000000"/><path d="M2216.5 29.75c-2.486-.008-4.912.741-6.926 2.136-2.014 1.395-3.514 3.367-4.284 5.631-.77 2.263-.77 4.703 0 6.966.77 2.264 2.27 4.236 4.284 5.631 2.014 1.395 4.44 2.144 6.926 2.136 2.486.008 4.912-.741 6.926-2.136 2.014-1.395 3.514-3.367 4.284-5.631.77-2.263.77-4.703 0-6.966-.77-2.264-2.27-4.236-4.284-5.631-2.014-1.395-4.44-2.144-6.926-2.136zm16.5 29l-9.25-9.75" fill="none" stroke="#81b6f4" stroke-width="4" stroke-dasharray="9.329317358512908,63.085796415636366" stroke-dashoffset="72.415114"/></g><g><path d="M2281.277 16.368l-18.775-5.798v32.669l3.129.961v.715c0 1.758.281 3.461.813 5.055l-3.942-1.209-16.71 5.688-.501.082c-.864 0-1.564-.615-1.564-1.374V11.614c0-.632.469-1.126 1.126-1.318l17.649-5.221 18.775 5.77 16.71-5.77h.5c.864 0 1.565.615 1.565 1.374v25.58c-3.661-3.078-8.605-4.973-14.082-4.973-1.564 0-3.129.164-4.693.467z" fill="#000000"/><path d="M2280.5 29.75c-2.486-.008-4.912.741-6.926 2.136-2.014 1.395-3.514 3.367-4.284 5.631-.77 2.263-.77 4.703 0 6.966.77 2.264 2.27 4.236 4.284 5.631 2.014 1.395 4.44 2.144 6.926 2.136 2.486.008 4.912-.741 6.926-2.136 2.014-1.395 3.514-3.367 4.284-5.631.77-2.263.77-4.703 0-6.966-.77-2.264-2.27-4.236-4.284-5.631-2.014-1.395-4.44-2.144-6.926-2.136zm16.5 29l-9.25-9.75" fill="none" stroke="#81b6f4" stroke-width="4" stroke-dasharray="10.396855556911216,62.01825821723806" stroke-dashoffset="72.415114"/></g><g><path d="M2345.277 16.368l-18.775-5.798v32.669l3.129.961v.715c0 1.758.281 3.461.813 5.055l-3.942-1.209-16.71 5.688-.501.082c-.864 0-1.564-.615-1.564-1.374V11.614c0-.632.469-1.126 1.126-1.318l17.649-5.221 18.775 5.77 16.71-5.77h.5c.864 0 1.565.615 1.565 1.374v25.58c-3.661-3.078-8.605-4.973-14.082-4.973-1.564 0-3.129.164-4.693.467z" fill="#000000"/><path d="M2344.5 29.75c-2.486-.008-4.912.741-6.926 2.136-2.014 1.395-3.514 3.367-4.284 5.631-.77 2.263-.77 4.703 0 6.966.77 2.264 2.27 4.236 4.284 5.631 2.014 1.395 4.44 2.144 6.926 2.136 2.486.008 4.912-.741 6.926-2.136 2.014-1.395 3.514-3.367 4.284-5.631.77-2.263.77-4.703 0-6.966-.77-2.264-2.27-4.236-4.284-5.631-2.014-1.395-4.44-2.144-6.926-2.136zm16.5 29l-9.25-9.75" fill="none" stroke="#81b6f4" stroke-width="4" stroke-dasharray="11.684051820823571,60.7310619533257" stroke-dashoffset="72.415114"/></g><g><path d="M2409.277 16.368l-18.775-5.798v32.669l3.129.961v.715c0 1.758.281 3.461.813 5.055l-3.942-1.209-16.71 5.688-.501.082c-.864 0-1.564-.615-1.564-1.374V11.614c0-.632.469-1.126 1.126-1.318l17.649-5.221 18.775 5.77 16.71-5.77h.5c.864 0 1.565.615 1.565 1.374v25.58c-3.661-3.078-8.605-4.973-14.082-4.973-1.564 0-3.129.164-4.693.467z" fill="#000000"/><path d="M2408.5 29.75c-2.486-.008-4.912.741-6.926 2.136-2.014 1.395-3.514 3.367-4.284 5.631-.77 2.263-.77 4.703 0 6.966.77 2.264 2.27 4.236 4.284 5.631 2.014 1.395 4.44 2.144 6.926 2.136 2.486.008 4.912-.741 6.926-2.136 2.014-1.395 3.514-3.367 4.284-5.631.77-2.263.77-4.703 0-6.966-.77-2.264-2.27-4.236-4.284-5.631-2.014-1.395-4.44-2.144-6.926-2.136zm16.5 29l-9.25-9.75" fill="none" stroke="#81b6f4" stroke-width="4" stroke-dasharray="13.19090615024999,59.22420762389929" stroke-dashoffset="72.415114"/></g><g><path d="M2473.277 16.368l-18.775-5.798v32.669l3.129.961v.715c0 1.758.281 3.461.813 5.055l-3.942-1.209-16.71 5.688-.501.082c-.864 0-1.564-.615-1.564-1.374V11.614c0-.632.469-1.126 1.126-1.318l17.649-5.221 18.775 5.77 16.71-5.77h.5c.864 0 1.565.615 1.565 1.374v25.58c-3.661-3.078-8.605-4.973-14.082-4.973-1.564 0-3.129.164-4.693.467z" fill="#000000"/><path d="M2472.5 29.75c-2.486-.008-4.912.741-6.926 2.136-2.014 1.395-3.514 3.367-4.284 5.631-.77 2.263-.77 4.703 0 6.966.77 2.264 2.27 4.236 4.284 5.631 2.014 1.395 4.44 2.144 6.926 2.136 2.486.008 4.912-.741 6.926-2.136 2.014-1.395 3.514-3.367 4.284-5.631.77-2.263.77-4.703 0-6.966-.77-2.264-2.27-4.236-4.284-5.631-2.014-1.395-4.44-2.144-6.926-2.136zm16.5 29l-9.25-9.75" fill="none" stroke="#81b6f4" stroke-width="4" stroke-dasharray="14.91741854519045,57.497695228958825" stroke-dashoffset="72.415114"/></g><g><path d="M2537.277 16.368l-18.775-5.798v32.669l3.129.961v.715c0 1.758.281 3.461.813 5.055l-3.942-1.209-16.71 5.688-.501.082c-.864 0-1.564-.615-1.564-1.374V11.614c0-.632.469-1.126 1.126-1.318l17.649-5.221 18.775 5.77 16.71-5.77h.5c.864 0 1.565.615 1.565 1.374v25.58c-3.661-3.078-8.605-4.973-14.082-4.973-1.564 0-3.129.164-4.693.467z" fill="#000000"/><path d="M2536.5 29.75c-2.486-.008-4.912.741-6.926 2.136-2.014 1.395-3.514 3.367-4.284 5.631-.77 2.263-.77 4.703 0 6.966.77 2.264 2.27 4.236 4.284 5.631 2.014 1.395 4.44 2.144 6.926 2.136 2.486.008 4.912-.741 6.926-2.136 2.014-1.395 3.514-3.367 4.284-5.631.77-2.263.77-4.703 0-6.966-.77-2.264-2.27-4.236-4.284-5.631-2.014-1.395-4.44-2.144-6.926-2.136zm16.5 29l-9.25-9.75" fill="none" stroke="#81b6f4" stroke-width="4" stroke-dasharray="16.863589005644968,55.55152476850431" stroke-dashoffset="72.415114"/></g><g><path d="M2601.277 16.368l-18.775-5.798v32.669l3.129.961v.715c0 1.758.281 3.461.813 5.055l-3.942-1.209-16.71 5.688-.501.082c-.864 0-1.564-.615-1.564-1.374V11.614c0-.632.469-1.126 1.126-1.318l17.649-5.221 18.775 5.77 16.71-5.77h.5c.864 0 1.565.615 1.565 1.374v25.58c-3.661-3.078-8.605-4.973-14.082-4.973-1.564 0-3.129.164-4.693.467z" fill="#000000"/><path d="M2600.5 29.75c-2.486-.008-4.912.741-6.926 2.136-2.014 1.395-3.514 3.367-4.284 5.631-.77 2.263-.77 4.703 0 6.966.77 2.264 2.27 4.236 4.284 5.631 2.014 1.395 4.44 2.144 6.926 2.136 2.486.008 4.912-.741 6.926-2.136 2.014-1.395 3.514-3.367 4.284-5.631.77-2.263.77-4.703 0-6.966-.77-2.264-2.27-4.236-4.284-5.631-2.014-1.395-4.44-2.144-6.926-2.136zm16.5 29l-9.25-9.75" fill="none" stroke="#81b6f4" stroke-width="4" stroke-dasharray="19.029417531613543,53.38569624253574" stroke-dashoffset="72.415114"/></g><g><path d="M2665.277 16.368l-18.775-5.798v32.669l3.129.961v.715c0 1.758.281 3.461.813 5.055l-3.942-1.209-16.71 5.688-.501.082c-.864 0-1.564-.615-1.564-1.374V11.614c0-.632.469-1.126 1.126-1.318l17.649-5.221 18.775 5.77 16.71-5.77h.5c.864 0 1.565.615 1.565 1.374v25.58c-3.661-3.078-8.605-4.973-14.082-4.973-1.564 0-3.129.164-4.693.467z" fill="#000000"/><path d="M2664.5 29.75c-2.486-.008-4.912.741-6.926 2.136-2.014 1.395-3.514 3.367-4.284 5.631-.77 2.263-.77 4.703 0 6.966.77 2.264 2.27 4.236 4.284 5.631 2.014 1.395 4.44 2.144 6.926 2.136 2.486.008 4.912-.741 6.926-2.136 2.014-1.395 3.514-3.367 4.284-5.631.77-2.263.77-4.703 0-6.966-.77-2.264-2.27-4.236-4.284-5.631-2.014-1.395-4.44-2.144-6.926-2.136zm16.5 29l-9.25-9.75" fill="none" stroke="#81b6f4" stroke-width="4" stroke-dasharray="21.41490412309618,51.0002096510531" stroke-dashoffset="72.415114"/></g><g><path d="M2729.277 16.368l-18.775-5.798v32.669l3.129.961v.715c0 1.758.281 3.461.813 5.055l-3.942-1.209-16.71 5.688-.501.082c-.864 0-1.564-.615-1.564-1.374V11.614c0-.632.469-1.126 1.126-1.318l17.649-5.221 18.775 5.77 16.71-5.77h.5c.864 0 1.565.615 1.565 1.374v25.58c-3.661-3.078-8.605-4.973-14.082-4.973-1.564 0-3.129.164-4.693.467z" fill="#000000"/><path d="M2728.5 29.75c-2.486-.008-4.912.741-6.926 2.136-2.014 1.395-3.514 3.367-4.284 5.631-.77 2.263-.77 4.703 0 6.966.77 2.264 2.27 4.236 4.284 5.631 2.014 1.395 4.44 2.144 6.926 2.136 2.486.008 4.912-.741 6.926-2.136 2.014-1.395 3.514-3.367 4.284-5.631.77-2.263.77-4.703 0-6.966-.77-2.264-2.27-4.236-4.284-5.631-2.014-1.395-4.44-2.144-6.926-2.136zm16.5 29l-9.25-9.75" fill="none" stroke="#81b6f4" stroke-width="4" stroke-dasharray="24.02004878009286,48.39506499405641" stroke-dashoffset="72.415114"/></g><g><path d="M2793.277 16.368l-18.775-5.798v32.669l3.129.961v.715c0 1.758.281 3.461.813 5.055l-3.942-1.209-16.71 5.688-.501.082c-.864 0-1.564-.615-1.564-1.374V11.614c0-.632.469-1.126 1.126-1.318l17.649-5.221 18.775 5.77 16.71-5.77h.5c.864 0 1.565.615 1.565 1.374v25.58c-3.661-3.078-8.605-4.973-14.082-4.973-1.564 0-3.129.164-4.693.467z" fill="#000000"/><path d="M2792.5 29.75c-2.486-.008-4.912.741-6.926 2.136-2.014 1.395-3.514 3.367-4.284 5.631-.77 2.263-.77 4.703 0 6.966.77 2.264 2.27 4.236 4.284 5.631 2.014 1.395 4.44 2.144 6.926 2.136 2.486.008 4.912-.741 6.926-2.136 2.014-1.395 3.514-3.367 4.284-5.631.77-2.263.77-4.703 0-6.966-.77-2.264-2.27-4.236-4.284-5.631-2.014-1.395-4.44-2.144-6.926-2.136zm16.5 29l-9.25-9.75" fill="none" stroke="#81b6f4" stroke-width="4" stroke-dasharray="26.84485150260359,45.57026227154569" stroke-dashoffset="72.415114"/></g><g><path d="M2857.277 16.368l-18.775-5.798v32.669l3.129.961v.715c0 1.758.281 3.461.813 5.055l-3.942-1.209-16.71 5.688-.501.082c-.864 0-1.564-.615-1.564-1.374V11.614c0-.632.469-1.126 1.126-1.318l17.649-5.221 18.775 5.77 16.71-5.77h.5c.864 0 1.565.615 1.565 1.374v25.58c-3.661-3.078-8.605-4.973-14.082-4.973-1.564 0-3.129.164-4.693.467z" fill="#000000"/><path d="M2856.5 29.75c-2.486-.008-4.912.741-6.926 2.136-2.014 1.395-3.514 3.367-4.284 5.631-.77 2.263-.77 4.703 0 6.966.77 2.264 2.27 4.236 4.284 5.631 2.014 1.395 4.44 2.144 6.926 2.136 2.486.008 4.912-.741 6.926-2.136 2.014-1.395 3.514-3.367 4.284-5.631.77-2.263.77-4.703 0-6.966-.77-2.264-2.27-4.236-4.284-5.631-2.014-1.395-4.44-2.144-6.926-2.136zm16.5 29l-9.25-9.75" fill="none" stroke="#81b6f4" stroke-width="4" stroke-dasharray="29.889312290628368,42.52580148352091" stroke-dashoffset="72.415114"/></g><g><path d="M2921.277 16.368l-18.775-5.798v32.669l3.129.961v.715c0 1.758.281 3.461.813 5.055l-3.942-1.209-16.71 5.688-.501.082c-.864 0-1.564-.615-1.564-1.374V11.614c0-.632.469-1.126 1.126-1.318l17.649-5.221 18.775 5.77 16.71-5.77h.5c.864 0 1.565.615 1.565 1.374v25.58c-3.661-3.078-8.605-4.973-14.082-4.973-1.564 0-3.129.164-4.693.467z" fill="#000000"/><path d="M2920.5 29.75c-2.486-.008-4.912.741-6.926 2.136-2.014 1.395-3.514 3.367-4.284 5.631-.77 2.263-.77 4.703 0 6.966.77 2.264 2.27 4.236 4.284 5.631 2.014 1.395 4.44 2.144 6.926 2.136 2.486.008 4.912-.741 6.926-2.136 2.014-1.395 3.514-3.367 4.284-5.631.77-2.263.77-4.703 0-6.966-.77-2.264-2.27-4.236-4.284-5.631-2.014-1.395-4.44-2.144-6.926-2.136zm16.5 29l-9.25-9.75" fill="none" stroke="#81b6f4" stroke-width="4" stroke-dasharray="33.153431144167236,39.26168262998204" stroke-dashoffset="72.415114"/></g><g><path d="M2985.277 16.368l-18.775-5.798v32.669l3.129.961v.715c0 1.758.281 3.461.813 5.055l-3.942-1.209-16.71 5.688-.501.082c-.864 0-1.564-.615-1.564-1.374V11.614c0-.632.469-1.126 1.126-1.318l17.649-5.221 18.775 5.77 16.71-5.77h.5c.864 0 1.565.615 1.565 1.374v25.58c-3.661-3.078-8.605-4.973-14.082-4.973-1.564 0-3.129.164-4.693.467z" fill="#000000"/><path d="M2984.5 29.75c-2.486-.008-4.912.741-6.926 2.136-2.014 1.395-3.514 3.367-4.284 5.631-.77 2.263-.77 4.703 0 6.966.77 2.264 2.27 4.236 4.284 5.631 2.014 1.395 4.44 2.144 6.926 2.136 2.486.008 4.912-.741 6.926-2.136 2.014-1.395 3.514-3.367 4.284-5.631.77-2.263.77-4.703 0-6.966-.77-2.264-2.27-4.236-4.284-5.631-2.014-1.395-4.44-2.144-6.926-2.136zm16.5 29l-9.25-9.75" fill="none" stroke="#81b6f4" stroke-width="4" stroke-dasharray="36.63720806322012,35.777905710929154" stroke-dashoffset="72.415114"/></g><g><path d="M3049.277 16.368l-18.775-5.798v32.669l3.129.961v.715c0 1.758.281 3.461.813 5.055l-3.942-1.209-16.71 5.688-.501.082c-.864 0-1.564-.615-1.564-1.374V11.614c0-.632.469-1.126 1.126-1.318l17.649-5.221 18.775 5.77 16.71-5.77h.5c.864 0 1.565.615 1.565 1.374v25.58c-3.661-3.078-8.605-4.973-14.082-4.973-1.564 0-3.129.164-4.693.467z" fill="#000000"/><path d="M3048.5 29.75c-2.486-.008-4.912.741-6.926 2.136-2.014 1.395-3.514 3.367-4.284 5.631-.77 2.263-.77 4.703 0 6.966.77 2.264 2.27 4.236 4.284 5.631 2.014 1.395 4.44 2.144 6.926 2.136 2.486.008 4.912-.741 6.926-2.136 2.014-1.395 3.514-3.367 4.284-5.631.77-2.263.77-4.703 0-6.966-.77-2.264-2.27-4.236-4.284-5.631-2.014-1.395-4.44-2.144-6.926-2.136zm16.5 29l-9.25-9.75" fill="none" stroke="#81b6f4" stroke-width="4" stroke-dasharray="40.3406430477871,32.07447072636218" stroke-dashoffset="72.415114"/></g><g><path d="M3113.277 16.368l-18.775-5.798v32.669l3.129.961v.715c0 1.758.281 3.461.813 5.055l-3.942-1.209-16.71 5.688-.501.082c-.864 0-1.564-.615-1.564-1.374V11.614c0-.632.469-1.126 1.126-1.318l17.649-5.221 18.775 5.77 16.71-5.77h.5c.864 0 1.565.615 1.565 1.374v25.58c-3.661-3.078-8.605-4.973-14.082-4.973-1.564 0-3.129.164-4.693.467z" fill="#000000"/><path d="M3112.5 29.75c-2.486-.008-4.912.741-6.926 2.136-2.014 1.395-3.514 3.367-4.284 5.631-.77 2.263-.77 4.703 0 6.966.77 2.264 2.27 4.236 4.284 5.631 2.014 1.395 4.44 2.144 6.926 2.136 2.486.008 4.912-.741 6.926-2.136 2.014-1.395 3.514-3.367 4.284-5.631.77-2.263.77-4.703 0-6.966-.77-2.264-2.27-4.236-4.284-5.631-2.014-1.395-4.44-2.144-6.926-2.136zm16.5 29l-9.25-9.75" fill="none" stroke="#81b6f4" stroke-width="4" stroke-dasharray="44.26373609786809,28.15137767628119" stroke-dashoffset="72.415114"/></g><g><path d="M3177.277 16.368l-18.775-5.798v32.669l3.129.961v.715c0 1.758.281 3.461.813 5.055l-3.942-1.209-16.71 5.688-.501.082c-.864 0-1.564-.615-1.564-1.374V11.614c0-.632.469-1.126 1.126-1.318l17.649-5.221 18.775 5.77 16.71-5.77h.5c.864 0 1.565.615 1.565 1.374v25.58c-3.661-3.078-8.605-4.973-14.082-4.973-1.564 0-3.129.164-4.693.467z" fill="#000000"/><path d="M3176.5 29.75c-2.486-.008-4.912.741-6.926 2.136-2.014 1.395-3.514 3.367-4.284 5.631-.77 2.263-.77 4.703 0 6.966.77 2.264 2.27 4.236 4.284 5.631 2.014 1.395 4.44 2.144 6.926 2.136 2.486.008 4.912-.741 6.926-2.136 2.014-1.395 3.514-3.367 4.284-5.631.77-2.263.77-4.703 0-6.966-.77-2.264-2.27-4.236-4.284-5.631-2.014-1.395-4.44-2.144-6.926-2.136zm16.5 29l-9.25-9.75" fill="none" stroke="#81b6f4" stroke-width="4" stroke-dasharray="48.406487213463166,24.008626560686107" stroke-dashoffset="72.415114"/></g><g><path d="M3241.277 16.368l-18.775-5.798v32.669l3.129.961v.715c0 1.758.281 3.461.813 5.055l-3.942-1.209-16.71 5.688-.501.082c-.864 0-1.564-.615-1.564-1.374V11.614c0-.632.469-1.126 1.126-1.318l17.649-5.221 18.775 5.77 16.71-5.77h.5c.864 0 1.565.615 1.565 1.374v25.58c-3.661-3.078-8.605-4.973-14.082-4.973-1.564 0-3.129.164-4.693.467z" fill="#000000"/><path d="M3240.5 29.75c-2.486-.008-4.912.741-6.926 2.136-2.014 1.395-3.514 3.367-4.284 5.631-.77 2.263-.77 4.703 0 6.966.77 2.264 2.27 4.236 4.284 5.631 2.014 1.395 4.44 2.144 6.926 2.136 2.486.008 4.912-.741 6.926-2.136 2.014-1.395 3.514-3.367 4.284-5.631.77-2.263.77-4.703 0-6.966-.77-2.264-2.27-4.236-4.284-5.631-2.014-1.395-4.44-2.144-6.926-2.136zm16.5 29l-9.25-9.75" fill="none" stroke="#81b6f4" stroke-width="4" stroke-dasharray="52.76889639457228,19.646217379576996" stroke-dashoffset="72.415114"/></g><g><path d="M3305.277 16.368l-18.775-5.798v32.669l3.129.961v.715c0 1.758.281 3.461.813 5.055l-3.942-1.209-16.71 5.688-.501.082c-.864 0-1.564-.615-1.564-1.374V11.614c0-.632.469-1.126 1.126-1.318l17.649-5.221 18.775 5.77 16.71-5.77h.5c.864 0 1.565.615 1.565 1.374v25.58c-3.661-3.078-8.605-4.973-14.082-4.973-1.564 0-3.129.164-4.693.467z" fill="#000000"/><path d="M3304.5 29.75c-2.486-.008-4.912.741-6.926 2.136-2.014 1.395-3.514 3.367-4.284 5.631-.77 2.263-.77 4.703 0 6.966.77 2.264 2.27 4.236 4.284 5.631 2.014 1.395 4.44 2.144 6.926 2.136 2.486.008 4.912-.741 6.926-2.136 2.014-1.395 3.514-3.367 4.284-5.631.77-2.263.77-4.703 0-6.966-.77-2.264-2.27-4.236-4.284-5.631-2.014-1.395-4.44-2.144-6.926-2.136zm16.5 29l-9.25-9.75" fill="none" stroke="#81b6f4" stroke-width="4" stroke-dasharray="57.35096364119544,15.064150132953836" stroke-dashoffset="72.415114"/></g><g><path d="M3369.277 16.368l-18.775-5.798v32.669l3.129.961v.715c0 1.758.281 3.461.813 5.055l-3.942-1.209-16.71 5.688-.501.082c-.864 0-1.564-.615-1.564-1.374V11.614c0-.632.469-1.126 1.126-1.318l17.649-5.221 18.775 5.77 16.71-5.77h.5c.864 0 1.565.615 1.565 1.374v25.58c-3.661-3.078-8.605-4.973-14.082-4.973-1.564 0-3.129.164-4.693.467z" fill="#000000"/><path d="M3368.5 29.75c-2.486-.008-4.912.741-6.926 2.136-2.014 1.395-3.514 3.367-4.284 5.631-.77 2.263-.77 4.703 0 6.966.77 2.264 2.27 4.236 4.284 5.631 2.014 1.395 4.44 2.144 6.926 2.136 2.486.008 4.912-.741 6.926-2.136 2.014-1.395 3.514-3.367 4.284-5.631.77-2.263.77-4.703 0-6.966-.77-2.264-2.27-4.236-4.284-5.631-2.014-1.395-4.44-2.144-6.926-2.136zm16.5 29l-9.25-9.75" fill="none" stroke="#81b6f4" stroke-width="4" stroke-dasharray="62.15268895333265,10.262424820816628" stroke-dashoffset="72.415114"/></g><g><path d="M3433.277 16.368l-18.775-5.798v32.669l3.129.961v.715c0 1.758.281 3.461.813 5.055l-3.942-1.209-16.71 5.688-.501.082c-.864 0-1.564-.615-1.564-1.374V11.614c0-.632.469-1.126 1.126-1.318l17.649-5.221 18.775 5.77 16.71-5.77h.5c.864 0 1.565.615 1.565 1.374v25.58c-3.661-3.078-8.605-4.973-14.082-4.973-1.564 0-3.129.164-4.693.467z" fill="#000000"/><path d="M3432.5 29.75c-2.486-.008-4.912.741-6.926 2.136-2.014 1.395-3.514 3.367-4.284 5.631-.77 2.263-.77 4.703 0 6.966.77 2.264 2.27 4.236 4.284 5.631 2.014 1.395 4.44 2.144 6.926 2.136 2.486.008 4.912-.741 6.926-2.136 2.014-1.395 3.514-3.367 4.284-5.631.77-2.263.77-4.703 0-6.966-.77-2.264-2.27-4.236-4.284-5.631-2.014-1.395-4.44-2.144-6.926-2.136zm16.5 29l-9.25-9.75" fill="none" stroke="#81b6f4" stroke-width="4" stroke-dasharray="67.17407233098395,5.241041443165326" stroke-dashoffset="72.415114"/></g><g><path d="M3497.277 16.368l-18.775-5.798v32.669l3.129.961v.715c0 1.758.281 3.461.813 5.055l-3.942-1.209-16.71 5.688-.501.082c-.864 0-1.564-.615-1.564-1.374V11.614c0-.632.469-1.126 1.126-1.318l17.649-5.221 18.775 5.77 16.71-5.77h.5c.864 0 1.565.615 1.565 1.374v25.58c-3.661-3.078-8.605-4.973-14.082-4.973-1.564 0-3.129.164-4.693.467z" fill="#000000"/><path d="M3496.5 29.75c-2.486-.008-4.912.741-6.926 2.136-2.014 1.395-3.514 3.367-4.284 5.631-.77 2.263-.77 4.703 0 6.966.77 2.264 2.27 4.236 4.284 5.631 2.014 1.395 4.44 2.144 6.926 2.136 2.486.008 4.912-.741 6.926-2.136 2.014-1.395 3.514-3.367 4.284-5.631.77-2.263.77-4.703 0-6.966-.77-2.264-2.27-4.236-4.284-5.631-2.014-1.395-4.44-2.144-6.926-2.136zm16.5 29l-9.25-9.75" fill="none" stroke="#81b6f4" stroke-width="4"/></g></svg>