<svg xmlns="http://www.w3.org/2000/svg" viewBox="0 0 3520 64" width="3520" height="64"><path d="M25.298 25.111l1.646 2.607-15.893 25.124h-1.61v-2.551l15.857-25.18m0-7.792L5.94 47.989v10.399h6.564l19.358-30.67z" fill="#000000"/><path d="M30.022 9.131c-.121.048-.218.066-.219.042 0-.025-.033.008-.076.068-.042.06-.079.083-.079.05-.002-.117-.343.349-.76 1.038-.234.385-.425.663-.425.619 0-.043-.627.983-1.39 2.283-.763 1.3-1.389 2.404-1.388 2.451.001.119 6.78 10.929 6.816 10.869.015-.026.072.029.125.123.053.094.124.172.155.171.059-.002 2.597-4.318 3.242-5.511.459-.852.545-1.21.536-2.171-.007-.719-.087-1.431-.169-1.489-.021-.015-.229-.35-.461-.747-1.009-1.729-4.597-7.413-4.765-7.549-.273-.222-.876-.353-1.142-.247z" fill="#81b6f4"/><path d="M53.923 59.075L6.125 58.95" fill="none" stroke="#000000" stroke-width=".947199" stroke-dasharray="0,47.79816344798198" stroke-dashoffset="47.798163"/><path d="M89.413 25.088l1.651 2.601-15.825 25.145-1.609.004-.006-2.55 15.789-25.2m-.018-7.787L70.12 47.996l.024 10.392 6.56-.015 19.275-30.695z" fill="#000000"/><path d="M94.097 9.107c-.12.048-.217.067-.218.043 0-.025-.033.008-.076.068-.042.06-.079.083-.079.05-.002-.117-.342.35-.757 1.039-.233.385-.423.664-.423.62 0-.043-.625.983-1.384 2.284-.76 1.301-1.383 2.406-1.382 2.453.002.119 6.801 10.906 6.837 10.846.015-.026.072.029.125.123.053.094.124.172.155.17.059-.002 2.586-4.321 3.228-5.514.456-.853.542-1.211.53-2.171-.008-.719-.09-1.43-.172-1.488-.021-.015-.23-.349-.462-.745-1.013-1.726-4.612-7.398-4.78-7.534-.273-.221-.876-.35-1.142-.244z" fill="#81b6f4"/><path d="M117.923 59.075l-47.798-.125" fill="none" stroke="#000000" stroke-width=".947199" stroke-dasharray="0,47.79816344798198" stroke-dashoffset="47.798163"/><path d="M153.759 25.018l1.666 2.585-15.621 25.206-1.606.015-.023-2.544 15.584-25.262m-.072-7.772l-19.025 30.77.096 10.372 6.547-.06 19.025-30.77z" fill="#000000"/><path d="M158.324 9.036c-.12.049-.217.068-.218.044 0-.025-.033.008-.075.068-.042.061-.078.084-.079.051-.003-.117-.339.351-.748 1.042-.23.386-.418.665-.418.622-.001-.043-.617.986-1.366 2.29-.749 1.303-1.363 2.41-1.362 2.457.002.119 6.864 10.838 6.899 10.778.015-.026.072.028.126.122.053.093.125.17.156.169.059-.003 2.55-4.331 3.183-5.527.45-.854.532-1.212.514-2.17-.013-.717-.1-1.427-.182-1.484-.021-.015-.231-.347-.467-.741-1.022-1.715-4.653-7.351-4.822-7.485-.274-.219-.877-.344-1.141-.236z" fill="#81b6f4"/><path d="M181.923 59.075l-47.798-.125" fill="none" stroke="#000000" stroke-width=".947199" stroke-dasharray="0,47.79816344798198" stroke-dashoffset="47.798163"/><path d="M218.336 24.902l1.69 2.558-15.28 25.308-1.601.034-.053-2.537 15.244-25.363m-.162-7.746l-18.61 30.893.216 10.339 6.526-.136 18.61-30.894z" fill="#000000"/><path d="M222.701 8.917c-.119.05-.215.07-.217.046 0-.025-.032.009-.074.069-.04.061-.077.085-.077.052-.005-.116-.334.354-.735 1.048-.224.387-.408.668-.409.624-.001-.043-.603.99-1.335 2.298-.731 1.309-1.331 2.419-1.329 2.466.003.118 6.967 10.725 7.002 10.665.014-.026.072.027.127.119.054.093.126.169.157.167.059-.003 2.493-4.347 3.109-5.546.439-.857.517-1.214.488-2.17-.022-.714-.116-1.42-.199-1.476-.021-.015-.235-.344-.473-.734-1.039-1.698-4.725-7.274-4.894-7.406-.276-.215-.879-.333-1.141-.222z" fill="#81b6f4"/><path d="M245.923 59.075l-47.798-.125" fill="none" stroke="#000000" stroke-width=".947199" stroke-dasharray="0,47.79816344798198" stroke-dashoffset="47.798163"/><path d="M283.143 24.74l1.725 2.52-14.804 25.451-1.593.059-.094-2.525 14.766-25.505m-.287-7.712l-18.029 31.068.383 10.292 6.497-.242 18.028-31.068z" fill="#000000"/><path d="M287.229 8.751c-.118.052-.213.073-.215.049-.001-.025-.032.009-.073.07-.039.061-.075.085-.076.053-.006-.116-.327.358-.714 1.055-.217.39-.396.672-.398.628-.001-.042-.584.996-1.291 2.311-.708 1.315-1.286 2.43-1.284 2.477.006.118 7.113 10.567 7.147 10.506.014-.026.072.026.128.117.056.091.129.166.16.164.058-.005 2.411-4.37 3.005-5.574.423-.86.495-1.218.451-2.169-.034-.711-.139-1.413-.222-1.467-.022-.014-.24-.338-.484-.722-1.063-1.674-4.823-7.168-4.994-7.296-.279-.21-.88-.317-1.14-.202z" fill="#81b6f4"/><path d="M309.923 59.075l-47.798-.125" fill="none" stroke="#000000" stroke-width=".947199" stroke-dasharray="0,47.79816344798198" stroke-dashoffset="47.798163"/><path d="M348.181 24.532l1.769 2.47-14.191 25.635-1.584.093-.147-2.51 14.153-25.688m-.449-7.667l-17.281 31.291.599 10.232 6.458-.378 17.281-31.291z" fill="#000000"/><path d="M351.908 8.537c-.116.054-.21.077-.213.053-.001-.024-.032.01-.07.072-.038.061-.073.086-.075.054-.009-.115-.318.363-.688 1.065-.208.392-.38.676-.383.633-.002-.042-.56 1.003-1.236 2.326-.676 1.324-1.228 2.446-1.225 2.492.008.117 7.301 10.363 7.333 10.302.013-.027.072.024.13.114.057.089.131.162.162.159.058-.005 2.307-4.398 2.872-5.609.403-.865.467-1.222.403-2.167-.048-.707-.168-1.403-.252-1.455-.022-.014-.246-.332-.497-.709-1.092-1.643-4.95-7.029-5.123-7.153-.281-.203-.882-.297-1.138-.177z" fill="#81b6f4"/><path d="M373.923 59.075l-47.798-.125" fill="none" stroke="#000000" stroke-width=".947199" stroke-dasharray="0,47.79816344798198" stroke-dashoffset="47.798163"/><path d="M413.449 24.277l1.824 2.41-13.442 25.86-1.573.133-.211-2.492 13.402-25.911m-.646-7.612L396.436 48.23l.862 10.158 6.412-.544 16.367-31.565z" fill="#000000"/><path d="M416.738 8.275c-.114.057-.207.083-.21.059-.002-.024-.032.011-.069.073-.036.062-.07.088-.073.055-.011-.114-.306.37-.656 1.077-.197.396-.36.683-.364.64-.003-.042-.531 1.012-1.168 2.346-.638 1.333-1.158 2.463-1.153 2.509.011.116 7.529 10.114 7.559 10.052.013-.027.073.022.133.11.059.087.135.158.165.154.058-.007 2.179-4.433 2.71-5.652.378-.87.432-1.227.344-2.165-.067-.702-.204-1.391-.289-1.441-.022-.013-.252-.323-.512-.691-1.129-1.606-5.105-6.86-5.28-6.979-.286-.194-.886-.273-1.137-.147z" fill="#81b6f4"/><path d="M437.923 59.075l-47.798-.125" fill="none" stroke="#000000" stroke-width=".947199" stroke-dasharray="0,47.79816344798198" stroke-dashoffset="47.798163"/><path d="M478.948 23.976l1.888 2.338-12.557 26.126-1.559.182-.288-2.471 12.516-26.175m-.88-7.547l-15.286 31.888 1.173 10.071 6.357-.741 15.287-31.887z" fill="#000000"/><path d="M481.719 7.966c-.111.06-.203.089-.207.065-.003-.024-.031.012-.066.075-.034.063-.067.089-.071.057-.015-.113-.292.377-.619 1.091-.183.399-.336.69-.341.648-.005-.042-.497 1.022-1.089 2.368-.592 1.345-1.074 2.484-1.068 2.53.015.115 7.8 9.819 7.828 9.757.012-.027.073.02.135.105.062.085.139.153.17.148.056-.008 2.027-4.475 2.517-5.703.349-.877.392-1.233.274-2.163-.087-.696-.245-1.376-.331-1.423-.022-.012-.261-.313-.531-.671-1.172-1.561-5.289-6.661-5.467-6.774-.289-.184-.888-.243-1.134-.11z" fill="#81b6f4"/><path d="M501.923 59.075l-47.798-.125" fill="none" stroke="#000000" stroke-width=".947199" stroke-dasharray="0,47.79816344798198" stroke-dashoffset="47.798163"/><path d="M544.677 23.628l1.963 2.257-11.536 26.432-1.544.237-.376-2.446 11.493-26.48m-1.148-7.472l-14.041 32.261 1.533 9.971 6.294-.967 14.04-32.261z" fill="#000000"/><path d="M546.851 7.609c-.108.064-.199.096-.203.073-.004-.024-.031.012-.063.076s-.064.091-.069.06c-.019-.112-.277.385-.576 1.107-.167.404-.309.698-.316.656-.006-.041-.456 1.035-.996 2.394-.54 1.359-.977 2.51-.97 2.555.019.114 8.112 9.479 8.138 9.417.01-.028.073.017.138.099.065.083.144.147.174.141.056-.01 1.853-4.523 2.296-5.762.314-.884.344-1.24.194-2.16-.113-.689-.295-1.36-.382-1.403-.022-.011-.271-.302-.552-.648-1.222-1.509-5.5-6.431-5.681-6.536-.295-.173-.892-.209-1.132-.069z" fill="#81b6f4"/><path d="M565.923 59.075l-47.798-.125" fill="none" stroke="#000000" stroke-width=".947199" stroke-dasharray="0,47.79816344798198" stroke-dashoffset="47.798163"/><path d="M610.637 23.234l2.047 2.164-10.378 26.779-1.526.301-.476-2.418 10.333-26.826m-1.453-7.386l-12.628 32.683 1.94 9.857 6.222-1.224 12.627-32.683z" fill="#000000"/><path d="M612.134 7.205c-.105.068-.195.103-.199.081-.005-.024-.031.013-.06.078-.029.065-.059.094-.066.063-.023-.111-.259.394-.527 1.125-.149.409-.279.708-.287.666-.008-.041-.411 1.049-.892 2.424-.48 1.374-.868 2.537-.858 2.582.023.113 8.466 9.094 8.489 9.031.009-.028.073.014.141.093.068.08.149.14.179.133.055-.012 1.656-4.577 2.045-5.828.276-.893.291-1.249.103-2.158-.141-.681-.35-1.34-.438-1.38-.023-.01-.282-.289-.576-.622-1.279-1.451-5.741-6.169-5.925-6.267-.301-.159-.897-.171-1.129-.021z" fill="#81b6f4"/><path d="M629.923 59.075l-47.798-.125" fill="none" stroke="#000000" stroke-width=".947199" stroke-dasharray="0,47.79816344798198" stroke-dashoffset="47.798163"/><path d="M676.828 22.794l2.14 2.06-9.084 27.168-1.507.371-.587-2.387 9.038-27.212m-1.794-7.291l-11.05 33.155 2.395 9.73 6.142-1.512 11.049-33.155z" fill="#000000"/><path d="M677.568 6.753c-.102.073-.189.112-.195.09-.006-.023-.03.015-.056.081-.025.066-.055.096-.062.065-.029-.109-.241.406-.473 1.147-.13.414-.244.717-.255.676-.01-.04-.36 1.064-.774 2.457-.415 1.392-.746 2.569-.735 2.613.029.111 8.861 8.664 8.881 8.6.008-.028.074.01.146.086.071.076.155.133.184.124.055-.015 1.436-4.638 1.764-5.903.233-.903.231-1.257.002-2.154-.172-.672-.411-1.319-.501-1.355-.024-.009-.295-.274-.604-.593-1.342-1.385-6.008-5.877-6.197-5.965-.306-.145-.901-.129-1.125.031z" fill="#81b6f4"/><path d="M693.923 59.075l-47.798-.125" fill="none" stroke="#000000" stroke-width=".947199" stroke-dasharray="0,47.79816344798198" stroke-dashoffset="47.798163"/><path d="M743.25 22.307l2.244 1.945-7.655 27.597-1.485.449-.711-2.352 7.607-27.639m-2.172-7.186l-9.304 33.677 2.897 9.59 6.053-1.829 9.305-33.677z" fill="#000000"/><path d="M743.152 6.254c-.097.078-.183.122-.19.099-.007-.022-.028.017-.051.085-.022.067-.05.098-.059.068-.034-.107-.219.417-.412 1.169-.108.42-.207.729-.219.689-.012-.04-.304 1.081-.646 2.493-.341 1.412-.611 2.603-.597 2.647.035.109 9.298 8.188 9.315 8.124.006-.029.075.006.15.078s.161.124.19.114c.054-.018 1.192-4.705 1.453-5.985.187-.914.166-1.267-.11-2.151-.206-.662-.479-1.296-.571-1.326-.023-.008-.308-.259-.633-.561-1.412-1.313-6.305-5.555-6.498-5.633-.313-.129-.906-.082-1.122.09z" fill="#81b6f4"/><path d="M757.923 59.075l-47.798-.125" fill="none" stroke="#000000" stroke-width=".947199" stroke-dasharray="0,47.79816344798198" stroke-dashoffset="47.798163"/><path d="M809.902 21.774l2.357 1.819-6.089 28.068-1.461.534-.846-2.315 6.039-28.106m-2.585-7.071l-7.393 34.249 3.448 9.436 5.956-2.177 7.394-34.249z" fill="#000000"/><path d="M808.888 5.707c-.094.084-.176.133-.185.11-.008-.022-.027.019-.046.088-.018.068-.045.101-.055.071-.041-.105-.196.431-.346 1.195-.085.426-.165.741-.18.702-.015-.039-.243 1.099-.504 2.532-.262 1.434-.463 2.642-.447 2.685.041.107 9.776 7.668 9.789 7.602.005-.029.076.002.155.07.079.067.169.115.197.103.053-.021.925-4.779 1.113-6.076.135-.925.094-1.277-.233-2.147-.244-.65-.553-1.27-.647-1.295-.024-.007-.324-.241-.666-.525-1.489-1.234-6.629-5.202-6.827-5.269-.321-.111-.912-.03-1.118.154z" fill="#81b6f4"/><path d="M821.923 59.075l-47.798-.125" fill="none" stroke="#000000" stroke-width=".947199" stroke-dasharray="0,47.79816344798198" stroke-dashoffset="47.798163"/><path d="M876.784 21.195l2.481 1.682-4.386 28.578-1.435.628-.993-2.274 4.333-28.614m-3.033-6.946l-5.316 34.87 4.047 9.269 5.851-2.555 5.316-34.87z" fill="#000000"/><path d="M874.774 5.113c-.088.09-.169.144-.178.122-.01-.022-.027.02-.042.09-.014.07-.038.105-.051.076-.047-.103-.169.444-.274 1.221-.058.434-.12.756-.137.717-.017-.039-.176 1.12-.351 2.576-.174 1.456-.302 2.683-.283 2.725.048.105 10.297 7.101 10.306 7.035.003-.03.076-.003.16.06.083.063.176.105.204.092.052-.024.634-4.859.744-6.174.078-.937.015-1.289-.367-2.143-.286-.639-.634-1.242-.73-1.261-.025-.006-.34-.223-.701-.487-1.573-1.148-6.983-4.818-7.185-4.873-.331-.092-.919.026-1.115.224z" fill="#81b6f4"/><path d="M885.923 59.075l-47.798-.125" fill="none" stroke="#000000" stroke-width=".947199" stroke-dasharray="0,47.79816344798198" stroke-dashoffset="47.798163"/><path d="M943.897 20.569l2.615 1.535-2.549 29.13-1.407.727-1.151-2.229 2.492-29.163m-3.517-6.81L937.307 49.3l4.694 9.088 5.736-2.963 3.073-35.541z" fill="#000000"/><path d="M940.812 4.471c-.084.096-.162.156-.172.135-.012-.022-.026.022-.036.094-.01.071-.032.108-.047.08-.054-.102-.142.459-.196 1.25-.03.442-.072.77-.092.732-.02-.037-.104 1.142-.184 2.623-.08 1.481-.129 2.727-.107 2.769.055.103 10.859 6.49 10.864 6.422.001-.03.076-.008.165.051.088.058.185.094.212.078.05-.027.321-4.945.345-6.279.017-.951-.069-1.302-.511-2.139-.33-.626-.722-1.211-.82-1.225-.025-.003-.358-.202-.74-.445-1.662-1.055-7.363-4.403-7.572-4.446-.339-.07-.925.087-1.109.3z" fill="#81b6f4"/><path d="M949.923 59.075l-47.798-.125" fill="none" stroke="#000000" stroke-width=".947199" stroke-dasharray="0.19704588849900634,47.60111755948297" stroke-dashoffset="47.798163"/><path d="M1011.241 19.897l2.758 1.376-.574 29.723-1.377.835-1.322-2.182.515-29.752m-4.038-6.665l-.663 36.262 5.388 8.894 5.614-3.401.663-36.262z" fill="#000000"/><path d="M1007 3.781c-.078.104-.153.17-.165.149-.013-.021-.025.024-.03.098-.005.073-.025.112-.042.084-.062-.099-.112.476-.113 1.282 0 .45-.019.786-.042.749-.023-.037-.027 1.165-.006 2.673.021 1.508.058 2.775.083 2.816.063.101 11.462 5.833 11.462 5.764-.001-.031.077-.013.171.04.094.053.194.083.221.065.049-.031-.016-5.038-.084-6.393-.048-.966-.16-1.316-.666-2.134-.378-.612-.816-1.179-.916-1.186-.026-.002-.377-.18-.781-.4-1.759-.956-7.773-3.958-7.987-3.987-.349-.048-.933.152-1.105.38z" fill="#81b6f4"/><path d="M1013.923 59.075l-47.798-.125" fill="none" stroke="#000000" stroke-width=".947199" stroke-dasharray="1.1244509420805404,46.67371250590144" stroke-dashoffset="47.798163"/><path d="M1074.965 19.952l2.746 1.39-.737 29.674-1.379.826-1.308-2.186.678-29.704m-3.995-6.677l-.862 36.203 5.331 8.91 5.624-3.365.862-36.202z" fill="#000000"/><path d="M1070.819 3.838c-.078.103-.153.169-.165.148-.013-.021-.025.024-.031.097-.005.073-.025.112-.042.084-.061-.099-.115.475-.12 1.28-.002.449-.023.784-.046.747-.023-.037-.033 1.163-.021 2.669.013 1.506.043 2.771.068 2.812.062.101 11.412 5.887 11.412 5.818-.001-.031.077-.012.171.041.093.054.193.084.22.066.049-.03.012-5.03-.049-6.383-.042-.965-.152-1.315-.653-2.135-.374-.613-.808-1.181-.908-1.189-.026-.002-.375-.182-.778-.403-1.751-.965-7.739-3.995-7.952-4.025-.348-.05-.933.146-1.106.373z" fill="#81b6f4"/><path d="M1077.923 59.075l-47.798-.125" fill="none" stroke="#000000" stroke-width=".947199" stroke-dasharray="3.108028311385437,44.690135136596545" stroke-dashoffset="47.798163"/><path d="M1137.946 20.157l2.702 1.438-1.339 29.493-1.388.793-1.256-2.2 1.281-29.524m-3.837-6.721l-1.596 35.983 5.119 8.969 5.661-3.231 1.597-35.983z" fill="#000000"/><path d="M1134.152 4.048c-.08.101-.156.165-.167.144-.013-.021-.026.023-.033.096-.007.073-.027.111-.044.083-.059-.1-.123.469-.145 1.269-.012.447-.039.78-.061.743-.022-.037-.057 1.156-.075 2.653-.018 1.498-.014 2.757.009 2.798.06.102 11.229 6.088 11.23 6.019 0-.031.077-.011.169.044.092.055.191.088.218.071.049-.03.114-5.002.082-6.349-.023-.961-.125-1.311-.606-2.136-.36-.618-.78-1.192-.879-1.201-.025-.003-.369-.189-.765-.418-1.721-.994-7.614-4.13-7.826-4.165-.345-.056-.93.127-1.107.349z" fill="#81b6f4"/><path d="M1141.923 59.075l-47.798-.125" fill="none" stroke="#000000" stroke-width=".947199" stroke-dasharray="6.594009082104289,41.20415436587769" stroke-dashoffset="47.798163"/><path d="M1199.766 20.595l2.609 1.541-2.626 29.107-1.408.723-1.145-2.231 2.57-29.14m-3.497-6.816l-3.167 35.513 4.666 9.096 5.741-2.945 3.167-35.513z" fill="#000000"/><path d="M1196.726 4.498c-.084.096-.162.156-.172.134-.012-.021-.026.022-.037.094-.009.072-.032.108-.046.08-.054-.102-.143.459-.2 1.249-.032.441-.074.77-.093.732-.02-.038-.108 1.14-.192 2.62-.084 1.481-.136 2.726-.114 2.767.055.104 10.835 6.516 10.84 6.448.001-.03.076-.007.165.051.088.059.184.095.212.08.05-.028.334-4.942.361-6.275.02-.951-.065-1.302-.505-2.139-.328-.627-.718-1.213-.816-1.227-.025-.004-.357-.203-.738-.446-1.658-1.06-7.347-4.421-7.555-4.464-.339-.072-.926.084-1.11.296z" fill="#81b6f4"/><path d="M1205.923 59.075l-47.798-.125" fill="none" stroke="#000000" stroke-width=".947199" stroke-dasharray="11.957248682913196,35.84091476506878" stroke-dashoffset="47.798163"/><g><path d="M1260.027 21.347l2.449 1.718-4.833 28.444-1.442.603-.954-2.284 4.78-28.481m-2.915-6.979l-5.861 34.708 3.89 9.312 5.878-2.455 5.861-34.707z" fill="#000000"/><path d="M1258.279 5.269c-.09.088-.171.141-.18.119-.009-.022-.027.019-.043.089-.015.07-.04.104-.052.075-.045-.104-.176.441-.293 1.214-.065.432-.132.752-.148.713-.017-.039-.194 1.114-.391 2.565-.197 1.45-.344 2.671-.326 2.714.046.106 10.16 7.25 10.17 7.184.003-.03.076-.002.158.063.083.064.175.107.203.094.052-.023.71-4.838.841-6.148.093-.934.036-1.286-.332-2.144-.275-.642-.613-1.249-.708-1.27-.025-.006-.336-.227-.692-.497-1.551-1.171-6.89-4.918-7.092-4.977-.327-.096-.917.012-1.115.206z" fill="#81b6f4"/><path d="M1269.923 59.075l-47.798-.125" fill="none" stroke="#000000" stroke-width=".947199" stroke-dasharray="18.710747226171378,29.087416221810596" stroke-dashoffset="47.798163"/></g><g><path d="M1319.379 22.281l2.249 1.939-7.579 27.62-1.483.453-.718-2.35 7.531-27.662m-2.192-7.18l-9.211 33.705 2.924 9.582 6.048-1.846 9.212-33.705z" fill="#000000"/><path d="M1319.237 6.227c-.098.079-.183.123-.19.1-.007-.022-.029.017-.051.085-.022.067-.05.098-.059.068-.034-.107-.217.418-.409 1.171-.107.42-.204.729-.217.689-.012-.04-.301 1.082-.639 2.495-.337 1.413-.603 2.605-.589 2.649.034.109 9.321 8.163 9.337 8.098.007-.029.075.006.15.078.076.072.162.124.191.114.054-.018 1.179-4.709 1.437-5.99.184-.914.162-1.268-.116-2.151-.209-.661-.483-1.294-.575-1.325-.024-.008-.309-.257-.635-.558-1.416-1.31-6.32-5.538-6.513-5.616-.315-.128-.907-.079-1.122.093z" fill="#81b6f4"/><path d="M1333.923 59.075l-47.798-.125" fill="none" stroke="#000000" stroke-width=".947199" stroke-dasharray="25.313331782877132,22.484831665104846" stroke-dashoffset="47.798163"/></g><g><path d="M1379.323 23.096l2.075 2.132-9.973 26.901-1.52.322-.511-2.408 9.929-26.947m-1.561-7.356l-12.134 32.831 2.082 9.817 6.197-1.314 12.134-32.831z" fill="#000000"/><path d="M1380.582 7.064c-.104.069-.192.106-.198.083-.005-.023-.03.014-.058.08-.028.065-.058.094-.065.063-.025-.11-.253.398-.51 1.132-.143.41-.268.711-.277.669-.009-.04-.395 1.054-.855 2.434-.46 1.38-.83 2.547-.819 2.592.024.112 8.589 8.96 8.611 8.896.009-.027.074.013.143.091.068.079.151.138.18.13.055-.013 1.587-4.596 1.957-5.851.263-.896.272-1.251.071-2.157-.15-.678-.368-1.334-.457-1.372-.023-.01-.286-.284-.585-.613-1.299-1.43-5.824-6.078-6.01-6.173-.302-.154-.898-.157-1.128-.004z" fill="#81b6f4"/><path d="M1397.923 59.075l-47.798-.125" fill="none" stroke="#000000" stroke-width=".947199" stroke-dasharray="30.76916482992483,17.028998618057148" stroke-dashoffset="47.798163"/></g><g><path d="M1440.303 23.703l1.947 2.275-11.757 26.366-1.547.225-.357-2.451 11.714-26.415m-1.09-7.488l-14.31 32.18 1.455 9.993 6.308-.918 14.309-32.18z" fill="#000000"/><path d="M1442.607 7.686c-.11.063-.201.094-.205.071-.003-.024-.031.013-.063.076-.032.064-.065.091-.069.06-.019-.113-.281.383-.586 1.103-.17.403-.315.697-.321.654-.006-.041-.465 1.033-1.017 2.389-.551 1.356-.998 2.504-.99 2.549.017.115 8.044 9.553 8.07 9.491.011-.027.074.018.138.1.064.083.143.148.172.143.057-.01 1.892-4.513 2.344-5.749.322-.883.355-1.239.212-2.161-.107-.69-.284-1.363-.371-1.408-.022-.011-.269-.304-.547-.653-1.212-1.52-5.455-6.48-5.635-6.587-.294-.175-.892-.217-1.132-.078z" fill="#81b6f4"/><path d="M1461.923 59.075l-47.798-.125" fill="none" stroke="#000000" stroke-width=".947199" stroke-dasharray="35.02613207467117,12.772031373310814" stroke-dashoffset="47.798163"/></g><g><path d="M1502.112 24.143l1.853 2.379-13.051 25.977-1.567.155-.245-2.482 13.01-26.029m-.749-7.582l-15.889 31.707 1 10.12 6.388-.631 15.888-31.708z" fill="#000000"/><path d="M1505.173 8.138c-.113.059-.206.086-.209.062-.003-.024-.032.011-.068.074-.035.062-.069.088-.072.056-.013-.114-.3.373-.64 1.083-.191.397-.35.686-.354.643-.004-.042-.516 1.017-1.133 2.356-.618 1.338-1.121 2.473-1.115 2.518.012.116 7.649 9.984 7.678 9.922.012-.027.073.021.134.108.06.086.137.155.167.151.057-.007 2.112-4.452 2.625-5.675.365-.873.414-1.229.313-2.164-.076-.699-.223-1.384-.308-1.433-.022-.012-.256-.318-.52-.682-1.149-1.586-5.187-6.772-5.363-6.888-.287-.19-.887-.259-1.135-.131z" fill="#81b6f4"/><path d="M1525.923 59.075l-47.798-.125" fill="none" stroke="#000000" stroke-width=".947199" stroke-dasharray="38.32028748033591,9.477875967646069" stroke-dashoffset="47.798163"/></g><g><path d="M1564.516 24.464l1.784 2.455-13.993 25.694-1.581.104-.164-2.506 13.954-25.747m-.501-7.652l-17.039 31.364.668 10.212 6.446-.422 17.039-31.363z" fill="#000000"/><path d="M1568.128 8.467c-.116.055-.21.079-.212.056-.002-.025-.032.01-.071.071-.037.062-.072.087-.074.055-.01-.115-.315.364-.68 1.068-.205.393-.375.678-.377.635-.003-.042-.553 1.006-1.219 2.331-.666 1.326-1.209 2.45-1.205 2.497.008.116 7.36 10.297 7.392 10.235.013-.026.073.024.131.113.058.089.132.161.163.158.058-.006 2.273-4.407 2.829-5.62.396-.866.458-1.223.387-2.167-.053-.705-.177-1.4-.261-1.451-.022-.014-.248-.329-.501-.704-1.102-1.633-4.991-6.985-5.165-7.107-.282-.201-.883-.291-1.137-.17z" fill="#81b6f4"/><path d="M1589.923 59.075l-47.798-.125" fill="none" stroke="#000000" stroke-width=".947199" stroke-dasharray="40.87699782496873,6.921165623013246" stroke-dashoffset="47.798163"/></g><g><path d="M1627.353 24.698l1.734 2.509-14.679 25.489-1.591.066-.105-2.522 14.641-25.542m-.32-7.703l-17.876 31.113.426 10.28 6.489-.269 17.877-31.113z" fill="#000000"/><path d="M1631.367 8.707c-.118.053-.213.074-.215.051-.001-.025-.032.009-.072.07-.039.061-.075.085-.076.053-.007-.116-.325.359-.709 1.057-.215.39-.393.673-.394.629-.002-.042-.58.998-1.281 2.314-.701 1.317-1.274 2.434-1.271 2.48.006.118 7.151 10.525 7.184 10.465.014-.027.072.025.128.116.057.091.13.165.161.163.058-.005 2.39-4.375 2.978-5.581.419-.861.489-1.219.441-2.168-.036-.711-.145-1.411-.228-1.465-.022-.014-.241-.337-.487-.72-1.068-1.667-4.848-7.139-5.02-7.267-.279-.208-.88-.313-1.139-.197z" fill="#81b6f4"/><path d="M1653.923 59.075l-47.798-.125" fill="none" stroke="#000000" stroke-width=".947199" stroke-dasharray="42.86423790819425,4.933925539787728" stroke-dashoffset="47.798163"/></g><g><path d="M1690.519 24.866l1.698 2.549-15.172 25.34-1.599.039-.063-2.533 15.136-25.395m-.19-7.739L1671.85 48.06l.254 10.328 6.519-.16 18.478-30.933z" fill="#000000"/><path d="M1694.821 8.879c-.119.051-.215.071-.217.047 0-.024-.032.009-.074.07-.04.06-.076.084-.077.051-.005-.116-.332.355-.729 1.05-.223.388-.406.669-.407.625-.001-.043-.599.991-1.325 2.301s-1.321 2.422-1.319 2.468c.004.119 7 10.69 7.035 10.629.014-.026.072.027.127.119.055.092.127.168.158.166.058-.003 2.474-4.351 3.085-5.552.436-.857.512-1.215.48-2.169-.025-.714-.121-1.42-.204-1.475-.022-.015-.236-.342-.476-.731-1.045-1.692-4.747-7.25-4.917-7.381-.277-.214-.879-.329-1.14-.218z" fill="#81b6f4"/><path d="M1717.923 59.075l-47.798-.125" fill="none" stroke="#000000" stroke-width=".947199" stroke-dasharray="44.40227682432289,3.3958866236590906" stroke-dashoffset="47.798163"/></g><g><path d="M1753.94 24.982l1.673 2.577-15.514 25.237-1.604.021-.033-2.542 15.478-25.293m-.1-7.764l-18.896 30.808.133 10.362 6.541-.084 18.896-30.808z" fill="#000000"/><path d="M1758.442 8.999c-.12.049-.216.068-.218.044 0-.025-.033.009-.075.069-.041.06-.077.084-.078.051-.003-.117-.337.352-.744 1.044-.228.387-.415.666-.415.622-.001-.043-.612.988-1.356 2.293-.744 1.305-1.353 2.413-1.352 2.46.003.118 6.896 10.803 6.931 10.743.015-.027.072.028.126.121.054.093.126.169.157.168.059-.003 2.532-4.336 3.16-5.533.446-.855.527-1.213.506-2.17-.016-.716-.105-1.425-.187-1.482-.022-.014-.233-.345-.469-.738-1.028-1.71-4.676-7.327-4.845-7.461-.275-.218-.877-.34-1.141-.231z" fill="#81b6f4"/><path d="M1781.923 59.075l-47.798-.125" fill="none" stroke="#000000" stroke-width=".947199" stroke-dasharray="45.57794075222135,2.220222695760629" stroke-dashoffset="47.798163"/></g><g><path d="M1817.566 25.057l1.658 2.594-15.735 25.172-1.608.009-.013-2.548 15.698-25.227m-.042-7.78l-19.164 30.728.055 10.383 6.554-.035 19.165-30.728z" fill="#000000"/><path d="M1822.197 9.076c-.12.048-.217.067-.218.043 0-.025-.033.008-.076.068-.041.06-.078.083-.078.05-.003-.116-.341.351-.753 1.041-.232.386-.421.664-.422.62 0-.043-.62.985-1.375 2.287-.755 1.303-1.374 2.408-1.373 2.455.002.119 6.828 10.876 6.864 10.816.015-.026.072.029.125.123.054.093.125.171.156.169.059-.002 2.57-4.325 3.208-5.52.454-.853.538-1.211.523-2.17-.01-.718-.094-1.429-.176-1.486-.021-.015-.231-.348-.465-.744-1.016-1.721-4.629-7.377-4.798-7.512-.274-.22-.877-.348-1.142-.24z" fill="#81b6f4"/><path d="M1845.923 59.075l-47.798-.125" fill="none" stroke="#000000" stroke-width=".947199" stroke-dasharray="46.45523481533977,1.3429286326422059" stroke-dashoffset="47.798163"/></g><g><path d="M1881.361 25.098l1.649 2.604-15.856 25.135-1.609.003-.003-2.551 15.819-25.191m-.01-7.789l-19.312 30.684.013 10.395 6.562-.008 19.312-30.684z" fill="#000000"/><path d="M1886.063 9.118c-.12.048-.217.066-.218.042 0-.025-.033.008-.076.068-.042.06-.079.083-.079.05-.002-.117-.343.35-.759 1.039-.233.385-.424.663-.424.619 0-.043-.625.984-1.386 2.284-.761 1.301-1.386 2.405-1.385 2.452.001.119 6.792 10.917 6.828 10.857.015-.026.072.029.125.122.053.094.124.172.155.171.059-.002 2.59-4.32 3.234-5.513.458-.852.543-1.21.533-2.171-.008-.719-.089-1.43-.171-1.488-.021-.015-.229-.35-.462-.746-1.011-1.727-4.605-7.405-4.773-7.541-.273-.221-.876-.351-1.142-.245z" fill="#81b6f4"/><path d="M1909.923 59.075l-47.798-.125" fill="none" stroke="#000000" stroke-width=".947199" stroke-dasharray="47.08244001867012,0.7157234293118546" stroke-dashoffset="47.798163"/></g><g><path d="M1945.298 25.111l1.646 2.607-15.893 25.124h-1.61v-2.551l15.857-25.18m0-7.792l-19.358 30.67v10.399h6.564l19.358-30.67z" fill="#000000"/><path d="M1950.022 9.131c-.121.048-.218.066-.219.042 0-.025-.033.008-.076.068-.042.06-.079.083-.079.05-.002-.117-.343.349-.76 1.038-.234.385-.425.663-.425.619 0-.043-.627.983-1.39 2.283-.763 1.3-1.389 2.404-1.388 2.451.001.119 6.78 10.929 6.816 10.869.015-.026.072.029.125.123.053.094.124.172.155.171.059-.002 2.597-4.318 3.242-5.511.459-.852.545-1.21.536-2.171-.007-.719-.087-1.431-.169-1.489-.021-.015-.229-.35-.461-.747-1.009-1.729-4.597-7.413-4.765-7.549-.273-.222-.876-.353-1.142-.247z" fill="#81b6f4"/><path d="M1973.923 59.075l-47.798-.125" fill="none" stroke="#000000" stroke-width=".947199" stroke-dasharray="47.4967818406526,0.30138160732937264" stroke-dashoffset="47.798163"/></g><g><path d="M2009.298 25.111l1.646 2.607-15.893 25.124h-1.61v-2.551l15.857-25.18m0-7.792l-19.358 30.67v10.399h6.564l19.358-30.67z" fill="#000000"/><path d="M2014.022 9.131c-.121.048-.218.066-.219.042 0-.025-.033.008-.076.068-.042.06-.079.083-.079.05-.002-.117-.343.349-.76 1.038-.234.385-.425.663-.425.619 0-.043-.627.983-1.39 2.283-.763 1.3-1.389 2.404-1.388 2.451.001.119 6.78 10.929 6.816 10.869.015-.026.072.029.125.123.053.094.124.172.155.171.059-.002 2.597-4.318 3.242-5.511.459-.852.545-1.21.536-2.171-.007-.719-.087-1.431-.169-1.489-.021-.015-.229-.35-.461-.747-1.009-1.729-4.597-7.413-4.765-7.549-.273-.222-.876-.353-1.142-.247z" fill="#81b6f4"/><path d="M2037.923 59.075l-47.798-.125" fill="none" stroke="#000000" stroke-width=".947199" stroke-dasharray="47.725653967021465,0.07250948096050944" stroke-dashoffset="47.796281"/></g><g><path d="M2073.298 25.111l1.646 2.607-15.893 25.124h-1.61v-2.551l15.857-25.18m0-7.792l-19.358 30.67v10.399h6.564l19.358-30.67z" fill="#000000"/><path d="M2078.022 9.131c-.121.048-.218.066-.219.042 0-.025-.033.008-.076.068-.042.06-.079.083-.079.05-.002-.117-.343.349-.76 1.038-.234.385-.425.663-.425.619 0-.043-.627.983-1.39 2.283-.763 1.3-1.389 2.404-1.388 2.451.001.119 6.78 10.929 6.816 10.869.015-.026.072.029.125.123.053.094.124.172.155.171.059-.002 2.597-4.318 3.242-5.511.459-.852.545-1.21.536-2.171-.007-.719-.087-1.431-.169-1.489-.021-.015-.229-.35-.461-.747-1.009-1.729-4.597-7.413-4.765-7.549-.273-.222-.876-.353-1.142-.247z" fill="#81b6f4"/><path d="M2101.923 59.075l-47.798-.125" fill="none" stroke="#000000" stroke-width=".947199" stroke-dasharray="47.54927885981175,0.2488845881702249" stroke-dashoffset="47.549279"/></g><g><path d="M2137.298 25.111l1.646 2.607-15.893 25.124h-1.61v-2.551l15.857-25.18m0-7.792l-19.358 30.67v10.399h6.564l19.358-30.67z" fill="#000000"/><path d="M2142.022 9.131c-.121.048-.218.066-.219.042 0-.025-.033.008-.076.068-.042.06-.079.083-.079.05-.002-.117-.343.349-.76 1.038-.234.385-.425.663-.425.619 0-.043-.627.983-1.39 2.283-.763 1.3-1.389 2.404-1.388 2.451.001.119 6.78 10.929 6.816 10.869.015-.026.072.029.125.123.053.094.124.172.155.171.059-.002 2.597-4.318 3.242-5.511.459-.852.545-1.21.536-2.171-.007-.719-.087-1.431-.169-1.489-.021-.015-.229-.35-.461-.747-1.009-1.729-4.597-7.413-4.765-7.549-.273-.222-.876-.353-1.142-.247z" fill="#81b6f4"/><path d="M2165.923 59.075l-47.798-.125" fill="none" stroke="#000000" stroke-width=".947199" stroke-dasharray="46.798320122947175,0.9998433250348054" stroke-dashoffset="46.79832"/></g><g><path d="M2201.298 25.111l1.646 2.607-15.893 25.124h-1.61v-2.551l15.857-25.18m0-7.792l-19.358 30.67v10.399h6.564l19.358-30.67z" fill="#000000"/><path d="M2206.022 9.131c-.121.048-.218.066-.219.042 0-.025-.033.008-.076.068-.042.06-.079.083-.079.05-.002-.117-.343.349-.76 1.038-.234.385-.425.663-.425.619 0-.043-.627.983-1.39 2.283-.763 1.3-1.389 2.404-1.388 2.451.001.119 6.78 10.929 6.816 10.869.015-.026.072.029.125.123.053.094.124.172.155.171.059-.002 2.597-4.318 3.242-5.511.459-.852.545-1.21.536-2.171-.007-.719-.087-1.431-.169-1.489-.021-.015-.229-.35-.461-.747-1.009-1.729-4.597-7.413-4.765-7.549-.273-.222-.876-.353-1.142-.247z" fill="#81b6f4"/><path d="M2229.923 59.075l-47.798-.125" fill="none" stroke="#000000" stroke-width=".947199" stroke-dasharray="45.37512307297716,2.4230403750048186" stroke-dashoffset="45.375123"/></g><g><path d="M2265.298 25.111l1.646 2.607-15.893 25.124h-1.61v-2.551l15.857-25.18m0-7.792l-19.358 30.67v10.399h6.564l19.358-30.67z" fill="#000000"/><path d="M2270.022 9.131c-.121.048-.218.066-.219.042 0-.025-.033.008-.076.068-.042.06-.079.083-.079.05-.002-.117-.343.349-.76 1.038-.234.385-.425.663-.425.619 0-.043-.627.983-1.39 2.283-.763 1.3-1.389 2.404-1.388 2.451.001.119 6.78 10.929 6.816 10.869.015-.026.072.029.125.123.053.094.124.172.155.171.059-.002 2.597-4.318 3.242-5.511.459-.852.545-1.21.536-2.171-.007-.719-.087-1.431-.169-1.489-.021-.015-.229-.35-.461-.747-1.009-1.729-4.597-7.413-4.765-7.549-.273-.222-.876-.353-1.142-.247z" fill="#81b6f4"/><path d="M2293.923 59.075l-47.798-.125" fill="none" stroke="#000000" stroke-width=".947199" stroke-dasharray="43.0497655110569,4.748397936925082" stroke-dashoffset="43.049766"/></g><g><path d="M2329.298 25.111l1.646 2.607-15.893 25.124h-1.61v-2.551l15.857-25.18m0-7.792l-19.358 30.67v10.399h6.564l19.358-30.67z" fill="#000000"/><path d="M2334.022 9.131c-.121.048-.218.066-.219.042 0-.025-.033.008-.076.068-.042.06-.079.083-.079.05-.002-.117-.343.349-.76 1.038-.234.385-.425.663-.425.619 0-.043-.627.983-1.39 2.283-.763 1.3-1.389 2.404-1.388 2.451.001.119 6.78 10.929 6.816 10.869.015-.026.072.029.125.123.053.094.124.172.155.171.059-.002 2.597-4.318 3.242-5.511.459-.852.545-1.21.536-2.171-.007-.719-.087-1.431-.169-1.489-.021-.015-.229-.35-.461-.747-1.009-1.729-4.597-7.413-4.765-7.549-.273-.222-.876-.353-1.142-.247z" fill="#81b6f4"/><path d="M2357.923 59.075l-47.798-.125" fill="none" stroke="#000000" stroke-width=".947199" stroke-dasharray="39.56381107701282,8.234352370969159" stroke-dashoffset="39.563811"/></g><g><path d="M2393.298 25.111l1.646 2.607-15.893 25.124h-1.61v-2.551l15.857-25.18m0-7.792l-19.358 30.67v10.399h6.564l19.358-30.67z" fill="#000000"/><path d="M2398.022 9.131c-.121.048-.218.066-.219.042 0-.025-.033.008-.076.068-.042.06-.079.083-.079.05-.002-.117-.343.349-.76 1.038-.234.385-.425.663-.425.619 0-.043-.627.983-1.39 2.283-.763 1.3-1.389 2.404-1.388 2.451.001.119 6.78 10.929 6.816 10.869.015-.026.072.029.125.123.053.094.124.172.155.171.059-.002 2.597-4.318 3.242-5.511.459-.852.545-1.21.536-2.171-.007-.719-.087-1.431-.169-1.489-.021-.015-.229-.35-.461-.747-1.009-1.729-4.597-7.413-4.765-7.549-.273-.222-.876-.353-1.142-.247z" fill="#81b6f4"/><path d="M2421.923 59.075l-47.798-.125" fill="none" stroke="#000000" stroke-width=".947199" stroke-dasharray="34.825617294171494,12.972546153810482" stroke-dashoffset="34.825617"/></g><g><path d="M2457.298 25.111l1.646 2.607-15.893 25.124h-1.61v-2.551l15.857-25.18m0-7.792l-19.358 30.67v10.399h6.564l19.358-30.67z" fill="#000000"/><path d="M2462.022 9.131c-.121.048-.218.066-.219.042 0-.025-.033.008-.076.068-.042.06-.079.083-.079.05-.002-.117-.343.349-.76 1.038-.234.385-.425.663-.425.619 0-.043-.627.983-1.39 2.283-.763 1.3-1.389 2.404-1.388 2.451.001.119 6.78 10.929 6.816 10.869.015-.026.072.029.125.123.053.094.124.172.155.171.059-.002 2.597-4.318 3.242-5.511.459-.852.545-1.21.536-2.171-.007-.719-.087-1.431-.169-1.489-.021-.015-.229-.35-.461-.747-1.009-1.729-4.597-7.413-4.765-7.549-.273-.222-.876-.353-1.142-.247z" fill="#81b6f4"/><path d="M2485.923 59.075l-47.798-.125" fill="none" stroke="#000000" stroke-width=".947199" stroke-dasharray="29.280513201141822,18.517650246840155" stroke-dashoffset="29.280513"/></g><g><path d="M2521.298 25.111l1.646 2.607-15.893 25.124h-1.61v-2.551l15.857-25.18m0-7.792l-19.358 30.67v10.399h6.564l19.358-30.67z" fill="#000000"/><path d="M2526.022 9.131c-.121.048-.218.066-.219.042 0-.025-.033.008-.076.068-.042.06-.079.083-.079.05-.002-.117-.343.349-.76 1.038-.234.385-.425.663-.425.619 0-.043-.627.983-1.39 2.283-.763 1.3-1.389 2.404-1.388 2.451.001.119 6.78 10.929 6.816 10.869.015-.026.072.029.125.123.053.094.124.172.155.171.059-.002 2.597-4.318 3.242-5.511.459-.852.545-1.21.536-2.171-.007-.719-.087-1.431-.169-1.489-.021-.015-.229-.35-.461-.747-1.009-1.729-4.597-7.413-4.765-7.549-.273-.222-.876-.353-1.142-.247z" fill="#81b6f4"/><path d="M2549.923 59.075l-47.798-.125" fill="none" stroke="#000000" stroke-width=".947199" stroke-dasharray="23.82157146001239,23.976591987969588" stroke-dashoffset="23.821571"/></g><g><path d="M2585.298 25.111l1.646 2.607-15.893 25.124h-1.61v-2.551l15.857-25.18m0-7.792l-19.358 30.67v10.399h6.564l19.358-30.67z" fill="#000000"/><path d="M2590.022 9.131c-.121.048-.218.066-.219.042 0-.025-.033.008-.076.068-.042.06-.079.083-.079.05-.002-.117-.343.349-.76 1.038-.234.385-.425.663-.425.619 0-.043-.627.983-1.39 2.283-.763 1.3-1.389 2.404-1.388 2.451.001.119 6.78 10.929 6.816 10.869.015-.026.072.029.125.123.053.094.124.172.155.171.059-.002 2.597-4.318 3.242-5.511.459-.852.545-1.21.536-2.171-.007-.719-.087-1.431-.169-1.489-.021-.015-.229-.35-.461-.747-1.009-1.729-4.597-7.413-4.765-7.549-.273-.222-.876-.353-1.142-.247z" fill="#81b6f4"/><path d="M2613.923 59.075l-47.798-.125" fill="none" stroke="#000000" stroke-width=".947199" stroke-dasharray="19.067539994415245,28.730623453566732" stroke-dashoffset="19.06754"/></g><g><path d="M2649.298 25.111l1.646 2.607-15.893 25.124h-1.61v-2.551l15.857-25.18m0-7.792l-19.358 30.67v10.399h6.564l19.358-30.67z" fill="#000000"/><path d="M2654.022 9.131c-.121.048-.218.066-.219.042 0-.025-.033.008-.076.068-.042.06-.079.083-.079.05-.002-.117-.343.349-.76 1.038-.234.385-.425.663-.425.619 0-.043-.627.983-1.39 2.283-.763 1.3-1.389 2.404-1.388 2.451.001.119 6.78 10.929 6.816 10.869.015-.026.072.029.125.123.053.094.124.172.155.171.059-.002 2.597-4.318 3.242-5.511.459-.852.545-1.21.536-2.171-.007-.719-.087-1.431-.169-1.489-.021-.015-.229-.35-.461-.747-1.009-1.729-4.597-7.413-4.765-7.549-.273-.222-.876-.353-1.142-.247z" fill="#81b6f4"/><path d="M2677.923 59.075l-47.798-.125" fill="none" stroke="#000000" stroke-width=".947199" stroke-dasharray="15.145695900016547,32.65246754796543" stroke-dashoffset="15.145696"/></g><g><path d="M2713.298 25.111l1.646 2.607-15.893 25.124h-1.61v-2.551l15.857-25.18m0-7.792l-19.358 30.67v10.399h6.564l19.358-30.67z" fill="#000000"/><path d="M2718.022 9.131c-.121.048-.218.066-.219.042 0-.025-.033.008-.076.068-.042.06-.079.083-.079.05-.002-.117-.343.349-.76 1.038-.234.385-.425.663-.425.619 0-.043-.627.983-1.39 2.283-.763 1.3-1.389 2.404-1.388 2.451.001.119 6.78 10.929 6.816 10.869.015-.026.072.029.125.123.053.094.124.172.155.171.059-.002 2.597-4.318 3.242-5.511.459-.852.545-1.21.536-2.171-.007-.719-.087-1.431-.169-1.489-.021-.015-.229-.35-.461-.747-1.009-1.729-4.597-7.413-4.765-7.549-.273-.222-.876-.353-1.142-.247z" fill="#81b6f4"/><path d="M2741.923 59.075l-47.798-.125" fill="none" stroke="#000000" stroke-width=".947199" stroke-dasharray="11.958768910560401,35.839394537421576" stroke-dashoffset="11.958769"/></g><g><path d="M2777.298 25.111l1.646 2.607-15.893 25.124h-1.61v-2.551l15.857-25.18m0-7.792l-19.358 30.67v10.399h6.564l19.358-30.67z" fill="#000000"/><path d="M2782.022 9.131c-.121.048-.218.066-.219.042 0-.025-.033.008-.076.068-.042.06-.079.083-.079.05-.002-.117-.343.349-.76 1.038-.234.385-.425.663-.425.619 0-.043-.627.983-1.39 2.283-.763 1.3-1.389 2.404-1.388 2.451.001.119 6.78 10.929 6.816 10.869.015-.026.072.029.125.123.053.094.124.172.155.171.059-.002 2.597-4.318 3.242-5.511.459-.852.545-1.21.536-2.171-.007-.719-.087-1.431-.169-1.489-.021-.015-.229-.35-.461-.747-1.009-1.729-4.597-7.413-4.765-7.549-.273-.222-.876-.353-1.142-.247z" fill="#81b6f4"/><path d="M2805.923 59.075l-47.798-.125" fill="none" stroke="#000000" stroke-width=".947199" stroke-dasharray="9.370936260328914,38.42722718765306" stroke-dashoffset="9.370936"/></g><g><path d="M2841.298 25.111l1.646 2.607-15.893 25.124h-1.61v-2.551l15.857-25.18m0-7.792l-19.358 30.67v10.399h6.564l19.358-30.67z" fill="#000000"/><path d="M2846.022 9.131c-.121.048-.218.066-.219.042 0-.025-.033.008-.076.068-.042.06-.079.083-.079.05-.002-.117-.343.349-.76 1.038-.234.385-.425.663-.425.619 0-.043-.627.983-1.39 2.283-.763 1.3-1.389 2.404-1.388 2.451.001.119 6.78 10.929 6.816 10.869.015-.026.072.029.125.123.053.094.124.172.155.171.059-.002 2.597-4.318 3.242-5.511.459-.852.545-1.21.536-2.171-.007-.719-.087-1.431-.169-1.489-.021-.015-.229-.35-.461-.747-1.009-1.729-4.597-7.413-4.765-7.549-.273-.222-.876-.353-1.142-.247z" fill="#81b6f4"/><path d="M2869.923 59.075l-47.798-.125" fill="none" stroke="#000000" stroke-width=".947199" stroke-dasharray="7.264575033365559,40.53358841461642" stroke-dashoffset="7.264575"/></g><g><path d="M2905.298 25.111l1.646 2.607-15.893 25.124h-1.61v-2.551l15.857-25.18m0-7.792l-19.358 30.67v10.399h6.564l19.358-30.67z" fill="#000000"/><path d="M2910.022 9.131c-.121.048-.218.066-.219.042 0-.025-.033.008-.076.068-.042.06-.079.083-.079.05-.002-.117-.343.349-.76 1.038-.234.385-.425.663-.425.619 0-.043-.627.983-1.39 2.283-.763 1.3-1.389 2.404-1.388 2.451.001.119 6.78 10.929 6.816 10.869.015-.026.072.029.125.123.053.094.124.172.155.171.059-.002 2.597-4.318 3.242-5.511.459-.852.545-1.21.536-2.171-.007-.719-.087-1.431-.169-1.489-.021-.015-.229-.35-.461-.747-1.009-1.729-4.597-7.413-4.765-7.549-.273-.222-.876-.353-1.142-.247z" fill="#81b6f4"/><path d="M2933.923 59.075l-47.798-.125" fill="none" stroke="#000000" stroke-width=".947199" stroke-dasharray="5.548049832494393,42.250113615487585" stroke-dashoffset="5.54805"/></g><g><path d="M2969.298 25.111l1.646 2.607-15.893 25.124h-1.61v-2.551l15.857-25.18m0-7.792l-19.358 30.67v10.399h6.564l19.358-30.67z" fill="#000000"/><path d="M2974.022 9.131c-.121.048-.218.066-.219.042 0-.025-.033.008-.076.068-.042.06-.079.083-.079.05-.002-.117-.343.349-.76 1.038-.234.385-.425.663-.425.619 0-.043-.627.983-1.39 2.283-.763 1.3-1.389 2.404-1.388 2.451.001.119 6.78 10.929 6.816 10.869.015-.026.072.029.125.123.053.094.124.172.155.171.059-.002 2.597-4.318 3.242-5.511.459-.852.545-1.21.536-2.171-.007-.719-.087-1.431-.169-1.489-.021-.015-.229-.35-.461-.747-1.009-1.729-4.597-7.413-4.765-7.549-.273-.222-.876-.353-1.142-.247z" fill="#81b6f4"/><path d="M2997.923 59.075l-47.798-.125" fill="none" stroke="#000000" stroke-width=".947199" stroke-dasharray="4.15160431947332,43.646559128508656" stroke-dashoffset="4.151604"/></g><g><path d="M3033.298 25.111l1.646 2.607-15.893 25.124h-1.61v-2.551l15.857-25.18m0-7.792l-19.358 30.67v10.399h6.564l19.358-30.67z" fill="#000000"/><path d="M3038.022 9.131c-.121.048-.218.066-.219.042 0-.025-.033.008-.076.068-.042.06-.079.083-.079.05-.002-.117-.343.349-.76 1.038-.234.385-.425.663-.425.619 0-.043-.627.983-1.39 2.283-.763 1.3-1.389 2.404-1.388 2.451.001.119 6.78 10.929 6.816 10.869.015-.026.072.029.125.123.053.094.124.172.155.171.059-.002 2.597-4.318 3.242-5.511.459-.852.545-1.21.536-2.171-.007-.719-.087-1.431-.169-1.489-.021-.015-.229-.35-.461-.747-1.009-1.729-4.597-7.413-4.765-7.549-.273-.222-.876-.353-1.142-.247z" fill="#81b6f4"/><path d="M3061.923 59.075l-47.798-.125" fill="none" stroke="#000000" stroke-width=".947199" stroke-dasharray="3.021959794458975,44.776203653523005" stroke-dashoffset="3.02196"/></g><g><path d="M3097.298 25.111l1.646 2.607-15.893 25.124h-1.61v-2.551l15.857-25.18m0-7.792l-19.358 30.67v10.399h6.564l19.358-30.67z" fill="#000000"/><path d="M3102.022 9.131c-.121.048-.218.066-.219.042 0-.025-.033.008-.076.068-.042.06-.079.083-.079.05-.002-.117-.343.349-.76 1.038-.234.385-.425.663-.425.619 0-.043-.627.983-1.39 2.283-.763 1.3-1.389 2.404-1.388 2.451.001.119 6.78 10.929 6.816 10.869.015-.026.072.029.125.123.053.094.124.172.155.171.059-.002 2.597-4.318 3.242-5.511.459-.852.545-1.21.536-2.171-.007-.719-.087-1.431-.169-1.489-.021-.015-.229-.35-.461-.747-1.009-1.729-4.597-7.413-4.765-7.549-.273-.222-.876-.353-1.142-.247z" fill="#81b6f4"/><path d="M3125.923 59.075l-47.798-.125" fill="none" stroke="#000000" stroke-width=".947199" stroke-dasharray="2.117915922038638,45.68024752594334" stroke-dashoffset="2.117916"/></g><g><path d="M3161.298 25.111l1.646 2.607-15.893 25.124h-1.61v-2.551l15.857-25.18m0-7.792l-19.358 30.67v10.399h6.564l19.358-30.67z" fill="#000000"/><path d="M3166.022 9.131c-.121.048-.218.066-.219.042 0-.025-.033.008-.076.068-.042.06-.079.083-.079.05-.002-.117-.343.349-.76 1.038-.234.385-.425.663-.425.619 0-.043-.627.983-1.39 2.283-.763 1.3-1.389 2.404-1.388 2.451.001.119 6.78 10.929 6.816 10.869.015-.026.072.029.125.123.053.094.124.172.155.171.059-.002 2.597-4.318 3.242-5.511.459-.852.545-1.21.536-2.171-.007-.719-.087-1.431-.169-1.489-.021-.015-.229-.35-.461-.747-1.009-1.729-4.597-7.413-4.765-7.549-.273-.222-.876-.353-1.142-.247z" fill="#81b6f4"/><path d="M3189.923 59.075l-47.798-.125" fill="none" stroke="#000000" stroke-width=".947199" stroke-dasharray="1.4071294764870612,46.39103397149491" stroke-dashoffset="1.407129"/></g><g><path d="M3225.298 25.111l1.646 2.607-15.893 25.124h-1.61v-2.551l15.857-25.18m0-7.792l-19.358 30.67v10.399h6.564l19.358-30.67z" fill="#000000"/><path d="M3230.022 9.131c-.121.048-.218.066-.219.042 0-.025-.033.008-.076.068-.042.06-.079.083-.079.05-.002-.117-.343.349-.76 1.038-.234.385-.425.663-.425.619 0-.043-.627.983-1.39 2.283-.763 1.3-1.389 2.404-1.388 2.451.001.119 6.78 10.929 6.816 10.869.015-.026.072.029.125.123.053.094.124.172.155.171.059-.002 2.597-4.318 3.242-5.511.459-.852.545-1.21.536-2.171-.007-.719-.087-1.431-.169-1.489-.021-.015-.229-.35-.461-.747-1.009-1.729-4.597-7.413-4.765-7.549-.273-.222-.876-.353-1.142-.247z" fill="#81b6f4"/><path d="M3253.923 59.075l-47.798-.125" fill="none" stroke="#000000" stroke-width=".947199" stroke-dasharray="0.8638207748938062,46.934342673088175" stroke-dashoffset=".863821"/></g><g><path d="M3289.298 25.111l1.646 2.607-15.893 25.124h-1.61v-2.551l15.857-25.18m0-7.792l-19.358 30.67v10.399h6.564l19.358-30.67z" fill="#000000"/><path d="M3294.022 9.131c-.121.048-.218.066-.219.042 0-.025-.033.008-.076.068-.042.06-.079.083-.079.05-.002-.117-.343.349-.76 1.038-.234.385-.425.663-.425.619 0-.043-.627.983-1.39 2.283-.763 1.3-1.389 2.404-1.388 2.451.001.119 6.78 10.929 6.816 10.869.015-.026.072.029.125.123.053.094.124.172.155.171.059-.002 2.597-4.318 3.242-5.511.459-.852.545-1.21.536-2.171-.007-.719-.087-1.431-.169-1.489-.021-.015-.229-.35-.461-.747-1.009-1.729-4.597-7.413-4.765-7.549-.273-.222-.876-.353-1.142-.247z" fill="#81b6f4"/><path d="M3317.923 59.075l-47.798-.125" fill="none" stroke="#000000" stroke-width=".947199" stroke-dasharray="0.4671430367050106,47.33102041127697" stroke-dashoffset=".467143"/></g><g><path d="M3353.298 25.111l1.646 2.607-15.893 25.124h-1.61v-2.551l15.857-25.18m0-7.792l-19.358 30.67v10.399h6.564l19.358-30.67z" fill="#000000"/><path d="M3358.022 9.131c-.121.048-.218.066-.219.042 0-.025-.033.008-.076.068-.042.06-.079.083-.079.05-.002-.117-.343.349-.76 1.038-.234.385-.425.663-.425.619 0-.043-.627.983-1.39 2.283-.763 1.3-1.389 2.404-1.388 2.451.001.119 6.78 10.929 6.816 10.869.015-.026.072.029.125.123.053.094.124.172.155.171.059-.002 2.597-4.318 3.242-5.511.459-.852.545-1.21.536-2.171-.007-.719-.087-1.431-.169-1.489-.021-.015-.229-.35-.461-.747-1.009-1.729-4.597-7.413-4.765-7.549-.273-.222-.876-.353-1.142-.247z" fill="#81b6f4"/><path d="M3381.923 59.075l-47.798-.125" fill="none" stroke="#000000" stroke-width=".947199" stroke-dasharray="0.20001271332667708,47.5981507346553" stroke-dashoffset=".200013"/></g><g><path d="M3417.298 25.111l1.646 2.607-15.893 25.124h-1.61v-2.551l15.857-25.18m0-7.792l-19.358 30.67v10.399h6.564l19.358-30.67z" fill="#000000"/><path d="M3422.022 9.131c-.121.048-.218.066-.219.042 0-.025-.033.008-.076.068-.042.06-.079.083-.079.05-.002-.117-.343.349-.76 1.038-.234.385-.425.663-.425.619 0-.043-.627.983-1.39 2.283-.763 1.3-1.389 2.404-1.388 2.451.001.119 6.78 10.929 6.816 10.869.015-.026.072.029.125.123.053.094.124.172.155.171.059-.002 2.597-4.318 3.242-5.511.459-.852.545-1.21.536-2.171-.007-.719-.087-1.431-.169-1.489-.021-.015-.229-.35-.461-.747-1.009-1.729-4.597-7.413-4.765-7.549-.273-.222-.876-.353-1.142-.247z" fill="#81b6f4"/><path d="M3445.923 59.075l-47.798-.125" fill="none" stroke="#000000" stroke-width=".947199" stroke-dasharray="0.04825953569794281,47.74990391228403" stroke-dashoffset=".04826"/></g><g><path d="M3481.298 25.111l1.646 2.607-15.893 25.124h-1.61v-2.551l15.857-25.18m0-7.792l-19.358 30.67v10.399h6.564l19.358-30.67z" fill="#000000"/><path d="M3486.022 9.131c-.121.048-.218.066-.219.042 0-.025-.033.008-.076.068-.042.06-.079.083-.079.05-.002-.117-.343.349-.76 1.038-.234.385-.425.663-.425.619 0-.043-.627.983-1.39 2.283-.763 1.3-1.389 2.404-1.388 2.451.001.119 6.78 10.929 6.816 10.869.015-.026.072.029.125.123.053.094.124.172.155.171.059-.002 2.597-4.318 3.242-5.511.459-.852.545-1.21.536-2.171-.007-.719-.087-1.431-.169-1.489-.021-.015-.229-.35-.461-.747-1.009-1.729-4.597-7.413-4.765-7.549-.273-.222-.876-.353-1.142-.247z" fill="#81b6f4"/><path d="M3509.923 59.075l-47.798-.125" fill="none" stroke="#000000" stroke-width=".947199" stroke-dasharray="0,47.79816344798198" stroke-dashoffset="47.798163"/></g></svg>