<svg xmlns="http://www.w3.org/2000/svg" viewBox="0 0 3520 64" width="3520" height="64"><path d="M39.594 3.875L57.125 20.6v33.45c0 3.079-2.616 5.575-5.844 5.575H16.219c-3.228 0-5.844-2.496-5.844-5.575V9.45c0-3.079 2.616-5.575 5.844-5.575h23.375M51.281 54.05V23.387H36.672V9.45H16.219v44.6h35.062" fill="#000000"/><path d="M30.629 45.247v-4.252h-6.981l5.571-5.314 5.57-5.314 5.57 5.314 5.571 5.314h-6.981v8.504h-8.32z" fill="#81b6f4"/><path d="M103.594 3.875L121.125 20.6v33.45c0 3.079-2.616 5.575-5.844 5.575H80.219c-3.228 0-5.844-2.496-5.844-5.575V9.45c0-3.079 2.616-5.575 5.844-5.575h23.375m11.687 50.175V23.387h-14.609V9.45H80.219v44.6h35.062" fill="#000000"/><path d="M94.629 45.3966v-4.252h-6.981l5.571-5.314 5.57-5.314 5.57 5.314 5.571 5.314h-6.981v8.504h-8.32z" fill="#81b6f4"/><path d="M167.594 3.875L185.125 20.6v33.45c0 3.079-2.616 5.575-5.844 5.575h-35.062c-3.228 0-5.844-2.496-5.844-5.575V9.45c0-3.079 2.616-5.575 5.844-5.575h23.375m11.687 50.175V23.387h-14.609V9.45h-20.453v44.6h35.062" fill="#000000"/><path d="M158.629 45.810928v-4.252h-6.981l5.571-5.314 5.57-5.314 5.57 5.314 5.571 5.314h-6.981v8.504h-8.32z" fill="#81b6f4"/><path d="M231.594 3.875L249.125 20.6v33.45c0 3.079-2.616 5.575-5.844 5.575h-35.062c-3.228 0-5.844-2.496-5.844-5.575V9.45c0-3.079 2.616-5.575 5.844-5.575h23.375m11.687 50.175V23.387h-14.609V9.45h-20.453v44.6h35.062" fill="#000000"/><path d="M222.629 46.438282v-4.252h-6.981l5.571-5.314 5.57-5.314 5.57 5.314 5.571 5.314h-6.981v8.504h-8.32z" fill="#81b6f4"/><path d="M295.594 3.875L313.125 20.6v33.45c0 3.079-2.616 5.575-5.844 5.575h-35.062c-3.228 0-5.844-2.496-5.844-5.575V9.45c0-3.079 2.616-5.575 5.844-5.575h23.375m11.687 50.175V23.387h-14.609V9.45h-20.453v44.6h35.062" fill="#000000"/><path d="M286.629 47.226954v-4.252h-6.981l5.571-5.314 5.57-5.314 5.57 5.314 5.571 5.314h-6.981v8.504h-8.32z" fill="#81b6f4"/><path d="M359.594 3.875L377.125 20.6v33.45c0 3.079-2.616 5.575-5.844 5.575h-35.062c-3.228 0-5.844-2.496-5.844-5.575V9.45c0-3.079 2.616-5.575 5.844-5.575h23.375m11.687 50.175V23.387h-14.609V9.45h-20.453v44.6h35.062" fill="#000000"/><path d="M350.629 48.125241v-4.252h-6.981l5.571-5.314 5.57-5.314 5.57 5.314 5.571 5.314h-6.981v8.504h-8.32z" fill="#81b6f4"/><path d="M423.594 3.875L441.125 20.6v33.45c0 3.079-2.616 5.575-5.844 5.575h-35.062c-3.228 0-5.844-2.496-5.844-5.575V9.45c0-3.079 2.616-5.575 5.844-5.575h23.375m11.687 50.175V23.387h-14.609V9.45h-20.453v44.6h35.062" fill="#000000"/><path d="M414.629 49.081438v-4.252h-6.981l5.571-5.314 5.57-5.314 5.57 5.314 5.571 5.314h-6.981v8.504h-8.32z" fill="#81b6f4"/><path d="M487.594 3.875L505.125 20.6v33.45c0 3.079-2.616 5.575-5.844 5.575h-35.062c-3.228 0-5.844-2.496-5.844-5.575V9.45c0-3.079 2.616-5.575 5.844-5.575h23.375m11.687 50.175V23.387h-14.609V9.45h-20.453v44.6h35.062" fill="#000000"/><path d="M478.629 50.043839v-4.252h-6.981l5.571-5.314 5.57-5.314 5.57 5.314 5.571 5.314h-6.981v8.504h-8.32z" fill="#81b6f4"/><path d="M551.594 3.875L569.125 20.6v33.45c0 3.079-2.616 5.575-5.844 5.575h-35.062c-3.228 0-5.844-2.496-5.844-5.575V9.45c0-3.079 2.616-5.575 5.844-5.575h23.375m11.687 50.175V23.387h-14.609V9.45h-20.453v44.6h35.062" fill="#000000"/><path d="M542.629 50.96074v-4.252h-6.981l5.571-5.314 5.57-5.314 5.57 5.314 5.571 5.314h-6.981v8.504h-8.32z" fill="#81b6f4"/><path d="M615.594 3.875L633.125 20.6v33.45c0 3.079-2.616 5.575-5.844 5.575h-35.062c-3.228 0-5.844-2.496-5.844-5.575V9.45c0-3.079 2.616-5.575 5.844-5.575h23.375m11.687 50.175V23.387h-14.609V9.45h-20.453v44.6h35.062" fill="#000000"/><path d="M606.629 51.780435v-4.252h-6.981l5.571-5.314 5.57-5.314 5.57 5.314 5.571 5.314h-6.981v8.504h-8.32z" fill="#81b6f4"/><path d="M679.594 3.875L697.125 20.6v33.45c0 3.079-2.616 5.575-5.844 5.575h-35.062c-3.228 0-5.844-2.496-5.844-5.575V9.45c0-3.079 2.616-5.575 5.844-5.575h23.375m11.687 50.175V23.387h-14.609V9.45h-20.453v44.6h35.062" fill="#000000"/><path d="M670.629 52.45122v-4.252h-6.981l5.571-5.314 5.57-5.314 5.57 5.314 5.571 5.314h-6.981v8.504h-8.32z" fill="#81b6f4"/><path d="M743.594 3.875L761.125 20.6v33.45c0 3.079-2.616 5.575-5.844 5.575h-35.062c-3.228 0-5.844-2.496-5.844-5.575V9.45c0-3.079 2.616-5.575 5.844-5.575h23.375m11.687 50.175V23.387h-14.609V9.45h-20.453v44.6h35.062" fill="#000000"/><path d="M734.629 52.92139v-4.252h-6.981l5.571-5.314 5.57-5.314 5.57 5.314 5.571 5.314h-6.981v8.504h-8.32z" fill="#81b6f4"/><path d="M807.594 3.875L825.125 20.6v33.45c0 3.079-2.616 5.575-5.844 5.575h-35.062c-3.228 0-5.844-2.496-5.844-5.575V9.45c0-3.079 2.616-5.575 5.844-5.575h23.375m11.687 50.175V23.387h-14.609V9.45h-20.453v44.6h35.062" fill="#000000"/><path d="M798.629 53.13924v-4.252h-6.981l5.571-5.314 5.57-5.314 5.57 5.314 5.571 5.314h-6.981v8.504h-8.32z" fill="#81b6f4"/><path d="M871.594 3.875L889.125 20.6v33.45c0 3.079-2.616 5.575-5.844 5.575h-35.062c-3.228 0-5.844-2.496-5.844-5.575V9.45c0-3.079 2.616-5.575 5.844-5.575h23.375m11.687 50.175V23.387h-14.609V9.45h-20.453v44.6h35.062" fill="#000000"/><path d="M862.629 53.053066v-4.252h-6.981l5.571-5.314 5.57-5.314 5.57 5.314 5.571 5.314h-6.981v8.504h-8.32z" fill="#81b6f4"/><path d="M935.594 3.875L953.125 20.6v33.45c0 3.079-2.616 5.575-5.844 5.575h-35.062c-3.228 0-5.844-2.496-5.844-5.575V9.45c0-3.079 2.616-5.575 5.844-5.575h23.375m11.687 50.175V23.387h-14.609V9.45h-20.453v44.6h35.062" fill="#000000"/><path d="M926.629 52.61116v-4.252h-6.981l5.571-5.314 5.57-5.314 5.57 5.314 5.571 5.314h-6.981v8.504h-8.32z" fill="#81b6f4"/><path d="M999.594 3.875l17.531 16.725v33.45c0 3.079-2.616 5.575-5.844 5.575h-35.062c-3.228 0-5.844-2.496-5.844-5.575V9.45c0-3.079 2.616-5.575 5.844-5.575h23.375m11.687 50.175V23.387h-14.609V9.45h-20.453v44.6h35.062" fill="#000000"/><path d="M990.629 51.761821v-4.252h-6.981l5.571-5.314 5.57-5.314 5.57 5.314 5.571 5.314h-6.981v8.504h-8.32z" fill="#81b6f4"/><path d="M1063.594 3.875l17.531 16.725v33.45c0 3.079-2.616 5.575-5.844 5.575h-35.062c-3.228 0-5.844-2.496-5.844-5.575V9.45c0-3.079 2.616-5.575 5.844-5.575h23.375m11.687 50.175V23.387h-14.609V9.45h-20.453v44.6h35.062" fill="#000000"/><path d="M1054.629 50.453342v-4.252h-6.981l5.571-5.314 5.57-5.314 5.57 5.314 5.571 5.314h-6.981v8.504h-8.32z" fill="#81b6f4"/><path d="M1127.594 3.875l17.531 16.725v33.45c0 3.079-2.616 5.575-5.844 5.575h-35.062c-3.228 0-5.844-2.496-5.844-5.575V9.45c0-3.079 2.616-5.575 5.844-5.575h23.375m11.687 50.175V23.387h-14.609V9.45h-20.453v44.6h35.062" fill="#000000"/><path d="M1118.629 48.634018v-4.252h-6.981l5.571-5.314 5.57-5.314 5.57 5.314 5.571 5.314h-6.981v8.504h-8.32z" fill="#81b6f4"/><path d="M1191.594 3.875l17.531 16.725v33.45c0 3.079-2.616 5.575-5.844 5.575h-35.062c-3.228 0-5.844-2.496-5.844-5.575V9.45c0-3.079 2.616-5.575 5.844-5.575h23.375m11.687 50.175V23.387h-14.609V9.45h-20.453v44.6h35.062" fill="#000000"/><path d="M1182.629 46.252144v-4.252h-6.981l5.571-5.314 5.57-5.314 5.57 5.314 5.571 5.314h-6.981v8.504h-8.32z" fill="#81b6f4"/><path d="M1255.594 3.875l17.531 16.725v33.45c0 3.079-2.616 5.575-5.844 5.575h-35.062c-3.228 0-5.844-2.496-5.844-5.575V9.45c0-3.079 2.616-5.575 5.844-5.575h23.375m11.687 50.175V23.387h-14.609V9.45h-20.453v44.6h35.062" fill="#000000"/><path d="M1246.629 43.256016v-4.252h-6.981l5.571-5.314 5.57-5.314 5.57 5.314 5.571 5.314h-6.981v8.504h-8.32z" fill="#81b6f4"/><path d="M1319.594 3.875l17.531 16.725v33.45c0 3.079-2.616 5.575-5.844 5.575h-35.062c-3.228 0-5.844-2.496-5.844-5.575V9.45c0-3.079 2.616-5.575 5.844-5.575h23.375m11.687 50.175V23.387h-14.609V9.45h-20.453v44.6h35.062" fill="#000000"/><path d="M1310.629 39.593928v-4.252h-6.981l5.571-5.314 5.57-5.314 5.57 5.314 5.571 5.314h-6.981v8.504h-8.32z" fill="#81b6f4"/><path d="M1383.594 3.875l17.531 16.725v33.45c0 3.079-2.616 5.575-5.844 5.575h-35.062c-3.228 0-5.844-2.496-5.844-5.575V9.45c0-3.079 2.616-5.575 5.844-5.575h23.375m11.687 50.175V23.387h-14.609V9.45h-20.453v44.6h35.062" fill="#000000"/><path d="M1374.629 35.214176v-4.252h-6.981l5.571-5.314 5.57-5.314 5.57 5.314 5.571 5.314h-6.981v8.504h-8.32z" fill="#81b6f4"/><path d="M1447.594 3.875l17.531 16.725v33.45c0 3.079-2.616 5.575-5.844 5.575h-35.062c-3.228 0-5.844-2.496-5.844-5.575V9.45c0-3.079 2.616-5.575 5.844-5.575h23.375m11.687 50.175V23.387h-14.609V9.45h-20.453v44.6h35.062" fill="#000000"/><path d="M1438.629 30.065054v-4.252h-6.981l5.571-5.314 5.57-5.314 5.57 5.314 5.571 5.314h-6.981v8.504h-8.32z" fill="#81b6f4"/><path d="M1511.594 3.875l17.531 16.725v33.45c0 3.079-2.616 5.575-5.844 5.575h-35.062c-3.228 0-5.844-2.496-5.844-5.575V9.45c0-3.079 2.616-5.575 5.844-5.575h23.375m11.687 50.175V23.387h-14.609V9.45h-20.453v44.6h35.062" fill="#000000"/><path d="M1502.629 24.094858v-4.252h-6.981l5.571-5.314 5.57-5.314 5.57 5.314 5.571 5.314h-6.981v8.504h-8.32z" fill="#81b6f4"/><path d="M1575.594 3.875l17.531 16.725v33.45c0 3.079-2.616 5.575-5.844 5.575h-35.062c-3.228 0-5.844-2.496-5.844-5.575V9.45c0-3.079 2.616-5.575 5.844-5.575h23.375m11.687 50.175V23.387h-14.609V9.45h-20.453v44.6h35.062" fill="#000000"/><path d="M1566.629 17.251883v-4.252h-6.981l5.571-5.314 5.57-5.314 5.57 5.314 5.571 5.314h-6.981v8.504h-8.32z" fill="#81b6f4"/><path d="M1639.594 3.875l17.531 16.725v33.45c0 3.079-2.616 5.575-5.844 5.575h-35.062c-3.228 0-5.844-2.496-5.844-5.575V9.45c0-3.079 2.616-5.575 5.844-5.575h23.375m11.687 50.175V23.387h-14.609V9.45h-20.453v44.6h35.062" fill="#000000"/><path d="M1630.629 9.484424v-4.252h-6.981l5.571-5.314 5.57-5.314 5.57 5.314 5.571 5.314h-6.981v8.504h-8.32z" fill="#81b6f4"/><path d="M1703.594 3.875l17.531 16.725v33.45c0 3.079-2.616 5.575-5.844 5.575h-35.062c-3.228 0-5.844-2.496-5.844-5.575V9.45c0-3.079 2.616-5.575 5.844-5.575h23.375m11.687 50.175V23.387h-14.609V9.45h-20.453v44.6h35.062" fill="#000000"/><path d="M1694.629.740776v-4.252h-6.981l5.571-5.314 5.57-5.314 5.57 5.314 5.571 5.314h-6.981v8.504h-8.32z" fill="#81b6f4"/><path d="M1767.594 3.875l17.531 16.725v33.45c0 3.079-2.616 5.575-5.844 5.575h-35.062c-3.228 0-5.844-2.496-5.844-5.575V9.45c0-3.079 2.616-5.575 5.844-5.575h23.375m11.687 50.175V23.387h-14.609V9.45h-20.453v44.6h35.062" fill="#000000"/><path d="M1758.629-9.030766v-4.252h-6.981l5.571-5.314 5.57-5.314 5.57 5.314 5.571 5.314h-6.981v8.504h-8.32z" fill="#81b6f4"/><g><path d="M1831.594 3.875l17.531 16.725v33.45c0 3.079-2.616 5.575-5.844 5.575h-35.062c-3.228 0-5.844-2.496-5.844-5.575V9.45c0-3.079 2.616-5.575 5.844-5.575h23.375m11.687 50.175V23.387h-14.609V9.45h-20.453v44.6h35.062" fill="#000000"/><path d="M1822.629 75.22745v-4.252h-6.981l5.571-5.314 5.57-5.314 5.57 5.314 5.571 5.314h-6.981v8.504h-8.32z" fill="#81b6f4"/></g><g><path d="M1895.594 3.875l17.531 16.725v33.45c0 3.079-2.616 5.575-5.844 5.575h-35.062c-3.228 0-5.844-2.496-5.844-5.575V9.45c0-3.079 2.616-5.575 5.844-5.575h23.375m11.687 50.175V23.387h-14.609V9.45h-20.453v44.6h35.062" fill="#000000"/><path d="M1886.629 75.033804v-4.252h-6.981l5.571-5.314 5.57-5.314 5.57 5.314 5.571 5.314h-6.981v8.504h-8.32z" fill="#81b6f4"/></g><g><path d="M1959.594 3.875l17.531 16.725v33.45c0 3.079-2.616 5.575-5.844 5.575h-35.062c-3.228 0-5.844-2.496-5.844-5.575V9.45c0-3.079 2.616-5.575 5.844-5.575h23.375m11.687 50.175V23.387h-14.609V9.45h-20.453v44.6h35.062" fill="#000000"/><path d="M1950.629 74.58748v-4.252h-6.981l5.571-5.314 5.57-5.314 5.57 5.314 5.571 5.314h-6.981v8.504h-8.32z" fill="#81b6f4"/></g><g><path d="M2023.594 3.875l17.531 16.725v33.45c0 3.079-2.616 5.575-5.844 5.575h-35.062c-3.228 0-5.844-2.496-5.844-5.575V9.45c0-3.079 2.616-5.575 5.844-5.575h23.375m11.687 50.175V23.387h-14.609V9.45h-20.453v44.6h35.062" fill="#000000"/><path d="M2014.629 73.815647v-4.252h-6.981l5.571-5.314 5.57-5.314 5.57 5.314 5.571 5.314h-6.981v8.504h-8.32z" fill="#81b6f4"/></g><g><path d="M2087.594 3.875l17.531 16.725v33.45c0 3.079-2.616 5.575-5.844 5.575h-35.062c-3.228 0-5.844-2.496-5.844-5.575V9.45c0-3.079 2.616-5.575 5.844-5.575h23.375m11.687 50.175V23.387h-14.609V9.45h-20.453v44.6h35.062" fill="#000000"/><path d="M2078.629 72.622456v-4.252h-6.981l5.571-5.314 5.57-5.314 5.57 5.314 5.571 5.314h-6.981v8.504h-8.32z" fill="#81b6f4"/></g><g><path d="M2151.594 3.875l17.531 16.725v33.45c0 3.079-2.616 5.575-5.844 5.575h-35.062c-3.228 0-5.844-2.496-5.844-5.575V9.45c0-3.079 2.616-5.575 5.844-5.575h23.375m11.687 50.175V23.387h-14.609V9.45h-20.453v44.6h35.062" fill="#000000"/><path d="M2142.629 70.89722v-4.252h-6.981l5.571-5.314 5.57-5.314 5.57 5.314 5.571 5.314h-6.981v8.504h-8.32z" fill="#81b6f4"/></g><g><path d="M2215.594 3.875l17.531 16.725v33.45c0 3.079-2.616 5.575-5.844 5.575h-35.062c-3.228 0-5.844-2.496-5.844-5.575V9.45c0-3.079 2.616-5.575 5.844-5.575h23.375m11.687 50.175V23.387h-14.609V9.45h-20.453v44.6h35.062" fill="#000000"/><path d="M2206.629 68.563821v-4.252h-6.981l5.571-5.314 5.57-5.314 5.57 5.314 5.571 5.314h-6.981v8.504h-8.32z" fill="#81b6f4"/></g><g><path d="M2279.594 3.875l17.531 16.725v33.45c0 3.079-2.616 5.575-5.844 5.575h-35.062c-3.228 0-5.844-2.496-5.844-5.575V9.45c0-3.079 2.616-5.575 5.844-5.575h23.375m11.687 50.175V23.387h-14.609V9.45h-20.453v44.6h35.062" fill="#000000"/><path d="M2270.629 65.69973v-4.252h-6.981l5.571-5.314 5.57-5.314 5.57 5.314 5.571 5.314h-6.981v8.504h-8.32z" fill="#81b6f4"/></g><g><path d="M2343.594 3.875l17.531 16.725v33.45c0 3.079-2.616 5.575-5.844 5.575h-35.062c-3.228 0-5.844-2.496-5.844-5.575V9.45c0-3.079 2.616-5.575 5.844-5.575h23.375m11.687 50.175V23.387h-14.609V9.45h-20.453v44.6h35.062" fill="#000000"/><path d="M2334.629 62.616538v-4.252h-6.981l5.571-5.314 5.57-5.314 5.57 5.314 5.571 5.314h-6.981v8.504h-8.32z" fill="#81b6f4"/></g><g><path d="M2407.594 3.875l17.531 16.725v33.45c0 3.079-2.616 5.575-5.844 5.575h-35.062c-3.228 0-5.844-2.496-5.844-5.575V9.45c0-3.079 2.616-5.575 5.844-5.575h23.375m11.687 50.175V23.387h-14.609V9.45h-20.453v44.6h35.062" fill="#000000"/><path d="M2398.629 59.690175v-4.252h-6.981l5.571-5.314 5.57-5.314 5.57 5.314 5.571 5.314h-6.981v8.504h-8.32z" fill="#81b6f4"/></g><g><path d="M2471.594 3.875l17.531 16.725v33.45c0 3.079-2.616 5.575-5.844 5.575h-35.062c-3.228 0-5.844-2.496-5.844-5.575V9.45c0-3.079 2.616-5.575 5.844-5.575h23.375m11.687 50.175V23.387h-14.609V9.45h-20.453v44.6h35.062" fill="#000000"/><path d="M2462.629 57.128504v-4.252h-6.981l5.571-5.314 5.57-5.314 5.57 5.314 5.571 5.314h-6.981v8.504h-8.32z" fill="#81b6f4"/></g><g><path d="M2535.594 3.875l17.531 16.725v33.45c0 3.079-2.616 5.575-5.844 5.575h-35.062c-3.228 0-5.844-2.496-5.844-5.575V9.45c0-3.079 2.616-5.575 5.844-5.575h23.375m11.687 50.175V23.387h-14.609V9.45h-20.453v44.6h35.062" fill="#000000"/><path d="M2526.629 54.966245v-4.252h-6.981l5.571-5.314 5.57-5.314 5.57 5.314 5.571 5.314h-6.981v8.504h-8.32z" fill="#81b6f4"/></g><g><path d="M2599.594 3.875l17.531 16.725v33.45c0 3.079-2.616 5.575-5.844 5.575h-35.062c-3.228 0-5.844-2.496-5.844-5.575V9.45c0-3.079 2.616-5.575 5.844-5.575h23.375m11.687 50.175V23.387h-14.609V9.45h-20.453v44.6h35.062" fill="#000000"/><path d="M2590.629 53.161879v-4.252h-6.981l5.571-5.314 5.57-5.314 5.57 5.314 5.571 5.314h-6.981v8.504h-8.32z" fill="#81b6f4"/></g><g><path d="M2663.594 3.875l17.531 16.725v33.45c0 3.079-2.616 5.575-5.844 5.575h-35.062c-3.228 0-5.844-2.496-5.844-5.575V9.45c0-3.079 2.616-5.575 5.844-5.575h23.375m11.687 50.175V23.387h-14.609V9.45h-20.453v44.6h35.062" fill="#000000"/><path d="M2654.629 51.657999v-4.252h-6.981l5.571-5.314 5.57-5.314 5.57 5.314 5.571 5.314h-6.981v8.504h-8.32z" fill="#81b6f4"/></g><g><path d="M2727.594 3.875l17.531 16.725v33.45c0 3.079-2.616 5.575-5.844 5.575h-35.062c-3.228 0-5.844-2.496-5.844-5.575V9.45c0-3.079 2.616-5.575 5.844-5.575h23.375m11.687 50.175V23.387h-14.609V9.45h-20.453v44.6h35.062" fill="#000000"/><path d="M2718.629 50.40239v-4.252h-6.981l5.571-5.314 5.57-5.314 5.57 5.314 5.571 5.314h-6.981v8.504h-8.32z" fill="#81b6f4"/></g><g><path d="M2791.594 3.875l17.531 16.725v33.45c0 3.079-2.616 5.575-5.844 5.575h-35.062c-3.228 0-5.844-2.496-5.844-5.575V9.45c0-3.079 2.616-5.575 5.844-5.575h23.375m11.687 50.175V23.387h-14.609V9.45h-20.453v44.6h35.062" fill="#000000"/><path d="M2782.629 49.352435v-4.252h-6.981l5.571-5.314 5.57-5.314 5.57 5.314 5.571 5.314h-6.981v8.504h-8.32z" fill="#81b6f4"/></g><g><path d="M2855.594 3.875l17.531 16.725v33.45c0 3.079-2.616 5.575-5.844 5.575h-35.062c-3.228 0-5.844-2.496-5.844-5.575V9.45c0-3.079 2.616-5.575 5.844-5.575h23.375m11.687 50.175V23.387h-14.609V9.45h-20.453v44.6h35.062" fill="#000000"/><path d="M2846.629 48.474432v-4.252h-6.981l5.571-5.314 5.57-5.314 5.57 5.314 5.571 5.314h-6.981v8.504h-8.32z" fill="#81b6f4"/></g><g><path d="M2919.594 3.875l17.531 16.725v33.45c0 3.079-2.616 5.575-5.844 5.575h-35.062c-3.228 0-5.844-2.496-5.844-5.575V9.45c0-3.079 2.616-5.575 5.844-5.575h23.375m11.687 50.175V23.387h-14.609V9.45h-20.453v44.6h35.062" fill="#000000"/><path d="M2910.629 47.741844v-4.252h-6.981l5.571-5.314 5.57-5.314 5.57 5.314 5.571 5.314h-6.981v8.504h-8.32z" fill="#81b6f4"/></g><g><path d="M2983.594 3.875l17.531 16.725v33.45c0 3.079-2.616 5.575-5.844 5.575h-35.062c-3.228 0-5.844-2.496-5.844-5.575V9.45c0-3.079 2.616-5.575 5.844-5.575h23.375m11.687 50.175V23.387h-14.609V9.45h-20.453v44.6h35.062" fill="#000000"/><path d="M2974.629 47.133648v-4.252h-6.981l5.571-5.314 5.57-5.314 5.57 5.314 5.571 5.314h-6.981v8.504h-8.32z" fill="#81b6f4"/></g><g><path d="M3047.594 3.875l17.531 16.725v33.45c0 3.079-2.616 5.575-5.844 5.575h-35.062c-3.228 0-5.844-2.496-5.844-5.575V9.45c0-3.079 2.616-5.575 5.844-5.575h23.375m11.687 50.175V23.387h-14.609V9.45h-20.453v44.6h35.062" fill="#000000"/><path d="M3038.629 46.633012v-4.252h-6.981l5.571-5.314 5.57-5.314 5.57 5.314 5.571 5.314h-6.981v8.504h-8.32z" fill="#81b6f4"/></g><g><path d="M3111.594 3.875l17.531 16.725v33.45c0 3.079-2.616 5.575-5.844 5.575h-35.062c-3.228 0-5.844-2.496-5.844-5.575V9.45c0-3.079 2.616-5.575 5.844-5.575h23.375m11.687 50.175V23.387h-14.609V9.45h-20.453v44.6h35.062" fill="#000000"/><path d="M3102.629 46.226306v-4.252h-6.981l5.571-5.314 5.57-5.314 5.57 5.314 5.571 5.314h-6.981v8.504h-8.32z" fill="#81b6f4"/></g><g><path d="M3175.594 3.875l17.531 16.725v33.45c0 3.079-2.616 5.575-5.844 5.575h-35.062c-3.228 0-5.844-2.496-5.844-5.575V9.45c0-3.079 2.616-5.575 5.844-5.575h23.375m11.687 50.175V23.387h-14.609V9.45h-20.453v44.6h35.062" fill="#000000"/><path d="M3166.629 45.902362v-4.252h-6.981l5.571-5.314 5.57-5.314 5.57 5.314 5.571 5.314h-6.981v8.504h-8.32z" fill="#81b6f4"/></g><g><path d="M3239.594 3.875l17.531 16.725v33.45c0 3.079-2.616 5.575-5.844 5.575h-35.062c-3.228 0-5.844-2.496-5.844-5.575V9.45c0-3.079 2.616-5.575 5.844-5.575h23.375m11.687 50.175V23.387h-14.609V9.45h-20.453v44.6h35.062" fill="#000000"/><path d="M3230.629 45.651927v-4.252h-6.981l5.571-5.314 5.57-5.314 5.57 5.314 5.571 5.314h-6.981v8.504h-8.32z" fill="#81b6f4"/></g><g><path d="M3303.594 3.875l17.531 16.725v33.45c0 3.079-2.616 5.575-5.844 5.575h-35.062c-3.228 0-5.844-2.496-5.844-5.575V9.45c0-3.079 2.616-5.575 5.844-5.575h23.375m11.687 50.175V23.387h-14.609V9.45h-20.453v44.6h35.062" fill="#000000"/><path d="M3294.629 45.467257v-4.252h-6.981l5.571-5.314 5.57-5.314 5.57 5.314 5.571 5.314h-6.981v8.504h-8.32z" fill="#81b6f4"/></g><g><path d="M3367.594 3.875l17.531 16.725v33.45c0 3.079-2.616 5.575-5.844 5.575h-35.062c-3.228 0-5.844-2.496-5.844-5.575V9.45c0-3.079 2.616-5.575 5.844-5.575h23.375m11.687 50.175V23.387h-14.609V9.45h-20.453v44.6h35.062" fill="#000000"/><path d="M3358.629 45.341804v-4.252h-6.981l5.571-5.314 5.57-5.314 5.57 5.314 5.571 5.314h-6.981v8.504h-8.32z" fill="#81b6f4"/></g><g><path d="M3431.594 3.875l17.531 16.725v33.45c0 3.079-2.616 5.575-5.844 5.575h-35.062c-3.228 0-5.844-2.496-5.844-5.575V9.45c0-3.079 2.616-5.575 5.844-5.575h23.375m11.687 50.175V23.387h-14.609V9.45h-20.453v44.6h35.062" fill="#000000"/><path d="M3422.629 45.269984v-4.252h-6.981l5.571-5.314 5.57-5.314 5.57 5.314 5.571 5.314h-6.981v8.504h-8.32z" fill="#81b6f4"/></g><g><path d="M3495.594 3.875l17.531 16.725v33.45c0 3.079-2.616 5.575-5.844 5.575h-35.062c-3.228 0-5.844-2.496-5.844-5.575V9.45c0-3.079 2.616-5.575 5.844-5.575h23.375m11.687 50.175V23.387h-14.609V9.45h-20.453v44.6h35.062" fill="#000000"/><path d="M3486.629 45.247v-4.252h-6.981l5.571-5.314 5.57-5.314 5.57 5.314 5.571 5.314h-6.981v8.504h-8.32z" fill="#81b6f4"/></g></svg>